<?xml version="1.0" encoding="UTF-8" standalone="no"?>
<!-- Created with Inkscape (http://www.inkscape.org/) -->

<svg
   inkscape:export-ydpi="96"
   inkscape:export-xdpi="96"
   inkscape:export-filename="Template.png"
   width="192"
   height="152"
   id="svg11300"
   sodipodi:version="0.32"
   inkscape:version="1.3 (0e150ed6c4, 2023-07-21)"
   sodipodi:docname="io.github.diegopvlk.Dosage.Source.svg"
   inkscape:output_extension="org.inkscape.output.svg.inkscape"
   version="1.0"
   style="display:inline;enable-background:new"
   viewBox="0 0 192 152"
   xml:space="preserve"
   xmlns:inkscape="http://www.inkscape.org/namespaces/inkscape"
   xmlns:sodipodi="http://sodipodi.sourceforge.net/DTD/sodipodi-0.dtd"
   xmlns:xlink="http://www.w3.org/1999/xlink"
   xmlns="http://www.w3.org/2000/svg"
   xmlns:svg="http://www.w3.org/2000/svg"
   xmlns:rdf="http://www.w3.org/1999/02/22-rdf-syntax-ns#"
   xmlns:cc="http://creativecommons.org/ns#"
   xmlns:dc="http://purl.org/dc/elements/1.1/"><title
     id="title4162">Adwaita Icon Template</title><defs
     id="defs3"><linearGradient
       id="linearGradient18"
       inkscape:collect="always"><stop
         style="stop-color:#99a0c9;stop-opacity:1;"
         offset="0"
         id="stop16" /><stop
         style="stop-color:#667dff;stop-opacity:0.69999999;"
         offset="0.5"
         id="stop17" /><stop
         style="stop-color:#99a0c9;stop-opacity:1;"
         offset="1"
         id="stop18" /></linearGradient><linearGradient
       id="linearGradient15"
       inkscape:collect="always"><stop
         style="stop-color:#ffffff;stop-opacity:1;"
         offset="0"
         id="stop14" /><stop
         style="stop-color:#e2e7ff;stop-opacity:1;"
         offset="1"
         id="stop15" /></linearGradient><linearGradient
       id="linearGradient6"
       inkscape:collect="always"><stop
         style="stop-color:#9fa6c2;stop-opacity:1;"
         offset="0.05"
         id="stop6" /><stop
         style="stop-color:#d0d3dc;stop-opacity:1;"
         offset="0.5"
         id="stop8" /><stop
         style="stop-color:#9fa6c2;stop-opacity:1;"
         offset="0.94999999"
         id="stop7" /></linearGradient><linearGradient
       y2="236"
       x2="96"
       y1="236"
       x1="32"
       gradientTransform="translate(604.81684,170.58641)"
       gradientUnits="userSpaceOnUse"
       id="linearGradient1099"
       xlink:href="#linearGradient1036" /><linearGradient
       id="linearGradient1036"><stop
         id="stop1032"
         offset="0"
         style="stop-color:#d5d3cf;stop-opacity:1;" /><stop
         id="stop1034"
         offset="1"
         style="stop-color:#f6f5f4;stop-opacity:1" /></linearGradient><radialGradient
       r="32"
       fy="-76"
       fx="-244"
       cy="-76"
       cx="-244"
       gradientTransform="matrix(0.88333331,0,0,0.88333331,-460.35018,463.11973)"
       gradientUnits="userSpaceOnUse"
       id="radialGradient1103"
       xlink:href="#linearGradient1069" /><linearGradient
       id="linearGradient1069"><stop
         id="stop1065"
         offset="0"
         style="stop-color:#d5d3cf;stop-opacity:1" /><stop
         id="stop1067-1"
         offset="1"
         style="stop-color:#949390;stop-opacity:1" /></linearGradient><linearGradient
       gradientUnits="userSpaceOnUse"
       y2="232"
       x2="64"
       y1="262.5"
       x1="64"
       id="linearGradient1027"
       xlink:href="#linearGradient1025"
       gradientTransform="translate(-470.5864,432.81685)" /><linearGradient
       id="linearGradient1025"><stop
         id="stop1021"
         offset="0"
         style="stop-color:#9a9996;stop-opacity:1" /><stop
         id="stop1023"
         offset="1"
         style="stop-color:#77767b;stop-opacity:1" /></linearGradient><inkscape:path-effect
       effect="spiro"
       id="path-effect35304-9"
       is_visible="true" /><clipPath
       clipPathUnits="userSpaceOnUse"
       id="clipPath1609-7"><path
         sodipodi:nodetypes="cccccc"
         inkscape:connector-curvature="0"
         id="path1611-5"
         d="m 252,116 28,-28 v -8 h -36 v 36 z"
         style="fill:#e74747;stroke:none;stroke-width:0.25px;stroke-linecap:butt;stroke-linejoin:miter;stroke-opacity:1" /></clipPath><linearGradient
       id="linearGradient1697"><stop
         id="stop1685"
         offset="0"
         style="stop-color:#deddda;stop-opacity:1" /><stop
         style="stop-color:#eeeeec;stop-opacity:1"
         offset="0.04545455"
         id="stop1687" /><stop
         id="stop1689"
         offset="0.09090909"
         style="stop-color:#deddda;stop-opacity:1" /><stop
         style="stop-color:#deddda;stop-opacity:1"
         offset="0.90909094"
         id="stop1691" /><stop
         id="stop1693"
         offset="0.95454544"
         style="stop-color:#eeeeec;stop-opacity:1" /><stop
         id="stop1695"
         offset="1"
         style="stop-color:#c0bfbc;stop-opacity:1" /></linearGradient><clipPath
       clipPathUnits="userSpaceOnUse"
       id="clipPath1289"><path
         style="display:inline;opacity:1;vector-effect:none;fill:none;fill-opacity:1;stroke:#000000;stroke-width:4;stroke-linecap:round;stroke-linejoin:round;stroke-miterlimit:4;stroke-dasharray:none;stroke-dashoffset:0;stroke-opacity:1;marker:none;marker-start:none;marker-mid:none;marker-end:none;paint-order:normal;enable-background:new"
         d="m 64,-148 h 64 l 64,-64 64,64 h 192 c 17.728,0 32,14.272 32,32 v 288 c 0,17.728 -14.272,32 -32,32 H 256 l -64,-64 -64,64 H 64 C 46.272,204 32,189.728 32,172 v -288 c 0,-17.728 14.408898,-34.19889 32,-32 z"
         id="path1291"
         inkscape:connector-curvature="0"
         sodipodi:nodetypes="scccsssscccssss" /></clipPath><linearGradient
       id="paint3_linear-2-6-5"
       x2="1"
       gradientUnits="userSpaceOnUse"
       gradientTransform="matrix(0,6,-12,0,-64,209.99687)"><stop
         stop-color="#C01C27"
         id="stop91-0-7-4" /><stop
         offset="1"
         stop-color="#E01B24"
         id="stop93-2-5-7" /></linearGradient><clipPath
       clipPathUnits="userSpaceOnUse"
       id="clipPath1609"><path
         sodipodi:nodetypes="cccccc"
         inkscape:connector-curvature="0"
         id="path1611"
         d="m 252,116 28,-28 v -8 h -36 v 36 z"
         style="fill:#e74747;stroke:none;stroke-width:0.25px;stroke-linecap:butt;stroke-linejoin:miter;stroke-opacity:1" /></clipPath><linearGradient
       inkscape:collect="always"
       xlink:href="#linearGradient6"
       id="linearGradient7"
       x1="15.816913"
       y1="236.33556"
       x2="111.81694"
       y2="236.33556"
       gradientUnits="userSpaceOnUse"
       gradientTransform="matrix(1.1666663,0,0,1.1458329,-10.453059,-35.801064)" /><linearGradient
       inkscape:collect="always"
       xlink:href="#linearGradient18"
       id="linearGradient13"
       x1="19"
       y1="209.25"
       x2="59.5"
       y2="209.25"
       gradientUnits="userSpaceOnUse"
       gradientTransform="matrix(0.98765432,0,0,0.98765432,0.2345679,2.333333)" /><linearGradient
       inkscape:collect="always"
       xlink:href="#linearGradient18"
       id="linearGradient1"
       gradientUnits="userSpaceOnUse"
       gradientTransform="matrix(0.98765432,0,0,0.98765432,50.234568,2.333333)"
       x1="19"
       y1="209.25"
       x2="59.5"
       y2="209.25" /><linearGradient
       inkscape:collect="always"
       xlink:href="#linearGradient18"
       id="linearGradient8"
       gradientUnits="userSpaceOnUse"
       gradientTransform="matrix(0.98765432,0,0,0.98765432,50.234568,54.333333)"
       x1="19"
       y1="209.25"
       x2="59.5"
       y2="209.25" /><linearGradient
       inkscape:collect="always"
       xlink:href="#linearGradient18"
       id="linearGradient9"
       gradientUnits="userSpaceOnUse"
       gradientTransform="matrix(0.98765432,0,0,0.98765432,0.2345679,54.333333)"
       x1="19"
       y1="209.25"
       x2="59.5"
       y2="209.25" /><linearGradient
       inkscape:collect="always"
       xlink:href="#linearGradient15"
       id="linearGradient3"
       x1="89"
       y1="241"
       x2="89"
       y2="277"
       gradientUnits="userSpaceOnUse" /><linearGradient
       inkscape:collect="always"
       xlink:href="#linearGradient15"
       id="linearGradient11"
       x1="39"
       y1="241"
       x2="39"
       y2="277"
       gradientUnits="userSpaceOnUse" /><linearGradient
       inkscape:collect="always"
       xlink:href="#linearGradient15"
       id="linearGradient12"
       gradientUnits="userSpaceOnUse"
       x1="39"
       y1="241"
       x2="39"
       y2="277"
       gradientTransform="translate(0,-52)" /><linearGradient
       inkscape:collect="always"
       xlink:href="#linearGradient15"
       id="linearGradient14"
       gradientUnits="userSpaceOnUse"
       gradientTransform="translate(50,-52)"
       x1="39"
       y1="241"
       x2="39"
       y2="277" /></defs><sodipodi:namedview
     stroke="#ef2929"
     fill="#f57900"
     id="base"
     pagecolor="#ffffff"
     bordercolor="#666666"
     borderopacity="0.25490196"
     inkscape:pageopacity="0.0"
     inkscape:pageshadow="2"
     inkscape:zoom="1"
     inkscape:cx="6"
     inkscape:cy="77.5"
     inkscape:current-layer="layer9"
     showgrid="false"
     inkscape:grid-bbox="true"
     inkscape:document-units="px"
     inkscape:showpageshadow="false"
     inkscape:window-width="1920"
     inkscape:window-height="1011"
     inkscape:window-x="0"
     inkscape:window-y="0"
     width="400px"
     height="300px"
     inkscape:snap-nodes="true"
     inkscape:snap-bbox="true"
     objecttolerance="7"
     gridtolerance="12"
     guidetolerance="13"
     inkscape:window-maximized="1"
     inkscape:pagecheckerboard="false"
     showguides="false"
     inkscape:guide-bbox="true"
     inkscape:locked="false"
     inkscape:measure-start="0,0"
     inkscape:measure-end="0,0"
     inkscape:object-nodes="true"
     inkscape:bbox-nodes="true"
     inkscape:snap-global="true"
     inkscape:object-paths="true"
     inkscape:snap-intersection-paths="true"
     inkscape:snap-bbox-edge-midpoints="true"
     inkscape:snap-bbox-midpoints="true"
     showborder="true"
     inkscape:snap-center="true"
     inkscape:snap-object-midpoints="true"
     inkscape:snap-midpoints="true"
     inkscape:snap-smooth-nodes="true"
     inkscape:snap-text-baseline="true"
     borderlayer="true"
     inkscape:deskcolor="#d1d1d1"><inkscape:grid
       type="xygrid"
       id="grid5883"
       spacingx="2"
       spacingy="2"
       enabled="true"
       visible="false"
       empspacing="4"
       originx="8"
       originy="8"
       units="px" /><sodipodi:guide
       position="72,16"
       orientation="0,1"
       id="guide1073"
       inkscape:locked="false"
       inkscape:label=""
       inkscape:color="rgb(0,0,255)" /><sodipodi:guide
       position="20,72"
       orientation="1,0"
       id="guide1075"
       inkscape:locked="false"
       inkscape:label=""
       inkscape:color="rgb(0,0,255)" /><sodipodi:guide
       position="72,112"
       orientation="0,1"
       id="guide1099"
       inkscape:locked="false"
       inkscape:label=""
       inkscape:color="rgb(0,0,255)" /><sodipodi:guide
       position="72,136"
       orientation="0,1"
       id="guide993"
       inkscape:locked="false"
       inkscape:label=""
       inkscape:color="rgb(0,0,255)" /><sodipodi:guide
       position="112,72"
       orientation="1,0"
       id="guide995"
       inkscape:locked="false"
       inkscape:label=""
       inkscape:color="rgb(0,0,255)" /><sodipodi:guide
       position="8.0000001,72"
       orientation="1,0"
       id="guide867"
       inkscape:locked="false"
       inkscape:label=""
       inkscape:color="rgb(0,0,255)" /><sodipodi:guide
       position="128,72"
       orientation="1,0"
       id="guide869"
       inkscape:locked="false"
       inkscape:label=""
       inkscape:color="rgb(0,0,255)" /><sodipodi:guide
       position="72,124"
       orientation="0,1"
       id="guide871"
       inkscape:locked="false"
       inkscape:label=""
       inkscape:color="rgb(0,0,255)" /><inkscape:grid
       type="xygrid"
       id="grid873"
       spacingx="1"
       spacingy="1"
       empspacing="8"
       color="#000000"
       opacity="0.49019608"
       empcolor="#000000"
       empopacity="0.08627451"
       dotted="true"
       originx="8"
       originy="8"
       units="px"
       visible="false" /><sodipodi:guide
       position="32,72"
       orientation="1,0"
       id="guide877"
       inkscape:locked="false"
       inkscape:label=""
       inkscape:color="rgb(0,0,255)" /><sodipodi:guide
       position="124,72"
       orientation="1,0"
       id="guide879"
       inkscape:locked="false"
       inkscape:label=""
       inkscape:color="rgb(0,0,255)" /><sodipodi:guide
       position="72,128"
       orientation="0,1"
       id="guide881"
       inkscape:locked="false"
       inkscape:label=""
       inkscape:color="rgb(0,0,255)" /><sodipodi:guide
       position="72,20"
       orientation="0,1"
       id="guide883"
       inkscape:locked="false"
       inkscape:label=""
       inkscape:color="rgb(0,0,255)" /><sodipodi:guide
       position="16,72"
       orientation="1,0"
       id="guide885"
       inkscape:locked="false"
       inkscape:label=""
       inkscape:color="rgb(0,0,255)" /><sodipodi:guide
       position="136,72"
       orientation="1,0"
       id="guide887"
       inkscape:locked="false"
       inkscape:label=""
       inkscape:color="rgb(0,0,255)" /><sodipodi:guide
       position="72,8"
       orientation="0,1"
       id="guide897"
       inkscape:locked="false"
       inkscape:label=""
       inkscape:color="rgb(0,0,255)" /><sodipodi:guide
       position="72,32"
       orientation="0,1"
       id="guide899"
       inkscape:locked="false"
       inkscape:label=""
       inkscape:color="rgb(0,0,255)" /><sodipodi:guide
       position="264,264"
       orientation="-0.70710678,0.70710678"
       id="guide950"
       inkscape:locked="false"
       inkscape:label=""
       inkscape:color="rgb(0,0,255)" /><sodipodi:guide
       position="72,72"
       orientation="0.70710678,0.70710678"
       id="guide952"
       inkscape:locked="false"
       inkscape:label=""
       inkscape:color="rgb(0,0,255)" /></sodipodi:namedview><metadata
     id="metadata4"><rdf:RDF><cc:Work
         rdf:about=""><dc:format>image/svg+xml</dc:format><dc:type
           rdf:resource="http://purl.org/dc/dcmitype/StillImage" /><dc:creator><cc:Agent><dc:title>GNOME Design Team</dc:title></cc:Agent></dc:creator><dc:source /><cc:license
           rdf:resource="http://creativecommons.org/licenses/by-sa/4.0/" /><dc:title>Adwaita Icon Template</dc:title><dc:subject><rdf:Bag /></dc:subject><dc:date /><dc:rights><cc:Agent><dc:title /></cc:Agent></dc:rights><dc:publisher><cc:Agent><dc:title /></cc:Agent></dc:publisher><dc:identifier /><dc:relation /><dc:language /><dc:coverage /><dc:description /><dc:contributor><cc:Agent><dc:title /></cc:Agent></dc:contributor></cc:Work><cc:License
         rdf:about="http://creativecommons.org/licenses/by-sa/4.0/"><cc:permits
           rdf:resource="http://creativecommons.org/ns#Reproduction" /><cc:permits
           rdf:resource="http://creativecommons.org/ns#Distribution" /><cc:requires
           rdf:resource="http://creativecommons.org/ns#Notice" /><cc:requires
           rdf:resource="http://creativecommons.org/ns#Attribution" /><cc:permits
           rdf:resource="http://creativecommons.org/ns#DerivativeWorks" /><cc:requires
           rdf:resource="http://creativecommons.org/ns#ShareAlike" /></cc:License></rdf:RDF></metadata><g
     id="layer1"
     inkscape:label="App Icon"
     inkscape:groupmode="layer"
     style="display:inline"
     transform="translate(8,-156)"><g
       inkscape:groupmode="layer"
       id="layer4"
       inkscape:label="template"
       style="display:inline"
       sodipodi:insensitive="true"><rect
         inkscape:label="0"
         y="172"
         x="9.2651362e-08"
         height="128"
         width="128"
         id="hicolor"
         style="display:inline;overflow:visible;visibility:visible;fill:#f0f0f0;fill-opacity:0;fill-rule:nonzero;stroke:none;stroke-width:0.5;marker:none;enable-background:accumulate" /><rect
         style="display:inline;overflow:visible;visibility:visible;fill:#f0f0f0;fill-opacity:0;fill-rule:nonzero;stroke:none;stroke-width:0.5;marker:none;enable-background:accumulate"
         id="symbolic"
         width="16"
         height="16"
         x="160"
         y="172"
         inkscape:label="0" /></g><g
       inkscape:groupmode="layer"
       id="layer2"
       inkscape:label="baseplate"
       style="display:inline"
       sodipodi:insensitive="true"><g
         style="display:inline;fill:#000000;enable-background:new"
         transform="matrix(7.9911709,0,0,8.0036407,-167.7909,-4846.0776)"
         id="g12027"
         inkscape:export-xdpi="12"
         inkscape:export-ydpi="12" /><rect
         style="display:inline;overflow:visible;visibility:visible;fill:#f0f0f0;fill-opacity:1;fill-rule:nonzero;stroke:none;stroke-width:0.5;marker:none;enable-background:accumulate"
         id="128"
         width="128"
         height="128"
         x="9.2651362e-08"
         y="172"
         inkscape:label="0" /><g
         id="g883"
         style="fill:none;fill-opacity:0.25098;stroke:#a579b3;stroke-opacity:1"
         transform="translate(-24,24)" /><g
         id="g900"
         style="fill:none;fill-opacity:0.25098;stroke:#a579b3;stroke-opacity:1"
         transform="translate(-24,24)" /><rect
         inkscape:label=""
         y="172"
         x="160"
         height="16"
         width="16"
         id="16"
         style="display:inline;overflow:visible;visibility:visible;fill:#f0f0f0;fill-opacity:1;fill-rule:nonzero;stroke:none;stroke-width:0.5;marker:none;enable-background:accumulate" /><text
         xml:space="preserve"
         style="font-style:normal;font-variant:normal;font-weight:bold;font-stretch:normal;font-size:4px;line-height:125%;font-family:Cantarell;-inkscape-font-specification:'Cantarell, Bold';text-align:start;writing-mode:lr-tb;text-anchor:start;display:inline;fill:#000000;fill-opacity:1;stroke:none;stroke-width:0.332649;enable-background:new"
         x="0"
         y="167"
         id="text863"
         inkscape:label="icon-name"><tspan
           style="font-size:4px;stroke-width:0.332649"
           sodipodi:role="line"
           id="tspan861"
           x="0"
           y="167">Hicolor</tspan></text><text
         inkscape:label="icon-name"
         id="text867"
         y="167"
         x="160"
         style="font-style:normal;font-variant:normal;font-weight:bold;font-stretch:normal;font-size:4px;line-height:125%;font-family:Cantarell;-inkscape-font-specification:'Cantarell, Bold';text-align:start;writing-mode:lr-tb;text-anchor:start;display:inline;fill:#000000;fill-opacity:1;stroke:none;stroke-width:0.332649;enable-background:new"
         xml:space="preserve"><tspan
           y="167"
           x="160"
           id="tspan865"
           sodipodi:role="line"
           style="font-size:4px;stroke-width:0.332649">Symbolic</tspan></text></g><g
       inkscape:groupmode="layer"
       id="layer3"
       inkscape:label="grid"
       style="display:inline"
       sodipodi:insensitive="true"><circle
         cx="64.000031"
         cy="236"
         r="59.504131"
         id="circle2892"
         style="display:inline;opacity:0.1;vector-effect:none;fill:none;fill-opacity:1;stroke:#000000;stroke-width:0.99;stroke-linecap:butt;stroke-linejoin:miter;stroke-miterlimit:4;stroke-dasharray:0.99, 0.99;stroke-dashoffset:0;stroke-opacity:1;marker:none;marker-start:none;marker-mid:none;marker-end:none;paint-order:normal;enable-background:new" /><rect
         ry="7.9292889"
         rx="8.701004"
         y="180.49496"
         x="20.495007"
         height="111.01005"
         width="87.009987"
         id="rect2894"
         style="display:inline;opacity:0.1;vector-effect:none;fill:none;fill-opacity:1;stroke:#000000;stroke-width:0.99;stroke-linecap:butt;stroke-linejoin:miter;stroke-miterlimit:4;stroke-dasharray:0.99, 0.99;stroke-dashoffset:0;stroke-opacity:1;marker:none;marker-start:none;marker-mid:none;marker-end:none;paint-order:normal;enable-background:new" /><rect
         ry="7.9238095"
         rx="7.9238095"
         y="184.49524"
         x="12.495266"
         height="103.00952"
         width="103.00952"
         id="rect2896"
         style="display:inline;opacity:0.1;vector-effect:none;fill:none;fill-opacity:1;stroke:#000000;stroke-width:0.99;stroke-linecap:butt;stroke-linejoin:miter;stroke-miterlimit:4;stroke-dasharray:0.99, 0.99;stroke-dashoffset:0;stroke-opacity:1;marker:none;marker-start:none;marker-mid:none;marker-end:none;paint-order:normal;enable-background:new" /><rect
         ry="8.701005"
         rx="7.9292889"
         y="200.49496"
         x="8.4950066"
         height="87.010048"
         width="111.01004"
         id="rect2898"
         style="display:inline;opacity:0.1;vector-effect:none;fill:none;fill-opacity:1;stroke:#000000;stroke-width:0.99;stroke-linecap:butt;stroke-linejoin:miter;stroke-miterlimit:4;stroke-dasharray:0.99, 0.99;stroke-dashoffset:0;stroke-opacity:1;marker:none;marker-start:none;marker-mid:none;marker-end:none;paint-order:normal;enable-background:new" /><path
         inkscape:connector-curvature="0"
         id="path2900"
         d="M 2.6203015e-5,288.99999 H 128.00003"
         style="display:inline;fill:none;stroke:#62a0ea;stroke-width:2;stroke-linecap:butt;stroke-linejoin:miter;stroke-miterlimit:4;stroke-dasharray:none;stroke-opacity:1;enable-background:new" /></g><g
       inkscape:groupmode="layer"
       id="layer9"
       inkscape:label="icons"
       style="display:inline"><rect
         style="display:inline;fill:#8892be;fill-opacity:1;fill-rule:evenodd;stroke-width:0.00262704;stroke-linecap:square;enable-background:new"
         id="rect1-6"
         width="112"
         height="110"
         x="8"
         y="182"
         ry="10.769363" /><rect
         style="fill:url(#linearGradient7);fill-opacity:1;fill-rule:evenodd;stroke-width:0.00262704;stroke-linecap:square"
         id="rect1"
         width="112"
         height="110"
         x="8"
         y="180"
         ry="10.769363" /><path
         id="rect1-3-0"
         style="display:inline;opacity:0.24;mix-blend-mode:normal;fill:#ffffff;fill-opacity:1;fill-rule:nonzero;stroke-width:0.003;stroke-linecap:square;stroke-dasharray:none;enable-background:new"
         d="M 21.496094,180 8,193.49609 v 1.41407 L 22.910156,180 Z m 4.24414,0 L 8,197.73828 v 1.41406 L 27.154297,180 Z m 4.242188,0 L 8,201.98047 v 1.41406 L 31.396484,180 Z m 4.242187,0 L 8,206.22461 v 1.41406 L 35.638672,180 Z m 4.242188,0 L 8,210.4668 v 1.41406 L 39.880859,180 Z m 4.242187,0 L 8,214.70898 v 1.41407 L 44.123047,180 Z m 4.242188,0 L 8,218.95117 v 1.41406 L 48.365234,180 Z m 4.242187,0 L 8,223.19531 v 1.41407 L 52.607422,180 Z m 4.242188,0 L 8,227.4375 v 1.41406 L 56.849609,180 Z m 4.244141,0 L 8,231.67969 v 1.41406 L 61.09375,180 Z m 4.24414,0 L 8,235.92188 v 1.41406 L 65.337891,180 Z m 4.242188,0 L 8,240.16406 v 1.41602 L 69.580078,180 Z m 4.242187,0 L 8,244.4082 v 1.41407 L 73.822266,180 Z m 4.242188,0 L 8,248.65039 v 1.41406 L 78.064453,180 Z m 4.242187,0 L 8,252.89258 v 1.41406 L 82.306641,180 Z m 4.242188,0 L 8,257.13477 v 1.41601 L 86.548828,180 Z m 4.242187,0 L 8,261.37891 v 1.41406 L 90.791016,180 Z m 4.242188,0 L 8,265.62109 v 1.41407 L 95.03516,180 Z M 97.86523,180 8,269.86328 v 1.41406 L 99.2793,180 Z m 4.24219,0 L 8,274.10547 v 1.41406 L 103.52148,180 Z m 4.24219,0 L 8,278.34961 v 0.68555 c 0,0.2344 0.0208,0.46269 0.03516,0.69336 L 107.76367,180 Z m -87.699219,0.0156 c -0.534448,0.0151 -1.058054,0.068 -1.570313,0.15626 l -8.908203,8.9082 c -0.08825,0.51226 -0.141186,1.03586 -0.15625,1.57031 z M 110.48633,180.1054 8.451172,282.14055 c 0.104868,0.35781 0.226018,0.70743 0.365234,1.04883 L 111.67383,180.33203 c -0.38828,-0.0954 -0.7839,-0.17348 -1.1875,-0.22656 z m 3.27344,0.96875 -103.970708,103.9707 c 0.185292,0.28305 0.38375,0.55642 0.59375,0.82031 L 114.67969,181.56836 c -0.29794,-0.17883 -0.60428,-0.3437 -0.91992,-0.49414 z m 2.55078,1.6914 -104.541019,104.54102 c 0.25315,0.22021 0.516168,0.42852 0.789063,0.625 L 117.0293,183.46094 c -0.22845,-0.24338 -0.46901,-0.47371 -0.71875,-0.69532 z m -104.943362,0.29297 c -0.105061,0.10096 -0.207637,0.20354 -0.308594,0.3086 z M 118.26758,185.05071 14.345703,288.97454 c 0.327323,0.15174 0.661791,0.28871 1.005859,0.4082 L 118.78516,185.94727 c -0.15832,-0.30819 -0.33179,-0.60628 -0.51758,-0.89649 z m 1.3125,2.92969 -101.931642,101.93359 c 0.432608,0.0515 0.869502,0.086 1.316406,0.086 h 0.01172 L 119.83594,189.13867 c -0.0656,-0.39349 -0.14978,-0.78032 -0.25586,-1.1582 z M 120,191.80469 21.804688,290 H 23.21875 L 120,193.21875 Z m 0,4.24414 L 26.046875,290 h 1.414063 L 120,197.46289 Z m 0,4.24219 L 30.289062,290 h 1.414063 L 120,201.70508 Z m 0,4.24218 L 34.533203,290 h 1.414063 L 120,205.94727 Z m 0,4.24219 L 38.775391,290 h 1.414062 L 120,210.18945 Z m 0,4.24219 L 43.017578,290 h 1.414063 L 120,214.43164 Z m 0,4.24219 L 47.259766,290 h 1.414062 L 120,218.67383 Z m 0,4.24218 L 51.503906,290 h 1.414063 L 120,222.91602 Z m 0,4.24219 L 55.746094,290 h 1.414062 L 120,227.1582 Z m 0,4.24414 L 59.988281,290 h 1.414063 L 120,231.4043 Z m 0,4.24414 L 64.230469,290 h 1.414062 L 120,235.64648 Z m 0,4.24219 L 68.472656,290 h 1.416016 L 120,239.88867 Z m 0,4.24219 L 72.716797,290 h 1.414062 L 120,244.13086 Z m 0,4.24218 L 76.958984,290 h 1.414063 L 120,248.37305 Z m 0,4.24219 L 81.201172,290 h 1.414062 L 120,252.61523 Z m 0,4.24219 L 85.443359,290 h 1.416016 L 120,256.85742 Z m 0,4.24219 L 89.6875,290 h 1.414062 L 120,261.09961 Z m 0,4.24414 L 93.929688,290 H 95.34375 L 120,265.34375 Z m 0,4.24414 L 98.17188,290 h 1.41406 L 120,269.58789 Z m 0,4.24219 L 102.41406,290 h 1.41406 L 120,273.83008 Z m 0,4.24218 L 106.6582,290 h 1.41407 L 120,278.07227 Z m -0.19922,4.44141 -8.70117,8.70117 c 0.69155,-0.1309 1.35775,-0.32853 1.99609,-0.58203 l 6.12305,-6.12305 c 0.2535,-0.63834 0.45113,-1.30454 0.58203,-1.99609 z" /><circle
         style="display:inline;fill:url(#linearGradient13);fill-opacity:1;fill-rule:evenodd;stroke-width:0.00295963;stroke-linecap:square;enable-background:new"
         id="path2-3-5"
         cx="39"
         cy="209"
         r="20" /><circle
         style="display:inline;fill:url(#linearGradient1);fill-opacity:1;fill-rule:evenodd;stroke-width:0.00295963;stroke-linecap:square;enable-background:new"
         id="path2-3-5-5"
         cx="89"
         cy="209"
         r="20" /><circle
         style="display:inline;fill:url(#linearGradient9);fill-opacity:1;fill-rule:evenodd;stroke-width:0.00295963;stroke-linecap:square;enable-background:new"
         id="circle2"
         cx="39"
         cy="261"
         r="20" /><circle
         style="display:inline;fill:url(#linearGradient11);fill-opacity:1;fill-rule:evenodd;stroke-width:0.00266363;stroke-linecap:square;enable-background:new"
         id="circle3"
         cx="39"
         cy="259"
         r="18" /><circle
         style="display:inline;fill:url(#linearGradient12);fill-opacity:1;fill-rule:evenodd;stroke-width:0.00266363;stroke-linecap:square;enable-background:new"
         id="circle3-7"
         cx="39"
         cy="207"
         r="18" /><circle
         style="display:inline;fill:url(#linearGradient14);fill-opacity:1;fill-rule:evenodd;stroke-width:0.00266363;stroke-linecap:square;enable-background:new"
         id="circle3-7-5"
         cx="89"
         cy="207"
         r="18" /><circle
         style="display:inline;fill:url(#linearGradient8);fill-opacity:1;fill-rule:evenodd;stroke-width:0.00295963;stroke-linecap:square;enable-background:new"
         id="circle4"
         cx="89"
         cy="261"
         r="20" /><circle
         style="display:inline;fill:url(#linearGradient3);fill-opacity:1;fill-rule:evenodd;stroke-width:0.00266363;stroke-linecap:square;enable-background:new"
         id="circle5"
         cx="89"
         cy="259"
         r="18" /><rect
         style="display:inline;fill:#9199d1;fill-opacity:1;fill-rule:evenodd;stroke-width:0.0139558;stroke-linecap:square;stroke-dasharray:none;enable-background:new"
         id="rect39-9-0-5-3"
         width="26.992088"
         height="3.1099448"
         x="-133.70419"
         y="244.51819"
         ry="1.5549724"
         transform="rotate(-45)" /><rect
         style="display:inline;fill:#9199d1;fill-opacity:1;fill-rule:evenodd;stroke-width:0.0139558;stroke-linecap:square;stroke-dasharray:none;enable-background:new"
         id="rect39-9-0-5-3-7"
         width="26.992088"
         height="3.1099448"
         x="-96.934631"
         y="207.74866"
         ry="1.5549724"
         transform="rotate(-45)" /><rect
         style="display:inline;fill:#9199d1;fill-opacity:1;fill-rule:evenodd;stroke-width:0.0139558;stroke-linecap:square;stroke-dasharray:none;enable-background:new"
         id="rect39-9-0-5-3-5"
         width="26.992088"
         height="3.1099448"
         x="-132.28998"
         y="172.39331"
         ry="1.5549724"
         transform="rotate(-45)" /><rect
         style="display:inline;fill:#9199d1;fill-opacity:1;fill-rule:evenodd;stroke-width:0.0139558;stroke-linecap:square;stroke-dasharray:none;enable-background:new"
         id="rect39-9-0-5-3-3"
         width="26.992088"
         height="3.1099448"
         x="-169.05954"
         y="209.16286"
         ry="1.5549724"
         transform="rotate(-45)" /><path
         id="rect43-3-3"
         style="display:inline;fill:#000000;fill-opacity:1;fill-rule:evenodd;stroke-width:0.0158401;stroke-linecap:square;enable-background:new"
         d="M 162.3496,172 C 161.04793,172 160,173.04794 160,174.34961 v 11.30078 c 0,1.30168 1.04793,2.34961 2.3496,2.34961 h 11.30079 c 1.30167,0 2.34962,-1.04793 2.34962,-2.34961 v -11.30078 c 0,-1.30167 -1.04795,-2.34961 -2.34962,-2.34961 z m 0.6875,2 h 9.92579 c 0.57466,0 1.03712,0.46245 1.03712,1.03711 v 9.92383 C 174,185.5356 173.53755,186 172.96289,186 H 163.0371 C 162.46245,186 162,185.5356 162,184.96094 v -9.92383 C 162,174.46245 162.46245,174 163.0371,174 Z" /><rect
         style="opacity:1;fill:#000000;fill-opacity:1;stroke:none;stroke-width:4.749;stroke-linecap:square;stroke-dasharray:none;stroke-opacity:1"
         id="rect2"
         width="2"
         height="4"
         x="245.07318"
         y="6.4852819"
         ry="1"
         transform="rotate(45)" /><path
         id="path5"
         style="opacity:1;fill:#000000;fill-opacity:1;stroke:none;stroke-width:1.94131;stroke-linecap:square;stroke-dasharray:none;stroke-opacity:1"
         d="M 168 175 A 5 5 0 0 0 163 180 A 5 5 0 0 0 168 185 A 5 5 0 0 0 173 180 A 5 5 0 0 0 168 175 z M 168 177 A 3 3 0 0 1 171 180 A 3 3 0 0 1 168 183 A 3 3 0 0 1 165 180 A 3 3 0 0 1 168 177 z " /></g></g></svg>
