<?xml version="1.0" encoding="UTF-8" standalone="no"?>
<!-- Created with Inkscape (http://www.inkscape.org/) -->

<svg
   inkscape:export-ydpi="96"
   inkscape:export-xdpi="96"
   inkscape:export-filename="Template.png"
   width="192"
   height="152"
   id="svg11300"
   sodipodi:version="0.32"
   inkscape:version="1.4 (e7c3feb100, 2024-10-09)"
   sodipodi:docname="io.github.diegopvlk.Dosage.Source.svg"
   inkscape:output_extension="org.inkscape.output.svg.inkscape"
   version="1.0"
   style="display:inline;enable-background:new"
   viewBox="0 0 192 152"
   xml:space="preserve"
   xmlns:inkscape="http://www.inkscape.org/namespaces/inkscape"
   xmlns:sodipodi="http://sodipodi.sourceforge.net/DTD/sodipodi-0.dtd"
   xmlns:xlink="http://www.w3.org/1999/xlink"
   xmlns="http://www.w3.org/2000/svg"
   xmlns:svg="http://www.w3.org/2000/svg"
   xmlns:rdf="http://www.w3.org/1999/02/22-rdf-syntax-ns#"
   xmlns:cc="http://creativecommons.org/ns#"
   xmlns:dc="http://purl.org/dc/elements/1.1/"><title
     id="title4162">Adwaita Icon Template</title><defs
     id="defs3"><linearGradient
       y2="236"
       x2="96"
       y1="236"
       x1="32"
       gradientTransform="translate(604.81684,170.58641)"
       gradientUnits="userSpaceOnUse"
       id="linearGradient1099"
       xlink:href="#linearGradient1036" /><linearGradient
       id="linearGradient1036"><stop
         id="stop1032"
         offset="0"
         style="stop-color:#d5d3cf;stop-opacity:1;" /><stop
         id="stop1034"
         offset="1"
         style="stop-color:#f6f5f4;stop-opacity:1" /></linearGradient><radialGradient
       r="32"
       fy="-76"
       fx="-244"
       cy="-76"
       cx="-244"
       gradientTransform="matrix(0.88333331,0,0,0.88333331,-460.35018,463.11973)"
       gradientUnits="userSpaceOnUse"
       id="radialGradient1103"
       xlink:href="#linearGradient1069" /><linearGradient
       id="linearGradient1069"><stop
         id="stop1065"
         offset="0"
         style="stop-color:#d5d3cf;stop-opacity:1" /><stop
         id="stop1067-1"
         offset="1"
         style="stop-color:#949390;stop-opacity:1" /></linearGradient><linearGradient
       gradientUnits="userSpaceOnUse"
       y2="232"
       x2="64"
       y1="262.5"
       x1="64"
       id="linearGradient1027"
       xlink:href="#linearGradient1025"
       gradientTransform="translate(-470.5864,432.81685)" /><linearGradient
       id="linearGradient1025"><stop
         id="stop1021"
         offset="0"
         style="stop-color:#9a9996;stop-opacity:1" /><stop
         id="stop1023"
         offset="1"
         style="stop-color:#77767b;stop-opacity:1" /></linearGradient><inkscape:path-effect
       effect="spiro"
       id="path-effect35304-9"
       is_visible="true" /><clipPath
       clipPathUnits="userSpaceOnUse"
       id="clipPath1609-7"><path
         sodipodi:nodetypes="cccccc"
         inkscape:connector-curvature="0"
         id="path1611-5"
         d="m 252,116 28,-28 v -8 h -36 v 36 z"
         style="fill:#e74747;stroke:none;stroke-width:0.25px;stroke-linecap:butt;stroke-linejoin:miter;stroke-opacity:1" /></clipPath><linearGradient
       id="linearGradient1697"><stop
         id="stop1685"
         offset="0"
         style="stop-color:#deddda;stop-opacity:1" /><stop
         style="stop-color:#eeeeec;stop-opacity:1"
         offset="0.04545455"
         id="stop1687" /><stop
         id="stop1689"
         offset="0.09090909"
         style="stop-color:#deddda;stop-opacity:1" /><stop
         style="stop-color:#deddda;stop-opacity:1"
         offset="0.90909094"
         id="stop1691" /><stop
         id="stop1693"
         offset="0.95454544"
         style="stop-color:#eeeeec;stop-opacity:1" /><stop
         id="stop1695"
         offset="1"
         style="stop-color:#c0bfbc;stop-opacity:1" /></linearGradient><clipPath
       clipPathUnits="userSpaceOnUse"
       id="clipPath1289"><path
         style="display:inline;opacity:1;vector-effect:none;fill:none;fill-opacity:1;stroke:#000000;stroke-width:4;stroke-linecap:round;stroke-linejoin:round;stroke-miterlimit:4;stroke-dasharray:none;stroke-dashoffset:0;stroke-opacity:1;marker:none;marker-start:none;marker-mid:none;marker-end:none;paint-order:normal;enable-background:new"
         d="m 64,-148 h 64 l 64,-64 64,64 h 192 c 17.728,0 32,14.272 32,32 v 288 c 0,17.728 -14.272,32 -32,32 H 256 l -64,-64 -64,64 H 64 C 46.272,204 32,189.728 32,172 v -288 c 0,-17.728 14.408898,-34.19889 32,-32 z"
         id="path1291"
         inkscape:connector-curvature="0"
         sodipodi:nodetypes="scccsssscccssss" /></clipPath><linearGradient
       id="paint3_linear-2-6-5"
       x2="1"
       gradientUnits="userSpaceOnUse"
       gradientTransform="matrix(0,6,-12,0,-64,209.99687)"><stop
         stop-color="#C01C27"
         id="stop91-0-7-4" /><stop
         offset="1"
         stop-color="#E01B24"
         id="stop93-2-5-7" /></linearGradient><clipPath
       clipPathUnits="userSpaceOnUse"
       id="clipPath1609"><path
         sodipodi:nodetypes="cccccc"
         inkscape:connector-curvature="0"
         id="path1611"
         d="m 252,116 28,-28 v -8 h -36 v 36 z"
         style="fill:#e74747;stroke:none;stroke-width:0.25px;stroke-linecap:butt;stroke-linejoin:miter;stroke-opacity:1" /></clipPath><linearGradient
       id="d"
       x1="15.817"
       x2="111.817"
       y1="236.336"
       y2="236.336"
       gradientTransform="matrix(1.16667,0,0,1.14583,-170.453,-207.801)"
       gradientUnits="userSpaceOnUse"><stop
         offset=".05"
         stop-color="#9fa6c2"
         id="stop1" /><stop
         offset=".5"
         stop-color="#d0d3dc"
         id="stop2" /><stop
         offset=".95"
         stop-color="#9fa6c2"
         id="stop3" /></linearGradient><linearGradient
       xlink:href="#b"
       id="h-7"
       x1="19"
       x2="59"
       y1="37"
       y2="37" /><linearGradient
       id="b"
       gradientUnits="userSpaceOnUse"><stop
         offset="0"
         stop-color="#99a0c9"
         id="stop4" /><stop
         offset=".5"
         stop-color="#667dff"
         stop-opacity=".698"
         id="stop5" /><stop
         offset="1"
         stop-color="#99a0c9"
         id="stop6" /></linearGradient><linearGradient
       xlink:href="#b"
       id="j-6"
       x1="69"
       x2="109"
       y1="37"
       y2="37" /><linearGradient
       xlink:href="#b"
       id="k-2"
       x1="19"
       x2="59"
       y1="89"
       y2="89" /><linearGradient
       xlink:href="#c"
       id="l-7"
       x1="39"
       x2="39"
       y1="69"
       y2="105" /><linearGradient
       id="c"
       gradientUnits="userSpaceOnUse"><stop
         offset="0"
         stop-color="#fff"
         id="stop14" /><stop
         offset="1"
         stop-color="#e2e7ff"
         id="stop18" /></linearGradient><linearGradient
       xlink:href="#c"
       id="m-0"
       x1="39"
       x2="39"
       y1="17"
       y2="53" /><linearGradient
       xlink:href="#c"
       id="n-9"
       x1="89"
       x2="89"
       y1="17"
       y2="53" /><linearGradient
       xlink:href="#b"
       id="o-3"
       x1="69"
       x2="109"
       y1="89"
       y2="89" /><linearGradient
       xlink:href="#c"
       id="p-6"
       x1="89"
       x2="89"
       y1="69"
       y2="105" /><linearGradient
       id="linearGradient37"
       x1="8"
       x2="120"
       y1="65"
       y2="65"
       gradientTransform="translate(49,-4)"
       gradientUnits="userSpaceOnUse"><stop
         id="stop32"
         stop-color="#6073b3"
         offset="0" /><stop
         id="stop33"
         stop-color="#b0bbd7"
         offset=".06" /><stop
         id="stop34"
         stop-color="#7586be"
         offset=".11" /><stop
         id="stop35"
         stop-color="#7586be"
         offset=".89" /><stop
         id="stop36"
         stop-color="#b0bbd7"
         offset=".94" /><stop
         id="stop37"
         stop-color="#6073b3"
         offset="1" /></linearGradient><linearGradient
       id="linearGradient22"
       x1="15.817"
       x2="111.82"
       y1="236.34"
       y2="236.34"
       gradientTransform="matrix(1.1667,0,0,1.1458,38.547,-211.8)"
       gradientUnits="userSpaceOnUse"><stop
         id="stop1-0"
         stop-color="#9fa6c2"
         offset=".05" /><stop
         id="stop2-6"
         stop-color="#d0d3dc"
         offset=".5" /><stop
         id="stop3-7"
         stop-color="#9fa6c2"
         offset=".95" /></linearGradient><linearGradient
       id="linearGradient30"
       x1="8"
       x2="120"
       y1="65"
       y2="65"
       gradientTransform="translate(49,-6)"
       gradientUnits="userSpaceOnUse"><stop
         id="stop7-3"
         stop-color="#7583b2"
         offset="0" /><stop
         id="stop8-6"
         stop-color="#acb8d6"
         offset=".047494" /><stop
         id="stop12"
         stop-color="#7583b2"
         offset=".10308" /><stop
         id="stop15"
         stop-color="#7583b2"
         offset=".89515" /><stop
         id="stop16"
         stop-color="#acb8d6"
         offset=".95279" /><stop
         id="stop17"
         stop-color="#7583b2"
         offset="1" /></linearGradient><filter
       id="filter36"
       x="-0.10919999"
       y="-0.10682608"
       width="1.2184"
       height="1.2136522"
       color-interpolation-filters="sRGB"><feGaussianBlur
         id="feGaussianBlur36"
         stdDeviation="4.095" /></filter><linearGradient
       id="linearGradient37-2"
       x1="8"
       x2="120"
       y1="65"
       y2="65"
       gradientTransform="translate(49,-4)"
       gradientUnits="userSpaceOnUse"><stop
         id="stop32-8"
         stop-color="#6073b3"
         offset="0"
         style="stop-color:#6779b6;stop-opacity:1;" /><stop
         id="stop33-9"
         stop-color="#b0bbd7"
         offset="0.06"
         style="stop-color:#b4bfda;stop-opacity:1;" /><stop
         id="stop34-6"
         stop-color="#7586be"
         offset="0.11"
         style="stop-color:#7c8bc1;stop-opacity:1;" /><stop
         id="stop35-0"
         stop-color="#7586be"
         offset="0.88999999"
         style="stop-color:#7b8bc2;stop-opacity:1;" /><stop
         id="stop36-7"
         stop-color="#b0bbd7"
         offset="0.94"
         style="stop-color:#b4bfda;stop-opacity:1;" /><stop
         id="stop37-0"
         stop-color="#6073b3"
         offset="1"
         style="stop-color:#6779b6;stop-opacity:1;" /></linearGradient><linearGradient
       id="linearGradient30-1"
       x1="8"
       x2="120"
       y1="65"
       y2="65"
       gradientTransform="translate(49,-6)"
       gradientUnits="userSpaceOnUse"><stop
         id="stop7-3-0"
         stop-color="#7583b2"
         offset="0"
         style="stop-color:#9ba7ce;stop-opacity:1;" /><stop
         id="stop8-6-1"
         stop-color="#acb8d6"
         offset="0.047494"
         style="stop-color:#b4c1da;stop-opacity:1;" /><stop
         id="stop12-3"
         stop-color="#7583b2"
         offset="0.10308"
         style="stop-color:#a2add3;stop-opacity:1;" /><stop
         id="stop10"
         stop-color="#7583b2"
         offset="0.49717358"
         style="stop-color:#d0d7e7;stop-opacity:1;" /><stop
         id="stop15-7"
         stop-color="#7583b2"
         offset="0.89515001"
         style="stop-color:#a2add3;stop-opacity:1;" /><stop
         id="stop16-7"
         stop-color="#acb8d6"
         offset="0.95279002"
         style="stop-color:#b4c1da;stop-opacity:1;" /><stop
         id="stop17-2"
         stop-color="#7583b2"
         offset="1"
         style="stop-color:#9ba7ce;stop-opacity:1;" /></linearGradient><linearGradient
       id="linearGradient31"
       gradientUnits="userSpaceOnUse"><stop
         id="stop29"
         stop-color="#99a0c9"
         offset="0"
         style="stop-color:#98a4dc;stop-opacity:1;" /><stop
         id="stop30"
         stop-color="#667dff"
         stop-opacity=".698"
         offset="0.50143492"
         style="stop-color:#5f76f7;stop-opacity:0.75;" /><stop
         id="stop31"
         stop-color="#99a0c9"
         offset="1"
         style="stop-color:#98a4dc;stop-opacity:1;" /></linearGradient><linearGradient
       id="linearGradient30-12"
       x1="8"
       x2="120"
       y1="65"
       y2="65"
       gradientTransform="translate(49,-6)"
       gradientUnits="userSpaceOnUse"><stop
         id="stop7-3-9"
         stop-color="#9ba7ce"
         offset="0" /><stop
         id="stop8-6-3"
         stop-color="#b4c1da"
         offset=".047494" /><stop
         id="stop12-1"
         stop-color="#a5b0d4"
         offset=".10308" /><stop
         id="stop10-9"
         stop-color="#d0d7e7"
         offset=".49717" /><stop
         id="stop15-4"
         stop-color="#a5b0d4"
         offset=".89515" /><stop
         id="stop16-78"
         stop-color="#b4c1da"
         offset=".95279" /><stop
         id="stop17-4"
         stop-color="#9ba7ce"
         offset="1" /></linearGradient><filter
       id="filter63"
       x="-0.097911371"
       y="-0.095782863"
       width="1.1958227"
       height="1.1915657"
       color-interpolation-filters="sRGB"><feGaussianBlur
         id="feGaussianBlur63"
         stdDeviation="3.6716764" /></filter><linearGradient
       id="linearGradient7"
       x1="19"
       x2="59"
       y1="89"
       y2="89"
       gradientTransform="translate(49,-4)"
       gradientUnits="userSpaceOnUse"
       xlink:href="#linearGradient31-5" /><linearGradient
       id="linearGradient31-5"
       gradientUnits="userSpaceOnUse"><stop
         id="stop29-0"
         stop-color="#98a4dc"
         offset="0" /><stop
         id="stop30-3"
         stop-color="#5f76f7"
         stop-opacity=".75"
         offset=".50143" /><stop
         id="stop31-6"
         stop-color="#98a4dc"
         offset="1" /></linearGradient><linearGradient
       id="linearGradient32"
       x1="19"
       x2="59"
       y1="89"
       y2="89"
       gradientTransform="translate(99,-4)"
       gradientUnits="userSpaceOnUse"
       xlink:href="#linearGradient31-5" /><linearGradient
       id="linearGradient33"
       x1="19"
       x2="59"
       y1="89"
       y2="89"
       gradientTransform="translate(49,-56)"
       gradientUnits="userSpaceOnUse"
       xlink:href="#linearGradient31-5" /><linearGradient
       id="linearGradient34"
       x1="19"
       x2="59"
       y1="89"
       y2="89"
       gradientTransform="translate(99,-56)"
       gradientUnits="userSpaceOnUse"
       xlink:href="#linearGradient31-5" /><linearGradient
       id="linearGradient63"
       x1="138"
       x2="138"
       y1="13"
       y2="49"
       gradientUnits="userSpaceOnUse"
       xlink:href="#c" /><linearGradient
       id="linearGradient4"
       x1="89"
       x2="89"
       y1="69"
       y2="105"
       gradientTransform="translate(-1,-56)"
       gradientUnits="userSpaceOnUse"
       xlink:href="#c" /><linearGradient
       id="linearGradient1"
       x1="89"
       x2="89"
       y1="69"
       y2="105"
       gradientTransform="translate(49,-4)"
       gradientUnits="userSpaceOnUse"
       xlink:href="#c" /><linearGradient
       id="linearGradient2"
       x1="89"
       x2="89"
       y1="69"
       y2="105"
       gradientTransform="translate(-1,-4)"
       gradientUnits="userSpaceOnUse"
       xlink:href="#c" /><filter
       id="filter63-0"
       x="-0.097911371"
       y="-0.095782863"
       width="1.1958227"
       height="1.1915657"
       color-interpolation-filters="sRGB"><feGaussianBlur
         id="feGaussianBlur63-6"
         stdDeviation="3.6716764" /></filter><linearGradient
       id="linearGradient13"
       gradientUnits="userSpaceOnUse"><stop
         id="stop11"
         stop-color="#fff"
         offset="0" /><stop
         id="stop13"
         stop-color="#e2e7ff"
         offset="1"
         style="stop-color:#e2e7ff;stop-opacity:1;" /></linearGradient><linearGradient
       id="linearGradient4-5"
       x1="89"
       x2="89"
       y1="69"
       y2="105"
       gradientTransform="translate(-1,-56)"
       gradientUnits="userSpaceOnUse"
       xlink:href="#linearGradient13" /></defs><sodipodi:namedview
     stroke="#ef2929"
     fill="#f57900"
     id="base"
     pagecolor="#ffffff"
     bordercolor="#666666"
     borderopacity="0.25490196"
     inkscape:pageopacity="0.0"
     inkscape:pageshadow="2"
     inkscape:zoom="4"
     inkscape:cx="56.625"
     inkscape:cy="96.625"
     inkscape:current-layer="g15"
     showgrid="false"
     inkscape:grid-bbox="true"
     inkscape:document-units="px"
     inkscape:showpageshadow="false"
     inkscape:window-width="1920"
     inkscape:window-height="1011"
     inkscape:window-x="0"
     inkscape:window-y="0"
     width="400px"
     height="300px"
     inkscape:snap-nodes="true"
     inkscape:snap-bbox="true"
     objecttolerance="7"
     gridtolerance="12"
     guidetolerance="13"
     inkscape:window-maximized="1"
     inkscape:pagecheckerboard="false"
     showguides="false"
     inkscape:guide-bbox="true"
     inkscape:locked="false"
     inkscape:measure-start="0,0"
     inkscape:measure-end="0,0"
     inkscape:object-nodes="true"
     inkscape:bbox-nodes="true"
     inkscape:snap-global="true"
     inkscape:object-paths="true"
     inkscape:snap-intersection-paths="true"
     inkscape:snap-bbox-edge-midpoints="true"
     inkscape:snap-bbox-midpoints="true"
     showborder="true"
     inkscape:snap-center="true"
     inkscape:snap-object-midpoints="true"
     inkscape:snap-midpoints="true"
     inkscape:snap-smooth-nodes="true"
     inkscape:snap-text-baseline="true"
     borderlayer="true"
     inkscape:deskcolor="#d1d1d1"><inkscape:grid
       type="xygrid"
       id="grid5883"
       spacingx="2"
       spacingy="2"
       enabled="true"
       visible="false"
       empspacing="4"
       originx="8"
       originy="8"
       units="px" /><sodipodi:guide
       position="72,16"
       orientation="0,1"
       id="guide1073"
       inkscape:locked="false"
       inkscape:label=""
       inkscape:color="rgb(0,0,255)" /><sodipodi:guide
       position="20,72"
       orientation="1,0"
       id="guide1075"
       inkscape:locked="false"
       inkscape:label=""
       inkscape:color="rgb(0,0,255)" /><sodipodi:guide
       position="72,112"
       orientation="0,1"
       id="guide1099"
       inkscape:locked="false"
       inkscape:label=""
       inkscape:color="rgb(0,0,255)" /><sodipodi:guide
       position="72,136"
       orientation="0,1"
       id="guide993"
       inkscape:locked="false"
       inkscape:label=""
       inkscape:color="rgb(0,0,255)" /><sodipodi:guide
       position="112,72"
       orientation="1,0"
       id="guide995"
       inkscape:locked="false"
       inkscape:label=""
       inkscape:color="rgb(0,0,255)" /><sodipodi:guide
       position="8.0000001,72"
       orientation="1,0"
       id="guide867"
       inkscape:locked="false"
       inkscape:label=""
       inkscape:color="rgb(0,0,255)" /><sodipodi:guide
       position="128,72"
       orientation="1,0"
       id="guide869"
       inkscape:locked="false"
       inkscape:label=""
       inkscape:color="rgb(0,0,255)" /><sodipodi:guide
       position="72,124"
       orientation="0,1"
       id="guide871"
       inkscape:locked="false"
       inkscape:label=""
       inkscape:color="rgb(0,0,255)" /><inkscape:grid
       type="xygrid"
       id="grid873"
       spacingx="1"
       spacingy="1"
       empspacing="8"
       color="#000000"
       opacity="0.49019608"
       empcolor="#000000"
       empopacity="0.08627451"
       dotted="true"
       originx="8"
       originy="8"
       units="px"
       visible="false" /><sodipodi:guide
       position="32,72"
       orientation="1,0"
       id="guide877"
       inkscape:locked="false"
       inkscape:label=""
       inkscape:color="rgb(0,0,255)" /><sodipodi:guide
       position="124,72"
       orientation="1,0"
       id="guide879"
       inkscape:locked="false"
       inkscape:label=""
       inkscape:color="rgb(0,0,255)" /><sodipodi:guide
       position="72,128"
       orientation="0,1"
       id="guide881"
       inkscape:locked="false"
       inkscape:label=""
       inkscape:color="rgb(0,0,255)" /><sodipodi:guide
       position="72,20"
       orientation="0,1"
       id="guide883"
       inkscape:locked="false"
       inkscape:label=""
       inkscape:color="rgb(0,0,255)" /><sodipodi:guide
       position="16,72"
       orientation="1,0"
       id="guide885"
       inkscape:locked="false"
       inkscape:label=""
       inkscape:color="rgb(0,0,255)" /><sodipodi:guide
       position="136,72"
       orientation="1,0"
       id="guide887"
       inkscape:locked="false"
       inkscape:label=""
       inkscape:color="rgb(0,0,255)" /><sodipodi:guide
       position="72,8"
       orientation="0,1"
       id="guide897"
       inkscape:locked="false"
       inkscape:label=""
       inkscape:color="rgb(0,0,255)" /><sodipodi:guide
       position="72,32"
       orientation="0,1"
       id="guide899"
       inkscape:locked="false"
       inkscape:label=""
       inkscape:color="rgb(0,0,255)" /><sodipodi:guide
       position="264,264"
       orientation="-0.70710678,0.70710678"
       id="guide950"
       inkscape:locked="false"
       inkscape:label=""
       inkscape:color="rgb(0,0,255)" /><sodipodi:guide
       position="72,72"
       orientation="0.70710678,0.70710678"
       id="guide952"
       inkscape:locked="false"
       inkscape:label=""
       inkscape:color="rgb(0,0,255)" /></sodipodi:namedview><metadata
     id="metadata4"><rdf:RDF><cc:Work
         rdf:about=""><dc:format>image/svg+xml</dc:format><dc:type
           rdf:resource="http://purl.org/dc/dcmitype/StillImage" /><dc:creator><cc:Agent><dc:title>GNOME Design Team</dc:title></cc:Agent></dc:creator><dc:source /><cc:license
           rdf:resource="http://creativecommons.org/licenses/by-sa/4.0/" /><dc:title>Adwaita Icon Template</dc:title><dc:subject><rdf:Bag /></dc:subject><dc:date /><dc:rights><cc:Agent><dc:title /></cc:Agent></dc:rights><dc:publisher><cc:Agent><dc:title /></cc:Agent></dc:publisher><dc:identifier /><dc:relation /><dc:language /><dc:coverage /><dc:description /><dc:contributor><cc:Agent><dc:title /></cc:Agent></dc:contributor></cc:Work><cc:License
         rdf:about="http://creativecommons.org/licenses/by-sa/4.0/"><cc:permits
           rdf:resource="http://creativecommons.org/ns#Reproduction" /><cc:permits
           rdf:resource="http://creativecommons.org/ns#Distribution" /><cc:requires
           rdf:resource="http://creativecommons.org/ns#Notice" /><cc:requires
           rdf:resource="http://creativecommons.org/ns#Attribution" /><cc:permits
           rdf:resource="http://creativecommons.org/ns#DerivativeWorks" /><cc:requires
           rdf:resource="http://creativecommons.org/ns#ShareAlike" /></cc:License></rdf:RDF></metadata><g
     id="layer1"
     inkscape:label="App Icon"
     inkscape:groupmode="layer"
     style="display:inline"
     transform="translate(8,-156)"><g
       inkscape:groupmode="layer"
       id="layer4"
       inkscape:label="template"
       style="display:inline"
       sodipodi:insensitive="true"><rect
         inkscape:label="0"
         y="172"
         x="9.2651362e-08"
         height="128"
         width="128"
         id="hicolor"
         style="display:inline;overflow:visible;visibility:visible;fill:#f0f0f0;fill-opacity:0;fill-rule:nonzero;stroke:none;stroke-width:0.5;marker:none;enable-background:accumulate" /><rect
         style="display:inline;overflow:visible;visibility:visible;fill:#f0f0f0;fill-opacity:0;fill-rule:nonzero;stroke:none;stroke-width:0.5;marker:none;enable-background:accumulate"
         id="symbolic"
         width="16"
         height="16"
         x="160"
         y="172"
         inkscape:label="0" /></g><g
       inkscape:groupmode="layer"
       id="layer2"
       inkscape:label="baseplate"
       style="display:inline"
       sodipodi:insensitive="true"><g
         style="display:inline;fill:#000000;enable-background:new"
         transform="matrix(7.9911709,0,0,8.0036407,-167.7909,-4846.0776)"
         id="g12027"
         inkscape:export-xdpi="12"
         inkscape:export-ydpi="12" /><rect
         style="display:inline;overflow:visible;visibility:visible;fill:#f0f0f0;fill-opacity:1;fill-rule:nonzero;stroke:none;stroke-width:0.5;marker:none;enable-background:accumulate"
         id="128"
         width="128"
         height="128"
         x="9.2651362e-08"
         y="172"
         inkscape:label="0" /><g
         id="g883"
         style="fill:none;fill-opacity:0.25098;stroke:#a579b3;stroke-opacity:1"
         transform="translate(-24,24)" /><g
         id="g900"
         style="fill:none;fill-opacity:0.25098;stroke:#a579b3;stroke-opacity:1"
         transform="translate(-24,24)" /><rect
         inkscape:label=""
         y="172"
         x="160"
         height="16"
         width="16"
         id="16"
         style="display:inline;overflow:visible;visibility:visible;fill:#f0f0f0;fill-opacity:1;fill-rule:nonzero;stroke:none;stroke-width:0.5;marker:none;enable-background:accumulate" /><text
         xml:space="preserve"
         style="font-style:normal;font-variant:normal;font-weight:bold;font-stretch:normal;font-size:4px;line-height:125%;font-family:Cantarell;-inkscape-font-specification:'Cantarell, Bold';text-align:start;writing-mode:lr-tb;text-anchor:start;display:inline;fill:#000000;fill-opacity:1;stroke:none;stroke-width:0.332649;enable-background:new"
         x="0"
         y="167"
         id="text863"
         inkscape:label="icon-name"><tspan
           style="font-size:4px;stroke-width:0.332649"
           sodipodi:role="line"
           id="tspan861"
           x="0"
           y="167">Hicolor</tspan></text><text
         inkscape:label="icon-name"
         id="text867"
         y="167"
         x="160"
         style="font-style:normal;font-variant:normal;font-weight:bold;font-stretch:normal;font-size:4px;line-height:125%;font-family:Cantarell;-inkscape-font-specification:'Cantarell, Bold';text-align:start;writing-mode:lr-tb;text-anchor:start;display:inline;fill:#000000;fill-opacity:1;stroke:none;stroke-width:0.332649;enable-background:new"
         xml:space="preserve"><tspan
           y="167"
           x="160"
           id="tspan865"
           sodipodi:role="line"
           style="font-size:4px;stroke-width:0.332649">Symbolic</tspan></text></g><g
       inkscape:groupmode="layer"
       id="layer3"
       inkscape:label="grid"
       style="display:inline"
       sodipodi:insensitive="true"><circle
         cx="64.000031"
         cy="236"
         r="59.504131"
         id="circle2892"
         style="display:inline;opacity:0.1;vector-effect:none;fill:none;fill-opacity:1;stroke:#000000;stroke-width:0.99;stroke-linecap:butt;stroke-linejoin:miter;stroke-miterlimit:4;stroke-dasharray:0.99, 0.99;stroke-dashoffset:0;stroke-opacity:1;marker:none;marker-start:none;marker-mid:none;marker-end:none;paint-order:normal;enable-background:new" /><rect
         ry="7.9292889"
         rx="8.701004"
         y="180.49496"
         x="20.495007"
         height="111.01005"
         width="87.009987"
         id="rect2894"
         style="display:inline;opacity:0.1;vector-effect:none;fill:none;fill-opacity:1;stroke:#000000;stroke-width:0.99;stroke-linecap:butt;stroke-linejoin:miter;stroke-miterlimit:4;stroke-dasharray:0.99, 0.99;stroke-dashoffset:0;stroke-opacity:1;marker:none;marker-start:none;marker-mid:none;marker-end:none;paint-order:normal;enable-background:new" /><rect
         ry="7.9238095"
         rx="7.9238095"
         y="184.49524"
         x="12.495266"
         height="103.00952"
         width="103.00952"
         id="rect2896"
         style="display:inline;opacity:0.1;vector-effect:none;fill:none;fill-opacity:1;stroke:#000000;stroke-width:0.99;stroke-linecap:butt;stroke-linejoin:miter;stroke-miterlimit:4;stroke-dasharray:0.99, 0.99;stroke-dashoffset:0;stroke-opacity:1;marker:none;marker-start:none;marker-mid:none;marker-end:none;paint-order:normal;enable-background:new" /><rect
         ry="8.701005"
         rx="7.9292889"
         y="200.49496"
         x="8.4950066"
         height="87.010048"
         width="111.01004"
         id="rect2898"
         style="display:inline;opacity:0.1;vector-effect:none;fill:none;fill-opacity:1;stroke:#000000;stroke-width:0.99;stroke-linecap:butt;stroke-linejoin:miter;stroke-miterlimit:4;stroke-dasharray:0.99, 0.99;stroke-dashoffset:0;stroke-opacity:1;marker:none;marker-start:none;marker-mid:none;marker-end:none;paint-order:normal;enable-background:new" /><path
         inkscape:connector-curvature="0"
         id="path2900"
         d="M 2.6203015e-5,288.99999 H 128.00003"
         style="display:inline;fill:none;stroke:#62a0ea;stroke-width:2;stroke-linecap:butt;stroke-linejoin:miter;stroke-miterlimit:4;stroke-dasharray:none;stroke-opacity:1;enable-background:new" /></g><g
       inkscape:groupmode="layer"
       id="layer9"
       inkscape:label="icons"
       style="display:inline"><path
         id="rect43-3-3"
         style="display:inline;fill:#000000;fill-opacity:1;fill-rule:evenodd;stroke-width:0.0158401;stroke-linecap:square;enable-background:new"
         d="M 162.3496,172 C 161.04793,172 160,173.04794 160,174.34961 v 11.30078 c 0,1.30168 1.04793,2.34961 2.3496,2.34961 h 11.30079 c 1.30167,0 2.34962,-1.04793 2.34962,-2.34961 v -11.30078 c 0,-1.30167 -1.04795,-2.34961 -2.34962,-2.34961 z m 0.6875,2 h 9.92579 c 0.57466,0 1.03712,0.46245 1.03712,1.03711 v 9.92383 C 174,185.5356 173.53755,186 172.96289,186 H 163.0371 C 162.46245,186 162,185.5356 162,184.96094 v -9.92383 C 162,174.46245 162.46245,174 163.0371,174 Z" /><rect
         style="opacity:1;fill:#000000;fill-opacity:1;stroke:none;stroke-width:4.749;stroke-linecap:square;stroke-dasharray:none;stroke-opacity:1"
         id="rect2"
         width="2"
         height="4"
         x="245.07318"
         y="6.4852819"
         ry="1"
         transform="rotate(45)" /><path
         id="path5"
         style="opacity:1;fill:#000000;fill-opacity:1;stroke:none;stroke-width:1.94131;stroke-linecap:square;stroke-dasharray:none;stroke-opacity:1"
         d="M 168 175 A 5 5 0 0 0 163 180 A 5 5 0 0 0 168 185 A 5 5 0 0 0 173 180 A 5 5 0 0 0 168 175 z M 168 177 A 3 3 0 0 1 171 180 A 3 3 0 0 1 168 183 A 3 3 0 0 1 165 180 A 3 3 0 0 1 168 177 z " /><g
         id="g15"
         transform="matrix(0.99999063,0,0,0.99999196,-48.999466,176.00093)"
         inkscape:label="hicolor"><path
           id="path8-0"
           d="m 67.77,6 h 90.46 C 164.18,6 169,10.82 169,16.77 v 88.46 c 0,5.95 -4.82,10.77 -10.77,10.77 H 67.77 C 61.82,116 57,111.18 57,105.23 V 16.77 C 57,10.82 61.82,6 67.77,6"
           enable-background="new"
           fill="url(#linearGradient37)"
           fill-rule="evenodd"
           style="fill:url(#linearGradient37-2)" /><path
           id="path8-1"
           d="m 67.77,4 h 90.46 C 164.18,4 169,8.82 169,14.77 v 88.46 c 0,5.95 -4.82,10.77 -10.77,10.77 H 67.77 C 61.82,114 57,109.18 57,103.23 V 14.77 C 57,8.82 61.82,4 67.77,4"
           enable-background="new"
           fill="url(#linearGradient30)"
           fill-rule="evenodd"
           style="mix-blend-mode:normal;fill:url(#linearGradient30-12)" /><path
           id="path13-1-4"
           d="m 88,13 c -11.047,0 -20,8.953 -20,20 0,11.047 8.953,20 20,20 11.047,0 20,-8.953 20,-20 0,-11.047 -8.953,-20 -20,-20 z m 50,0 c -11.047,0 -20,8.953 -20,20 0,11.047 8.953,20 20,20 11.047,0 20,-8.953 20,-20 0,-11.047 -8.953,-20 -20,-20 z M 88,65 c -11.047,0 -20,8.953 -20,20 0,11.047 8.953,20 20,20 11.047,0 20,-8.953 20,-20 0,-11.047 -8.953,-20 -20,-20 z m 50,0 c -11.047,0 -20,8.953 -20,20 0,11.047 8.953,20 20,20 11.047,0 20,-8.953 20,-20 0,-11.047 -8.953,-20 -20,-20 z"
           fill="#1328a4"
           fill-rule="evenodd"
           filter="url(#filter63)"
           opacity="0.13149"
           style="filter:url(#filter63-0)" /><path
           id="path9-6"
           d="m 67.77,4 c -0.064,0 -0.12576,0.009 -0.18946,0.01 l -10.57,10.57 c -10e-4,0.0637 -0.01,0.12549 -0.01,0.18945 v 2.6504 l 13.418,-13.42 z m 5.4766,0 -16.246,16.248 v 2.8281 l 19.074,-19.076 z m 5.6562,0 -21.902,21.904 v 2.8281 l 24.73,-24.732 z M 84.563,4 57.001,31.561 v 2.8281 L 87.392,4.0001 Z m 5.6563,0 -33.219,33.217 v 2.8281 l 36.047,-36.045 z m 5.6562,0 -38.875,38.873 v 2.8301 l 41.703,-41.703 z m 5.6563,0 -44.531,44.531 v 2.8281 l 47.359,-47.359 z m 5.6562,0 -50.187,50.189 v 2.8281 l 53.016,-53.018 z m 5.6563,0 -55.844,55.846 v 2.8281 l 58.672,-58.674 z m 5.6562,0 -61.5,61.502 v 2.8281 l 64.332,-64.33 z m 5.6602,0 -67.16,67.158 v 2.8281 l 69.988,-69.986 z m 5.6562,0 -72.816,72.814 v 2.8281 l 75.645,-75.643 z m 5.6562,0 -78.473,78.473 v 2.8281 l 81.301,-81.301 z m 5.6562,0 -84.129,84.129 v 2.8301 l 86.957,-86.959 z m 5.6562,0 -89.785,89.787 v 2.8281 l 92.613,-92.615 z m 5.6562,0 -95.441,95.443 v 2.8281 l 98.27,-98.271 z m 5.6602,0 -100.95,100.95 c 0.12407,0.77107 0.32501,1.5156 0.60351,2.2227 l 102.89,-102.89 c -0.77794,-0.17851 -1.5857,-0.28125 -2.418,-0.28125 z m -93.99,0.65039 c -3.0024,1.0853 -5.3781,3.4602 -6.4629,6.4629 z m 98.641,0.35547 -104.04,104.04 c 0.36496,0.56745 0.78219,1.0963 1.2441,1.584 l 104.58,-104.58 c -0.55681,-0.40337 -1.1532,-0.75264 -1.7832,-1.0449 z m 3.291,2.3652 -104.58,104.58 c 0.55703,0.40354 1.1529,0.75452 1.7832,1.0469 l 104.04,-104.04 c -0.36503,-0.56755 -0.78208,-1.0962 -1.2441,-1.584 z m 2.2012,3.4551 -102.89,102.89 c 0.77807,0.17858 1.5856,0.28125 2.418,0.28125 h 0.1289 l 100.95,-100.95 c -0.12407,-0.77113 -0.32695,-1.5156 -0.60546,-2.2227 z m 0.75585,4.9004 -98.271,98.273 h 2.8281 l 95.443,-95.445 z m 0,5.6562 -92.615,92.617 h 2.8281 l 89.787,-89.789 z m 0,5.6562 -86.959,86.961 h 2.8281 l 84.131,-84.129 z m 0,5.6602 -81.303,81.301 h 2.8281 l 78.475,-78.473 z m 0,5.6562 -75.646,75.645 h 2.8281 l 72.818,-72.816 z m 0,5.6562 -69.988,69.988 h 2.8281 l 67.16,-67.16 z m 0,5.6562 -64.332,64.332 h 2.8301 l 61.502,-61.504 z m 0,5.6562 -58.674,58.676 h 2.8281 l 55.846,-55.848 z m 0,5.6562 -53.018,53.02 h 2.8281 l 50.189,-50.189 z m 0,5.6602 -47.361,47.359 h 2.8281 l 44.533,-44.531 z m 0,5.6562 -41.705,41.703 h 2.8281 l 38.877,-38.875 z m 0,5.6562 -36.049,36.047 h 2.8301 l 33.219,-33.219 z m 0,5.6562 -30.391,30.391 h 2.8281 l 27.562,-27.562 z m 0,5.6562 -24.732,24.734 h 2.8281 l 21.904,-21.906 z m 0,5.6562 -19.076,19.078 h 2.8281 l 16.248,-16.25 z m 0,5.6582 -13.42,13.42 h 2.6484 c 0.064,0 0.12576,-0.009 0.18945,-0.01 l 10.572,-10.57 c 0.001,-0.0637 0.01,-0.12549 0.01,-0.18946 z m -0.65039,6.3086 -6.4629,6.4609 c 3.0022,-1.085 5.3777,-3.4588 6.4629,-6.4609 z"
           enable-background="new"
           fill="#ffffff"
           fill-opacity="0.15"
           style="mix-blend-mode:normal" /><path
           id="path13-1"
           d="m 108,85 c 0,11.047 -8.953,20 -20,20 -11.047,0 -20,-8.953 -20,-20 0,-11.047 8.953,-20 20,-20 11.047,0 20,8.953 20,20"
           fill="url(#linearGradient7)"
           fill-rule="evenodd"
           style="fill:url(#linearGradient7)" /><path
           id="path13-1-2"
           d="m 158,85 c 0,11.047 -8.953,20 -20,20 -11.047,0 -20,-8.953 -20,-20 0,-11.047 8.953,-20 20,-20 11.047,0 20,8.953 20,20"
           fill="url(#linearGradient32)"
           fill-rule="evenodd"
           style="fill:url(#linearGradient32)" /><path
           id="path13-1-1"
           d="M 108,33 C 108,44.047 99.047,53 88,53 76.953,53 68,44.047 68,33 68,21.953 76.953,13 88,13 c 11.047,0 20,8.953 20,20"
           fill="url(#linearGradient33)"
           fill-rule="evenodd"
           style="fill:url(#linearGradient33)" /><path
           id="path13-1-2-2"
           d="m 158,33 c 0,11.047 -8.953,20 -20,20 -11.047,0 -20,-8.953 -20,-20 0,-11.047 8.953,-20 20,-20 11.047,0 20,8.953 20,20"
           fill="url(#linearGradient34)"
           fill-rule="evenodd"
           style="fill:url(#linearGradient34)" /><path
           id="path18-0-0"
           d="m 156,31 c 0,9.941 -8.059,18 -18,18 -9.941,0 -18,-8.059 -18,-18 0,-9.941 8.059,-18 18,-18 9.941,0 18,8.059 18,18"
           fill="url(#linearGradient63)"
           fill-rule="evenodd"
           style="fill:url(#linearGradient63)" /><path
           id="path18-0-2-9"
           d="m 106,31 c 0,9.941 -8.059,18 -18,18 -9.941,0 -18,-8.059 -18,-18 0,-9.941 8.059,-18 18,-18 9.941,0 18,8.059 18,18"
           fill="url(#linearGradient4)"
           fill-rule="evenodd"
           style="fill:url(#linearGradient4-5)" /><path
           id="path18-0"
           d="m 156,83 c 0,9.941 -8.059,18 -18,18 -9.941,0 -18,-8.059 -18,-18 0,-9.941 8.059,-18 18,-18 9.941,0 18,8.059 18,18"
           fill="url(#linearGradient1)"
           fill-rule="evenodd"
           style="fill:url(#linearGradient1)" /><path
           id="path18-0-2"
           d="m 106,83 c 0,9.941 -8.059,18 -18,18 -9.941,0 -18,-8.059 -18,-18 0,-9.941 8.059,-18 18,-18 9.941,0 18,8.059 18,18"
           fill="url(#linearGradient2)"
           fill-rule="evenodd"
           style="fill:url(#linearGradient2)" /><path
           id="path36"
           d="m 95.445,22 c -0.3979,3e-6 -0.79652,0.15204 -1.1016,0.45703 l -14.891,14.887 c -0.60413,0.60858 -0.60482,1.5911 0,2.1992 0.6051,0.61 1.5892,0.61 2.1992,0 l 14.891,-14.887 c 0.61006,-0.61 0.61006,-1.5942 0,-2.1992 C 96.24005,22.15203 95.84285,22 95.4449,22 Z m 50,0 c -0.3979,3e-6 -0.79652,0.15204 -1.1016,0.45703 l -14.891,14.887 c -0.60412,0.60858 -0.60482,1.5911 0,2.1992 0.6051,0.61 1.5892,0.61 2.1992,0 l 14.891,-14.887 c 0.61006,-0.61 0.61006,-1.5942 0,-2.1992 C 146.24005,22.15203 145.84284,22 145.4449,22 Z m -50,52 c -0.3979,2e-6 -0.79652,0.15204 -1.1016,0.45703 l -14.891,14.887 c -0.60413,0.60858 -0.60482,1.5911 0,2.1992 0.6051,0.61 1.5892,0.61 2.1992,0 l 14.891,-14.887 c 0.61006,-0.61 0.61006,-1.5942 0,-2.1992 C 96.24005,74.15203 95.84285,74 95.4449,74 Z m 50,0 c -0.3979,2e-6 -0.79652,0.15204 -1.1016,0.45703 l -14.891,14.887 c -0.60412,0.60858 -0.60482,1.5911 0,2.1992 0.6051,0.61 1.5892,0.61 2.1992,0 l 14.891,-14.887 c 0.61006,-0.61 0.61006,-1.5942 0,-2.1992 C 146.24005,74.15203 145.84284,74 145.4449,74 Z"
           fill="#8f94d2"
           fill-rule="evenodd" /></g></g></g></svg>
