<svg xmlns="http://www.w3.org/2000/svg" width="16" height="16"><filter id="a" width="1" height="1" x="0" y="0"><feColorMatrix color-interpolation-filters="sRGB" values="0 0 0 0 1 0 0 0 0 1 0 0 0 0 1 0 0 0 1 0"/></filter><mask id="b"><g filter="url(#a)"><path fill-opacity=".5" d="M-1.6-1.6h19.2v19.2H-1.6z"/></g></mask><clipPath id="c"><path d="M0 0h1600v1200H0z"/></clipPath><mask id="d"><g filter="url(#a)"><path fill-opacity=".7" d="M-1.6-1.6h19.2v19.2H-1.6z"/></g></mask><clipPath id="e"><path d="M0 0h1600v1200H0z"/></clipPath><mask id="f"><g filter="url(#a)"><path fill-opacity=".35" d="M-1.6-1.6h19.2v19.2H-1.6z"/></g></mask><clipPath id="g"><path d="M0 0h1600v1200H0z"/></clipPath><g mask="url(#b)"><g clip-path="url(#c)" transform="translate(-160 -80)"><path d="M550 182a2 2 0 0 0-1 .281v3.438c.305.18.648.277 1 .281a2 2 0 1 0 0-4m0 5c-.34 0-.68.059-1 .176V194h4v-4a3 3 0 0 0-3-3m0 0"/></g></g><g mask="url(#d)"><g clip-path="url(#e)" transform="translate(-160 -80)"><path d="M569 182v4a2 2 0 1 0 0-4m0 5v7h3v-4a3 3 0 0 0-3-3m0 0"/></g></g><g mask="url(#f)"><g clip-path="url(#g)" transform="translate(-160 -80)"><path d="M573 182.27v3.449a2 2 0 0 0 1-1.719c0-.715-.383-1.375-1-1.73m0 4.906V194h2v-4c0-1.27-.8-2.402-2-2.824m0 0"/></g></g><filter id="h" width="1" height="1" x="0" y="0"><feColorMatrix color-interpolation-filters="sRGB" values="0 0 0 0 1 0 0 0 0 1 0 0 0 0 1 0 0 0 1 0"/></filter><mask id="i"><g filter="url(#a)" style="filter:url(#h)"><path fill-opacity=".5" d="M-1.6-1.6h19.2v19.2H-1.6z"/></g></mask><clipPath id="j"><path d="M0 0h1600v1200H0z"/></clipPath><mask id="k"><g filter="url(#a)" style="filter:url(#h)"><path fill-opacity=".7" d="M-1.6-1.6h19.2v19.2H-1.6z"/></g></mask><clipPath id="l"><path d="M0 0h1600v1200H0z"/></clipPath><mask id="m"><g filter="url(#a)" style="filter:url(#h)"><path fill-opacity=".35" d="M-1.6-1.6h19.2v19.2H-1.6z"/></g></mask><clipPath id="n"><path d="M0 0h1600v1200H0z"/></clipPath><g mask="url(#i)" style="fill:#000" transform="translate(33 34)"><g clip-path="url(#j)" style="fill:#000" transform="translate(-180 -80)"><path d="M550 182a2 2 0 0 0-1 .281v3.438c.305.18.648.277 1 .281a1.999 1.999 0 1 0 0-4m0 5c-.34 0-.68.059-1 .176V194h4v-4a3 3 0 0 0-3-3m0 0" style="fill:#000"/></g></g><g mask="url(#k)" style="fill:#000" transform="translate(33 34)"><g clip-path="url(#l)" style="fill:#000" transform="translate(-180 -80)"><path d="M569 182v4a1.999 1.999 0 1 0 0-4m0 5v7h3v-4a3 3 0 0 0-3-3m0 0" style="fill:#000"/></g></g><g mask="url(#m)" style="fill:#000" transform="translate(33 34)"><g clip-path="url(#n)" style="fill:#000" transform="translate(-180 -80)"><path d="M573 182.27v3.449a2 2 0 0 0 1-1.719c0-.715-.383-1.375-1-1.73m0 4.906V194h2v-4c0-1.27-.8-2.402-2-2.824m0 0" style="fill:#000"/></g></g><g fill="#2e3436" style="fill:#000"><path d="M11.164 5.863a.75.75 0 0 1 .477 1.278L8 10.78a.75.75 0 0 1-1.063 0L4.762 8.67c-.707-.706.355-1.769 1.062-1.062l1.646 1.58 3.11-3.11a.76.76 0 0 1 .585-.215zm0 0" style="fill:#000" transform="translate(.004)"/><path d="M7.996 0C3.594 0 0 3.594 0 8s3.594 8 7.996 8c4.406 0 7.996-3.594 7.996-8s-3.59-8-7.996-8m0 2a5.983 5.983 0 0 1 5.996 6c0 3.324-2.672 6-5.996 6A5.986 5.986 0 0 1 2 8c0-3.324 2.676-6 5.996-6m0 0" style="fill:#000" transform="translate(.004)"/></g></svg>