<svg xmlns="http://www.w3.org/2000/svg" xml:space="preserve" width="16" height="16"><path d="M14.551 1.724c-.324-.325-.667-.499-1.103-.623-.436-.125-1.062-.219-1.64.258l-2.66 2.137-.239.341-.007.01c-.387.58-.55.669-.63.704s-.322.042-.831.199l-.236.073-5.483 5.483c-.625.625-.771 1.46-.707 2.182s.31 1.402.84 1.932c.531.53 1.21.777 1.933.841s1.557-.082 2.182-.707l5.483-5.483.073-.236c.157-.509.164-.752.199-.831.035-.08.124-.243.704-.63l.01-.007.341-.239 2.137-2.662v-.002c.475-.577.383-1.202.258-1.637-.124-.436-.298-.779-.623-1.103ZM13.14 3.136c-.054 0 .066.116.106.22l-1.844 2.297-.101.07.02-.012c-.74.493-1.192.963-1.422 1.48-.181.409-.186.623-.223.832l-5.119 5.118c-.072.072-.286.157-.59.13-.305-.027-.63-.195-.698-.264-.069-.068-.237-.393-.264-.697-.027-.305.058-.52.13-.591L8.252 6.6c.21-.037.423-.042.831-.223.518-.23.988-.682 1.48-1.423l.059-.08 2.297-1.844c.104.04.273.106.22.106z" style="color:#000;fill:#000;stroke-linecap:square;-inkscape-stroke:none"/></svg>