<?xml version="1.0" encoding="UTF-8" standalone="no"?>
<svg
   width="16"
   height="16"
   version="1.1"
   id="svg12"
   sodipodi:docname="check-confirmed-symbolic.svg"
   inkscape:version="1.4 (e7c3feb100, 2024-10-09)"
   xmlns:inkscape="http://www.inkscape.org/namespaces/inkscape"
   xmlns:sodipodi="http://sodipodi.sourceforge.net/DTD/sodipodi-0.dtd"
   xmlns="http://www.w3.org/2000/svg"
   xmlns:svg="http://www.w3.org/2000/svg">
  <defs
     id="defs12" />
  <sodipodi:namedview
     id="namedview12"
     pagecolor="#ffffff"
     bordercolor="#000000"
     borderopacity="0.25"
     inkscape:showpageshadow="2"
     inkscape:pageopacity="0.0"
     inkscape:pagecheckerboard="0"
     inkscape:deskcolor="#d1d1d1"
     inkscape:zoom="17.699767"
     inkscape:cx="13.644248"
     inkscape:cy="17.429608"
     inkscape:window-width="1920"
     inkscape:window-height="1011"
     inkscape:window-x="0"
     inkscape:window-y="0"
     inkscape:window-maximized="1"
     inkscape:current-layer="svg12" />
  <filter
     id="a"
     width="1"
     height="1"
     x="0"
     y="0">
    <feColorMatrix
       color-interpolation-filters="sRGB"
       values="0 0 0 0 1 0 0 0 0 1 0 0 0 0 1 0 0 0 1 0"
       id="feColorMatrix1" />
  </filter>
  <mask
     id="b">
    <g
       filter="url(#a)"
       id="g1">
      <path
         fill-opacity=".5"
         d="M-1.6-1.6h19.2v19.2H-1.6z"
         id="path1" />
    </g>
  </mask>
  <clipPath
     id="c">
    <path
       d="M0 0h1600v1200H0z"
       id="path2" />
  </clipPath>
  <mask
     id="d">
    <g
       filter="url(#a)"
       id="g3">
      <path
         fill-opacity=".7"
         d="M-1.6-1.6h19.2v19.2H-1.6z"
         id="path3" />
    </g>
  </mask>
  <clipPath
     id="e">
    <path
       d="M0 0h1600v1200H0z"
       id="path4" />
  </clipPath>
  <mask
     id="f">
    <g
       filter="url(#a)"
       id="g5">
      <path
         fill-opacity=".35"
         d="M-1.6-1.6h19.2v19.2H-1.6z"
         id="path5" />
    </g>
  </mask>
  <clipPath
     id="g">
    <path
       d="M0 0h1600v1200H0z"
       id="path6" />
  </clipPath>
  <g
     mask="url(#b)"
     id="g8">
    <g
       clip-path="url(#c)"
       transform="translate(-160 -80)"
       id="g7">
      <path
         d="M550 182a2 2 0 0 0-1 .281v3.438c.305.18.648.277 1 .281a2 2 0 1 0 0-4m0 5c-.34 0-.68.059-1 .176V194h4v-4a3 3 0 0 0-3-3m0 0"
         id="path7" />
    </g>
  </g>
  <g
     mask="url(#d)"
     id="g10">
    <g
       clip-path="url(#e)"
       transform="translate(-160 -80)"
       id="g9">
      <path
         d="M569 182v4a2 2 0 1 0 0-4m0 5v7h3v-4a3 3 0 0 0-3-3m0 0"
         id="path8" />
    </g>
  </g>
  <g
     mask="url(#f)"
     id="g12">
    <g
       clip-path="url(#g)"
       transform="translate(-160 -80)"
       id="g11">
      <path
         d="M573 182.27v3.449a2 2 0 0 0 1-1.719c0-.715-.383-1.375-1-1.73m0 4.906V194h2v-4c0-1.27-.8-2.402-2-2.824m0 0"
         id="path10" />
    </g>
  </g>
  <path
     d="m 13.649792,17.101907 a 7,7 0 0 0 -7,7 7,7 0 0 0 7,7 7,7 0 0 0 7,-7 7,7 0 0 0 -7,-7 m 3.164,4.86 c 0.64,0.046 0.934,0.824 0.477,1.28 l -3.641,3.642 a 0.75,0.75 0 0 1 -1.062,0 l -2.176,-2.11 c -0.707,-0.71 0.355,-1.773 1.062,-1.062 l 1.646,1.578 3.11,-3.11 a 0.76,0.76 0 0 1 0.585,-0.219"
     id="path12" />
  <g
     fill="#222222"
     id="g2"
     transform="translate(0.05745217,-1.8997577e-4)">
    <path
       d="M 8.175781,1.003906 C 6.019531,0.933594 3.898438,1.863281 2.492188,3.605469 0.621094,5.921875 0.425781,9.1875 2.007812,11.710938 c 1.582032,2.527343 4.601563,3.777343 7.503907,3.109374 2.90625,-0.667968 5.074219,-3.117187 5.390625,-6.082031 C 14.949219,8.378906 14.800781,8.019531 14.507812,7.804688 14.214844,7.585938 13.828125,7.546875 13.496094,7.695312 13.164062,7.847656 12.941406,8.167969 12.914062,8.53125 12.6875,10.652344 11.144531,12.394531 9.0625,12.875 6.984375,13.351562 4.835938,12.460938 3.703125,10.652344 2.570312,8.84375 2.710938,6.523438 4.050781,4.859375 5.390625,3.195312 7.628906,2.570312 9.636719,3.296875 c 0.339843,0.128906 0.71875,0.066406 0.996093,-0.167969 0.28125,-0.230468 0.410157,-0.59375 0.34375,-0.949218 C 10.914062,1.824219 10.660156,1.53125 10.316406,1.417969 9.617188,1.164062 8.894531,1.027344 8.175781,1.003906 Z m 0,0"
       id="path1-3" />
    <path
       d="M 13.109375,2.542969 7.816406,7.835938 5.398438,5.417969 3.984375,6.832031 7.816406,10.664062 14.523438,3.957031 Z m 0,0"
       id="path2-6" />
  </g>
</svg>
