<?xml version="1.0" encoding="UTF-8"?>
<svg id="svg1" width="16" height="16" version="1.1" xml:space="preserve" xmlns="http://www.w3.org/2000/svg"><path id="path1" d="m8.1602 0.0097656c-1.1186 0-2.1708 0.20943-3.1562 0.62891-0.98543 0.41948-1.8488 0.98988-2.5879 1.709-0.73908 0.7191-1.325 1.565-1.7578 2.5371-0.43279 0.97212-0.64844 2.0099-0.64844 3.1152 0 1.092 0.20943 2.1236 0.62891 3.0957 0.41948 0.97212 0.99299 1.8211 1.7188 2.5469 0.72576 0.72576 1.5748 1.2993 2.5469 1.7188 0.97212 0.41948 2.0037 0.62891 3.0957 0.62891 0.59925 0 1.0811-0.16086 1.4473-0.48047 0.36621-0.3196 0.55078-0.81073 0.55078-1.4766 0-0.38618-0.10103-0.72967-0.30078-1.0293-0.19975-0.29962-0.29883-0.52965-0.29883-0.68945 0-0.079897 0.023706-0.15216 0.070312-0.21875 0.046608-0.06658 0.13015-0.10156 0.25-0.10156h1.4766c1.3317 0 2.4643-0.40954 3.3965-1.2285 0.93217-0.81898 1.3984-1.994 1.3984-3.5254 0-1.0254-0.20943-1.9797-0.62891-2.8652-0.41948-0.88556-0.98678-1.651-1.6992-2.2969-0.71244-0.64586-1.5408-1.1533-2.4863-1.5195-0.94548-0.36621-1.9503-0.54883-3.0156-0.54883zm-2.6602 3.9902a1.5 1.5 0 0 1 1.5 1.5 1.5 1.5 0 0 1-1.5 1.5 1.5 1.5 0 0 1-1.5-1.5 1.5 1.5 0 0 1 1.5-1.5zm5 0a1.5 1.5 0 0 1 1.5 1.5 1.5 1.5 0 0 1-1.5 1.5 1.5 1.5 0 0 1-1.5-1.5 1.5 1.5 0 0 1 1.5-1.5zm-5 5a1.5 1.5 0 0 1 1.5 1.5 1.5 1.5 0 0 1-1.5 1.5 1.5 1.5 0 0 1-1.5-1.5 1.5 1.5 0 0 1 1.5-1.5z" stroke="#000" stroke-width=".019975"/></svg>
