<?xml version="1.0" encoding="UTF-8"?>
<svg id="svg3" width="16px" height="16px" version="1.1" viewBox="0 0 16 16" xmlns="http://www.w3.org/2000/svg">
 <g id="g3" fill="#222">
  <path id="path1" d="m14 3v2h-12v-2zm-14 0v2c0 1.1094 0.89062 2 2 2h12c1.1094 0 2-0.89062 2-2v-2c0-1.1094-0.89062-2-2-2h-12c-1.1094 0-2 0.89062-2 2z"/>
  <path id="path2" d="m13 7v6h-10v-6zm-12 0v6c0 1.1094 0.89062 2 2 2h10c1.1094 0 2-0.89062 2-2v-6c0-1.1094-0.89062-2-2-2h-10c-1.1094 0-2 0.89062-2 2z"/>
  <path id="path3" d="m6 8h4v1h-4z"/>
 </g>
</svg>
