<?xml version="1.0" encoding="UTF-8" standalone="no"?>
<svg
   id="svg3"
   width="16px"
   height="16px"
   version="1.1"
   viewBox="0 0 16 16"
   sodipodi:docname="dosage-treatments-sorting.svg"
   inkscape:version="1.4.2 (ebf0e940d0, 2025-05-08)"
   xmlns:inkscape="http://www.inkscape.org/namespaces/inkscape"
   xmlns:sodipodi="http://sodipodi.sourceforge.net/DTD/sodipodi-0.dtd"
   xmlns="http://www.w3.org/2000/svg"
   xmlns:svg="http://www.w3.org/2000/svg">
  <defs
     id="defs1" />
  <sodipodi:namedview
     id="namedview1"
     pagecolor="#ffffff"
     bordercolor="#000000"
     borderopacity="0.25"
     inkscape:showpageshadow="2"
     inkscape:pageopacity="0.0"
     inkscape:pagecheckerboard="0"
     inkscape:deskcolor="#d1d1d1"
     inkscape:zoom="35.266951"
     inkscape:cx="6.2664902"
     inkscape:cy="8.7050339"
     inkscape:window-width="1920"
     inkscape:window-height="1011"
     inkscape:window-x="0"
     inkscape:window-y="0"
     inkscape:window-maximized="1"
     inkscape:current-layer="svg3" />
  <g
     fill="#2e3436"
     id="g2">
    <path
       d="M 3,0 C 2.449219,0 2,0.449219 2,1 V 12 H 0 v 1 h 0.0078125 c -0.00390625,0.265625 0.1015625,0.519531 0.2851565,0.707031 l 2,2 c 0.390625,0.390625 1.023437,0.390625 1.414062,0 l 2,-2 C 5.890625,13.519531 5.996094,13.265625 5.996094,13 H 6 V 12 H 4 V 1 C 4,0.449219 3.550781,0 3,0 Z m 0,0"
       id="path1" />
    <path
       d="M 6.5,10 C 6.222656,10 6,9.777344 6,9.5 v -1 C 6,8.222656 6.222656,8 6.5,8 h 9 C 15.777344,8 16,8.222656 16,8.5 v 1 C 16,9.777344 15.777344,10 15.5,10 Z m 0,-3 C 6.222656,7 6,6.777344 6,6.5 v -1 C 6,5.222656 6.222656,5 6.5,5 h 9 C 15.777344,5 16,5.222656 16,5.5 v 1 C 16,6.777344 15.777344,7 15.5,7 Z m 0,-3 C 6.222656,4 6,3.777344 6,3.5 v -1 C 6,2.222656 6.222656,2 6.5,2 h 9 C 15.777344,2 16,2.222656 16,2.5 v 1 C 16,3.777344 15.777344,4 15.5,4 Z"
       id="path2"
       sodipodi:nodetypes="sssssssssssssssssssssssssss" />
  </g>
</svg>
