<svg xmlns="http://www.w3.org/2000/svg" width="16" height="16"><path fill="#000" d="M7.992 1A7 7 0 0 0 1 8.008v5.988C1 14.551 1.45 15 2.004 15c.55-.004 1-.453.996-1.004v-.992C3 12.449 3.45 12 4.004 12c.55.004 1 .453.996 1.004v.992C5 14.551 5.45 15 6.004 15c.55-.004 1-.453.996-1.004v-.992C7 12.449 7.45 12 8.004 12c.55.004 1 .453.996 1.004v.992C9 14.551 9.45 15 10.004 15c.55-.004 1-.453.996-1.004v-.992c0-.555.45-1.004 1.004-1.004.55.004 1 .453.996 1.004v.992c0 .555.45 1.004 1.004 1.004.55-.004 1-.453.996-1.004V8.008A7.007 7.007 0 0 0 7.992 1M6 5c.555 0 1 .445 1 1v1c0 .555-.445 1-1 1s-1-.445-1-1V6c0-.555.445-1 1-1m4 0c.555 0 1 .445 1 1v1c0 .555-.445 1-1 1s-1-.445-1-1V6c0-.555.445-1 1-1m0 0"/></svg>
