<?xml version="1.0" encoding="UTF-8"?>
<svg id="svg2" width="16px" height="16px" version="1.1" viewBox="0 0 16 16" xmlns="http://www.w3.org/2000/svg">
 <path id="path1-3-2" transform="translate(43.83 .68945)" d="m-35.848 0.31058c-0.08228-2.21e-4 -0.16366 0.0012-0.24609 0.0039-0.04687 0.0015-0.09373 0.01313-0.14062 0.01563-0.25904 0.01524-0.51664 0.04234-0.77148 0.08594-0.12709 0.02126-0.25245 0.04962-0.37891 0.07813-0.20831 0.04757-0.41407 0.10359-0.61719 0.16992-0.07703 0.02498-0.15591 0.03667-0.23242 0.06445-0.05841 0.01925-0.11524 0.04323-0.16797 0.07227-1.1015 0.43463-2.0983 1.1506-2.877 2.1152-1.1239 1.3914-1.6425 3.1261-1.5352 4.8359-0.01624 0.09715-0.02085 0.19659-0.0078 0.29688 0.21415 2.0067 1.2882 3.7624 2.8535 4.9043 0.01666 0.01219 0.03402 0.02312 0.05078 0.03516 0.22732 0.16278 0.46192 0.31395 0.70898 0.44922 0.55264 0.30257 1.1427 0.5475 1.7773 0.69336 0.23388 0.05383 0.46854 0.08989 0.70312 0.11914 0.29458 0.03673 0.58805 0.05942 0.88086 0.05859 0.29281 8.25e-4 0.58823-0.02186 0.88281-0.05859 0.23459-0.02925 0.46924-0.06531 0.70312-0.11914 0.63464-0.14586 1.2247-0.39079 1.7773-0.69336 0.24972-0.13672 0.4853-0.29027 0.71484-0.45508 0.01222-0.0088 0.02494-0.01651 0.03711-0.02539 0.23416-0.17042 0.45546-0.35356 0.66602-0.55078 1.2-1.124 2.0129-2.648 2.1953-4.3574 0.01308-0.10029 0.01042-0.19973-0.0059-0.29688 0.10737-1.7098-0.41124-3.4445-1.5352-4.8359-0.77861-0.96461-1.7774-1.6806-2.8789-2.1152-0.05272-0.02905-0.1076-0.05303-0.16602-0.07227-0.0771-0.028-0.15674-0.0393-0.23438-0.06445-0.20274-0.06617-0.40732-0.12244-0.61524-0.16992-0.12646-0.0285-0.25182-0.05687-0.37891-0.07813-0.25395-0.04344-0.51141-0.07065-0.76953-0.08594-0.04754-0.0025-0.09507-0.01408-0.14258-0.01563-0.08244-0.0027-0.16573-0.0042-0.24805-0.0039zm2e-3 1.998c0.17547 2.88e-4 0.35187 0.01065 0.52539 0.0293 0.02477 0.0026 0.04945 0.0068 0.07422 0.0098 0.16243 0.01993 0.3231 0.04633 0.48242 0.08203 0.0071 0.0016 0.01438 0.0023 0.02148 0.0039 1.0677 0.24417 2.0511 0.83924 2.7734 1.7363 1.3398 1.6641 1.4805 3.9844 0.34766 5.793-0.69489 1.1094-1.7719 1.8726-2.9805 2.1875-0.19303 0.0503-0.38917 0.08827-0.58789 0.11524-0.0086 0.0011-0.01683 0.0048-0.02539 0.0059h-4e-3c-6.56e-4 -4.1e-5 -0.0033-0.0019-0.0039-2e-3v2e-3c-0.20507 0.02641-0.41426 0.04036-0.62305 0.04102-0.20878-6.57e-4 -0.41603-0.01461-0.62109-0.04102l-2e-3 -2e-3 -2e-3 2e-3h-4e-3c-0.0086-0.0011-0.01675-0.0047-0.02539-0.0059-0.19872-0.02696-0.39486-0.06494-0.58789-0.11524-1.2086-0.31491-2.2856-1.0781-2.9805-2.1875-1.1328-1.8086-0.99219-4.1289 0.34766-5.793 0.72231-0.89709 1.7058-1.4922 2.7734-1.7363 0.0071-0.0016 0.01438-0.0023 0.02148-0.0039 0.15933-0.0357 0.31999-0.0621 0.48242-0.08203 0.02476-3e-3 0.04945-0.0072 0.07422-0.0098 0.17349-0.01864 0.348-0.02901 0.52344-0.0293zm-0.03125 1.9844c-0.05469 0.0078-0.10547 0.01562-0.15625 0.03125-0.45703 0.08594-0.82031 0.53516-0.8125 1v1c-0.0078 0.52734 0.47266 1 1 1s1.0078-0.47266 1-1v-1c0.01563-0.54297-0.48828-1.0469-1.0312-1.0312zm0.03125 4.0312c-0.55078 0-1 0.44922-1 1s0.44922 1 1 1 1-0.44922 1-1-0.44922-1-1-1z"/>
</svg>
