<svg xmlns="http://www.w3.org/2000/svg" xml:space="preserve" width="16" height="16"><path d="M4 1.008c-1.09 0-2 .91-2 2V13c0 1.09.91 2 2 2h8c1.09 0 2-.91 2-2V3.008c0-1.09-.91-2-2-2V13H4Z"/><path d="M4 1h8v2H4z" style="fill:#000;fill-rule:evenodd;stroke-width:.444997;stroke-linecap:round;stroke-linejoin:round;paint-order:markers stroke fill"/><path d="M7.998 0A2.314 2 0 0 0 6 1h4a2.314 2 0 0 0-2.002-1" style="fill:#000;fill-rule:evenodd;stroke-width:.791386;stroke-linecap:round;stroke-linejoin:round;paint-order:markers stroke fill"/><rect width="4" height="2" x="6" y="2" ry=".848" style="fill:#000;fill-rule:evenodd;stroke-width:.707107;stroke-linecap:round;stroke-linejoin:round;paint-order:markers stroke fill"/></svg>