<svg xmlns="http://www.w3.org/2000/svg" xml:space="preserve" width="16" height="16"><path d="M5.429 11c-.238 0-.429.223-.429.5s.19.5.429.5h5.142c.238 0 .429-.223.429-.5s-.19-.5-.429-.5Z" style="stroke-width:.92582"/><path d="M4 1.008c-1.09 0-2 .91-2 2V13c0 1.09.91 2 2 2h8c1.09 0 2-.91 2-2V3.008c0-1.09-.91-2-2-2V13H4Z"/><path d="M4 1h8v2H4z" style="fill:#000;fill-rule:evenodd;stroke-width:.444997;stroke-linecap:round;stroke-linejoin:round;paint-order:markers stroke fill"/><path d="M7.998 0A2.314 2 0 0 0 6 1h4a2.314 2 0 0 0-2.002-1" style="fill:#000;fill-rule:evenodd;stroke-width:.791386;stroke-linecap:round;stroke-linejoin:round;paint-order:markers stroke fill"/><g fill="#2e3436" font-weight="400" transform="translate(0 -23)"><path d="M5 31h1.532v1H5z" style="fill:#000;fill-rule:evenodd;stroke-width:.618928;stroke-linecap:round;stroke-linejoin:round;paint-order:markers stroke fill"/><path d="M9.474 30H11v1H9.474z" style="fill:#000;fill-rule:evenodd;stroke-width:.617571;stroke-linecap:round;stroke-linejoin:round;paint-order:markers stroke fill"/><rect width="1.081" height="4.145" x="15.129" y="24.682" ry=".55" style="fill:#000;fill-rule:evenodd;stroke-width:.432051;stroke-linecap:round;stroke-linejoin:round;paint-order:markers stroke fill" transform="matrix(.95836 .28556 -.29965 .95405 0 0)"/><rect width="1.074" height="5.112" x="-1.283" y="28.957" ry=".537" style="fill:#000;fill-rule:evenodd;stroke-width:.478264;stroke-linecap:round;stroke-linejoin:round;paint-order:markers stroke fill" transform="matrix(-.97632 .21634 .23093 .97297 0 0)"/><rect width="1.102" height="3.195" x="20.745" y="23.651" ry=".549" style="fill:#000;fill-rule:evenodd;stroke-width:.382997;stroke-linecap:round;stroke-linejoin:round;paint-order:markers stroke fill" transform="matrix(.91595 .40129 -.41646 .90916 0 0)"/></g><rect width="4" height="2" x="6" y="2" ry=".848" style="fill:#000;fill-rule:evenodd;stroke-width:.707107;stroke-linecap:round;stroke-linejoin:round;paint-order:markers stroke fill"/></svg>