<?xml version="1.0" encoding="UTF-8" standalone="no"?><svg version="1.1" x="0px" y="0px" viewBox="0 0 16 16" xml:space="preserve" id="svg4" sodipodi:docname="empty-history-symbolic.svg" width="16" height="16" inkscape:version="1.3.2 (091e20ef0f, 2023-11-25)" xmlns:inkscape="http://www.inkscape.org/namespaces/inkscape" xmlns:sodipodi="http://sodipodi.sourceforge.net/DTD/sodipodi-0.dtd" xmlns="http://www.w3.org/2000/svg" xmlns:svg="http://www.w3.org/2000/svg"><defs id="defs4" /><sodipodi:namedview id="namedview4" pagecolor="#ffffff" bordercolor="#000000" borderopacity="0.25" inkscape:showpageshadow="2" inkscape:pageopacity="0.0" inkscape:pagecheckerboard="0" inkscape:deskcolor="#d1d1d1" showgrid="true" inkscape:zoom="39.85" inkscape:cx="-0.25094103" inkscape:cy="10.803011" inkscape:window-width="1920" inkscape:window-height="1011" inkscape:window-x="0" inkscape:window-y="0" inkscape:window-maximized="1" inkscape:current-layer="svg4"><inkscape:grid id="grid4" units="px" originx="0" originy="0" spacingx="1" spacingy="1" empcolor="#0099e5" empopacity="0.30196078" color="#0099e5" opacity="0.14901961" empspacing="5" dotted="false" gridanglex="30" gridanglez="30" visible="true" /></sodipodi:namedview><path d="m 4,1.0078125 c -1.089844,0 -2,0.910156 -2,2 V 13 c 0,1.089844 0.910156,2 2,2 h 8 c 1.089844,0 2,-0.910156 2,-2 V 3.0078125 c 0,-1.089844 -0.910156,-2 -2,-2 V 13 H 4 Z" id="path2-3" sodipodi:nodetypes="csssssscccc" /><rect style="fill:#000000;fill-rule:evenodd;stroke-width:0.444997;stroke-linecap:round;stroke-linejoin:round;paint-order:markers stroke fill" id="rect1" width="8" height="2" x="4" y="1" /><path id="path4" style="fill:#000000;fill-rule:evenodd;stroke-width:0.791386;stroke-linecap:round;stroke-linejoin:round;paint-order:markers stroke fill" d="M 7.9977401,0 A 2.3141243,2 0 0 0 6,1 h 4.000001 A 2.3141243,2 0 0 0 7.9977401,0 Z" /><rect style="fill:#000000;fill-rule:evenodd;stroke-width:0.707107;stroke-linecap:round;stroke-linejoin:round;paint-order:markers stroke fill" id="rect4" width="4" height="2" x="6" y="2" ry="0.84811783" /></svg>
