<?xml version="1.0" encoding="UTF-8" standalone="no"?>
<svg
   version="1.1"
   x="0px"
   y="0px"
   viewBox="0 0 16 16"
   xml:space="preserve"
   id="svg4"
   sodipodi:docname="history-symbolic.svg"
   width="16"
   height="16"
   inkscape:version="1.3 (0e150ed6c4, 2023-07-21)"
   xmlns:inkscape="http://www.inkscape.org/namespaces/inkscape"
   xmlns:sodipodi="http://sodipodi.sourceforge.net/DTD/sodipodi-0.dtd"
   xmlns="http://www.w3.org/2000/svg"
   xmlns:svg="http://www.w3.org/2000/svg"><defs
     id="defs4" /><sodipodi:namedview
     id="namedview4"
     pagecolor="#ffffff"
     bordercolor="#000000"
     borderopacity="0.25"
     inkscape:showpageshadow="2"
     inkscape:pageopacity="0.0"
     inkscape:pagecheckerboard="0"
     inkscape:deskcolor="#d1d1d1"
     showgrid="true"
     inkscape:zoom="4.98125"
     inkscape:cx="-55.10665"
     inkscape:cy="31.016311"
     inkscape:window-width="1920"
     inkscape:window-height="1011"
     inkscape:window-x="0"
     inkscape:window-y="0"
     inkscape:window-maximized="1"
     inkscape:current-layer="g2"><inkscape:grid
       id="grid4"
       units="px"
       originx="0"
       originy="0"
       spacingx="1"
       spacingy="1"
       empcolor="#0099e5"
       empopacity="0.30196078"
       color="#0099e5"
       opacity="0.14901961"
       empspacing="5"
       dotted="false"
       gridanglex="30"
       gridanglez="30"
       visible="true" /></sodipodi:namedview><path
     d="M 5.4285714,11 C 5.190848,11 5,11.222656 5,11.5 5,11.777344 5.190848,12 5.4285714,12 H 10.571429 C 10.809152,12 11,11.777344 11,11.5 11,11.222656 10.809152,11 10.571429,11 Z"
     id="path1-5"
     sodipodi:nodetypes="sssssss"
     style="stroke-width:0.92582" /><path
     d="m 4,1.0078125 c -1.089844,0 -2,0.910156 -2,2 V 13 c 0,1.089844 0.910156,2 2,2 h 8 c 1.089844,0 2,-0.910156 2,-2 V 3.0078125 c 0,-1.089844 -0.910156,-2 -2,-2 V 13 H 4 Z"
     id="path2-3"
     sodipodi:nodetypes="csssssscccc" /><rect
     style="fill:#000000;fill-rule:evenodd;stroke-width:0.444997;stroke-linecap:round;stroke-linejoin:round;paint-order:markers stroke fill"
     id="rect1"
     width="8"
     height="2"
     x="4"
     y="1" /><path
     id="path4"
     style="fill:#000000;fill-rule:evenodd;stroke-width:0.791386;stroke-linecap:round;stroke-linejoin:round;paint-order:markers stroke fill"
     d="M 7.9977401,0 A 2.3141243,2 0 0 0 6,1 h 4.000001 A 2.3141243,2 0 0 0 7.9977401,0 Z" /><g
     font-weight="400"
     fill="#2e3436"
     id="g2"
     transform="translate(0,-23)"><rect
       style="fill:#000000;fill-rule:evenodd;stroke-width:0.618928;stroke-linecap:round;stroke-linejoin:round;paint-order:markers stroke fill"
       id="rect5"
       width="1.5322852"
       height="1"
       x="5"
       y="31" /><rect
       style="fill:#000000;fill-rule:evenodd;stroke-width:0.617571;stroke-linecap:round;stroke-linejoin:round;paint-order:markers stroke fill"
       id="rect6"
       width="1.5255768"
       height="1"
       x="9.4744244"
       y="30" /><rect
       style="fill:#000000;fill-rule:evenodd;stroke-width:0.432051;stroke-linecap:round;stroke-linejoin:round;paint-order:markers stroke fill"
       id="rect11"
       width="1.0807078"
       height="4.1454511"
       x="15.129076"
       y="24.682114"
       transform="matrix(0.9583614,0.2855581,-0.29964586,0.9540505,0,0)"
       ry="0.55027097" /><rect
       style="fill:#000000;fill-rule:evenodd;stroke-width:0.478264;stroke-linecap:round;stroke-linejoin:round;paint-order:markers stroke fill"
       id="rect11-0"
       width="1.0738287"
       height="5.1122251"
       x="-1.2825894"
       y="28.956955"
       transform="matrix(-0.97631912,0.21633534,0.23092541,0.97297146,0,0)"
       ry="0.53691435" /><rect
       style="fill:#000000;fill-rule:evenodd;stroke-width:0.382997;stroke-linecap:round;stroke-linejoin:round;paint-order:markers stroke fill"
       id="rect11-3"
       width="1.1019365"
       height="3.1948087"
       x="20.744871"
       y="23.650534"
       transform="matrix(0.91595309,0.40128536,-0.41645771,0.90915509,0,0)"
       ry="0.54888183" /></g><rect
     style="fill:#000000;fill-rule:evenodd;stroke-width:0.707107;stroke-linecap:round;stroke-linejoin:round;paint-order:markers stroke fill"
     id="rect4"
     width="4"
     height="2"
     x="6"
     y="2"
     ry="0.84811783" /></svg>
