<?xml version="1.0" encoding="UTF-8" standalone="no"?>
<svg
   height="16"
   width="16"
   xml:space="preserve"
   version="1.1"
   id="svg2"
   sodipodi:docname="injection-symbolic.svg"
   inkscape:version="1.3 (0e150ed6c4, 2023-07-21)"
   xmlns:inkscape="http://www.inkscape.org/namespaces/inkscape"
   xmlns:sodipodi="http://sodipodi.sourceforge.net/DTD/sodipodi-0.dtd"
   xmlns="http://www.w3.org/2000/svg"
   xmlns:svg="http://www.w3.org/2000/svg"><defs
     id="defs2" /><sodipodi:namedview
     id="namedview2"
     pagecolor="#ffffff"
     bordercolor="#000000"
     borderopacity="0.25"
     inkscape:showpageshadow="2"
     inkscape:pageopacity="0.0"
     inkscape:pagecheckerboard="0"
     inkscape:deskcolor="#d1d1d1"
     inkscape:zoom="30.759146"
     inkscape:cx="5.6243433"
     inkscape:cy="11.817623"
     inkscape:window-width="1920"
     inkscape:window-height="1011"
     inkscape:window-x="0"
     inkscape:window-y="0"
     inkscape:window-maximized="1"
     inkscape:current-layer="path1"
     showgrid="true"><inkscape:grid
       id="grid1"
       units="px"
       originx="0"
       originy="0"
       spacingx="1"
       spacingy="1"
       empcolor="#0099e5"
       empopacity="0.30196078"
       color="#0099e5"
       opacity="0.14901961"
       empspacing="5"
       dotted="false"
       gridanglex="30"
       gridanglez="30"
       visible="true" /></sodipodi:namedview><g
     id="g2"
     transform="matrix(1,0,0,-1,-27.33362,99.938858)"
     style="fill:#6c6c6c;fill-opacity:1"><g
       id="path1"
       style="fill:#6c6c6c;fill-opacity:1"><path
         id="path7"
         style="color:#000000;fill:#000000;fill-opacity:1;-inkscape-stroke:none"
         d="m 38.872682,99.938858 c -0.261321,0 -0.526733,-0.102954 -0.722656,-0.298828 -0.39531,-0.395218 -0.39531,-1.052048 0,-1.447266 l 0.994141,-0.99414 -1.080078,-1.082032 -2.544922,2.544922 c -0.195931,0.195897 -0.463298,0.300781 -0.72461,0.300781 -0.261324,0 -0.528686,-0.104906 -0.724609,-0.300781 -0.395309,-0.395215 -0.395308,-1.05205 0,-1.447265 l 0.828125,-0.826172 -5.400328,-5.398399 c -0.213059,-0.213034 -0.318121,-0.509173 -0.294922,-0.804687 l 0.212891,-2.714844 -1.785219,-1.787148 c -0.395311,-0.395219 -0.395314,-1.052048 0,-1.447266 0.197657,-0.197605 0.459645,-0.296875 0.722656,-0.296875 0.263013,0 0.526953,0.09927 0.72461,0.296875 l 1.785219,1.785195 2.71875,-0.21289 -0.0098,0.002 c 0.307447,-0.03014 0.604618,0.08319 0.814453,0.292968 l 5.398376,5.398399 0.826172,-0.826172 c 0.395311,-0.395214 1.051954,-0.395214 1.447265,0 0.395314,0.395218 0.395313,1.052047 0,1.447266 l -2.544922,2.544922 1.082032,1.080078 0.99414,-0.994141 c 0.395313,-0.395217 1.051953,-0.395216 1.447266,0 0.395317,0.395218 0.395314,1.052047 0,1.447266 l -3.439453,3.439453 c -0.195932,0.195896 -0.463298,0.298828 -0.72461,0.298828 z m -2.52539,-5.003906 1.990234,-1.988282 -5.064391,-5.064414 -1.845702,0.144532 -0.144531,1.84375 z"
         sodipodi:nodetypes="scccccscccccccsscccccccsccccsccscccccc" /></g></g></svg>
