<svg xmlns="http://www.w3.org/2000/svg" xml:space="preserve" width="16" height="16"><g style="fill:#6c6c6c;fill-opacity:1"><path d="M38.873 99.939c-.262 0-.527-.103-.723-.299a1.03 1.03 0 0 1 0-1.447l.994-.994-1.08-1.082-2.545 2.545c-.196.195-.463.3-.724.3-.262 0-.53-.105-.725-.3a1.03 1.03 0 0 1 0-1.448l.828-.826-5.4-5.398a1.02 1.02 0 0 1-.295-.805l.213-2.715-1.786-1.787a1.03 1.03 0 0 1 0-1.447c.198-.198.46-.297.723-.297s.527.1.725.297l1.785 1.785 2.719-.213-.01.002c.307-.03.605.083.814.293l5.399 5.398.826-.826a1.03 1.03 0 0 1 1.447 0 1.03 1.03 0 0 1 0 1.447l-2.545 2.545 1.082 1.08.994-.994a1.03 1.03 0 0 1 1.448 0 1.03 1.03 0 0 1 0 1.448l-3.44 3.44a1.03 1.03 0 0 1-.724.298m-2.526-5.004 1.99-1.988-5.064-5.065-1.846.145-.144 1.844z" style="color:#000;fill:#000;fill-opacity:1;-inkscape-stroke:none" transform="matrix(1 0 0 -1 -27.334 99.939)"/></g></svg>