<svg xmlns="http://www.w3.org/2000/svg" xml:space="preserve" width="16" height="16"><path d="M741.461 536.605c24.211-9.964 51.227 18.243 67.493 46.086 14.621 26.773 23.017 65.237 23.272 99.598-.03 1.62-.075 3.257-.128 4.865-.011.339.012.686 0 1.024-.173 8.862-.865 16.152-2.057 24.944-.354 2.788-.839 5.564-1.28 8.321-13.47 77.648-65.772 144.56-140.692 179.993-31.446 13.47-64.88 21.725-91.789 25.092a279 279 0 0 1-25.475 1.792h-.768c-144.536-.066-261.752-109.78-262.053-245.282v-1.409c.006-3.656.126-7.394.256-11.137v-.384q.328-5.258.896-10.498c9.11-54.556 65.97 3.634 130.45 6.53 169.254 4.007 213.61-93.21 301.875-129.535" style="color:#000;fill:#000;stroke-width:1.00057;-inkscape-stroke:none" transform="matrix(.01526 0 0 .01526 -.682 -1.163)"/><path d="M784.095 76.732c23.315 0 44.927 12.456 56.584 32.644 11.657 20.19 11.657 45.227 0 65.417-11.658 20.185-33.27 32.645-56.584 32.645h-18.307l.384 65.545c42.227 37.852 88.713 70.171 125.842 104.207 86.51 79.302 136.467 188.714 136.467 303.275S978.524 923 892.014 1002.302c-86.48 79.274-202.167 122.866-322.35 122.897h-.127c-120.183-.03-235.87-43.623-322.35-122.897C160.677 923 110.72 795.025 110.72 680.465c0-114.561 49.928-224.734 136.438-304.036 37.129-34.036 87.85-63.67 125.871-103.446l.384-65.545h-18.306c-23.315 0-44.926-12.46-56.584-32.645-11.657-20.19-11.657-45.226 0-65.417 11.656-20.188 33.269-32.644 56.584-32.644h214.558zM635.082 207.438H504.12l-.385 51.335c.126-.017.259.017.385 0v47.495c0 78.219-103.865 97.806-171.032 167.576-57.407 59.63-91.277 129.932-91.277 206.62s32.95 169.38 93.965 225.312c60.986 55.905 145.403 88.301 233.76 88.333h.129c88.357-.032 172.775-32.428 233.76-88.333 61.016-55.931 93.966-148.623 93.966-225.311s-33.857-146.992-91.263-206.621c-67.168-69.77-171.046-89.357-171.046-167.576v-47.495c.126.017.258-.017.384 0z" style="color:#000;fill:#000;stroke:#000;stroke-opacity:1;-inkscape-stroke:none" transform="matrix(.01526 0 0 .01526 -.682 -1.163)"/></svg>