<?xml version="1.0" encoding="UTF-8" standalone="no"?>
<svg
   height="16"
   width="16"
   xml:space="preserve"
   version="1.1"
   id="svg2"
   sodipodi:docname="magic-potion-symbolic.svg"
   inkscape:version="1.3 (0e150ed6c4, 2023-07-21)"
   xmlns:inkscape="http://www.inkscape.org/namespaces/inkscape"
   xmlns:sodipodi="http://sodipodi.sourceforge.net/DTD/sodipodi-0.dtd"
   xmlns="http://www.w3.org/2000/svg"
   xmlns:svg="http://www.w3.org/2000/svg"><defs
     id="defs2"><inkscape:path-effect
       effect="fillet_chamfer"
       id="path-effect1"
       is_visible="true"
       lpeversion="1"
       nodesatellites_param="F,0,0,1,0,0,0,1 @ F,0,0,1,0,0,0,1 @ F,0,0,1,0,0,0,1 @ F,0,0,1,0,0,0,1 @ F,0,0,1,0,0,0,1 @ F,0,0,1,0,0,0,1 @ F,0,0,1,0,0,0,1 @ F,0,0,1,0,0,0,1 @ F,0,0,1,0,0,0,1 @ F,0,0,1,0,0,0,1 @ F,0,0,1,0,0,0,1 @ F,0,0,1,0,0,0,1"
       radius="0"
       unit="px"
       method="auto"
       mode="F"
       chamfer_steps="1"
       flexible="false"
       use_knot_distance="true"
       apply_no_radius="true"
       apply_with_radius="true"
       only_selected="false"
       hide_knots="false" /></defs><sodipodi:namedview
     id="namedview2"
     pagecolor="#ffffff"
     bordercolor="#000000"
     borderopacity="0.25"
     inkscape:showpageshadow="2"
     inkscape:pageopacity="0.0"
     inkscape:pagecheckerboard="0"
     inkscape:deskcolor="#d1d1d1"
     inkscape:zoom="32"
     inkscape:cx="5.125"
     inkscape:cy="11.359375"
     inkscape:window-width="1920"
     inkscape:window-height="1011"
     inkscape:window-x="0"
     inkscape:window-y="0"
     inkscape:window-maximized="1"
     inkscape:current-layer="path1-3"
     showgrid="true"><inkscape:grid
       id="grid1"
       units="px"
       originx="0"
       originy="0"
       spacingx="1"
       spacingy="1"
       empcolor="#0099e5"
       empopacity="0.30196078"
       color="#0099e5"
       opacity="0.14901961"
       empspacing="5"
       dotted="false"
       gridanglex="30"
       gridanglez="30"
       visible="true" /></sodipodi:namedview><g
     id="g4"
     transform="matrix(0.01525664,0,0,0.01525664,-0.68158864,-1.1630382)"><g
       id="path1"><g
         id="path1-3"><path
           id="path2-7"
           style="color:#000000;fill:#000000;stroke-width:1.00057;-inkscape-stroke:none"
           d="m 741.46115,536.60486 c 24.21128,-9.96398 51.22638,18.24283 67.49315,46.08653 14.621,26.77291 23.0166,65.23685 23.27163,99.59806 -0.0304,1.6202 -0.0748,3.2563 -0.12802,4.8647 -0.0112,0.3385 0.0122,0.6863 0,1.0242 -0.17265,8.86139 -0.86465,16.15125 -2.05653,24.9434 -0.35429,2.7881 -0.83913,5.564 -1.28018,8.3212 -13.47057,77.64826 -65.77237,144.56031 -140.69181,179.99339 -31.44641,13.4698 -64.87955,21.7244 -91.78893,25.0916 -8.45575,0.98515 -16.95771,1.58326 -25.47559,1.7922 -0.21536,0 -0.42487,3e-4 -0.64009,0 h -0.12801 C 425.50124,928.25424 308.28493,818.53933 307.98386,683.03755 c -4.7e-4,-0.1732 1.9e-4,-0.3387 0,-0.5121 -5.8e-4,-0.2987 -5.8e-4,-0.5974 0,-0.8961 0.006,-3.6561 0.1265,-7.3947 0.25603,-11.13763 v -0.3841 c 0.21871,-3.50473 0.51749,-7.00467 0.89613,-10.4974 9.10915,-54.55653 65.97046,3.6341 130.45037,6.5289 169.25408,4.008 213.61044,-93.20972 301.87476,-129.53426 z"
           sodipodi:nodetypes="sccsccccccsssccccccs" /><path
           id="path2-3-5-6"
           style="color:#000000;fill:#000000;stroke:#000000;stroke-opacity:1;-inkscape-stroke:none"
           d="m 784.09498,76.731608 c 23.31476,0 44.92729,12.4567 56.58397,32.644602 11.65708,20.1906 11.65708,45.2267 0,65.4172 -11.65798,20.1847 -33.26911,32.6446 -56.58397,32.6446 h -18.30657 l 0.38405,65.5452 c 42.22647,37.85171 88.7126,70.1711 125.84172,104.2067 86.51023,79.302 136.46722,188.7139 136.46722,303.2747 0,114.5606 -49.95699,242.5353 -136.46722,321.83729 -86.47952,79.274 -202.16692,122.8665 -322.3494,122.8974 h -0.12802 C 449.35429,1125.1683 333.66689,1081.5759 247.18737,1002.3019 160.67714,922.99991 110.72012,795.02521 110.72012,680.46461 c 0,-114.5608 49.92753,-224.73384 136.43776,-304.03584 37.12913,-34.0356 87.84933,-63.66958 125.87121,-103.44556 l 0.38405,-65.5452 h -18.30658 c -23.31485,0 -44.92599,-12.4599 -56.58397,-32.6446 -11.65707,-20.1905 -11.65707,-45.2266 0,-65.4172 11.65668,-20.187902 33.26922,-32.644602 56.58397,-32.644602 h 214.4302 0.12802 z M 635.082,207.43801 h -65.41722 -0.12802 -65.41721 l -0.38405,51.3352 c 0.1259,-0.017 0.25815,0.017 0.38405,0 v 47.4947 c 0,78.2188 -103.8641,97.8058 -171.03187,167.5756 -57.40618,59.6299 -91.27707,129.9326 -91.27707,206.6211 0,76.6883 32.94985,169.3803 93.96523,225.3117 60.98583,55.9044 145.40324,88.3011 233.76092,88.3325 h 0.12802 c 88.35769,-0.0314 172.77509,-32.4281 233.76093,-88.3325 61.01537,-55.9314 93.96523,-148.6234 93.96523,-225.3117 0,-76.6885 -33.85714,-146.9912 -91.26332,-206.6211 C 738.95984,404.07371 635.082,384.48671 635.082,306.26791 v -47.4947 c 0.1259,0.017 0.25815,-0.017 0.38405,0 z"
           sodipodi:nodetypes="sccscccsssssssccsccsccsccccccsssssssscsccc" /></g></g></g></svg>
