<?xml version="1.0" encoding="UTF-8" standalone="no"?>
<svg
   height="16px"
   viewBox="0 0 16 16"
   width="16px"
   version="1.1"
   id="svg1"
   sodipodi:docname="med-drop-symbolic.svg"
   inkscape:version="1.3 (0e150ed6c4, 2023-07-21)"
   xmlns:inkscape="http://www.inkscape.org/namespaces/inkscape"
   xmlns:sodipodi="http://sodipodi.sourceforge.net/DTD/sodipodi-0.dtd"
   xmlns="http://www.w3.org/2000/svg"
   xmlns:svg="http://www.w3.org/2000/svg">
  <defs
     id="defs1" />
  <sodipodi:namedview
     id="namedview1"
     pagecolor="#ffffff"
     bordercolor="#000000"
     borderopacity="0.25"
     inkscape:showpageshadow="2"
     inkscape:pageopacity="0.0"
     inkscape:pagecheckerboard="0"
     inkscape:deskcolor="#d1d1d1"
     inkscape:zoom="20.25"
     inkscape:cx="6.0246914"
     inkscape:cy="6.1481481"
     inkscape:window-width="1920"
     inkscape:window-height="1011"
     inkscape:window-x="0"
     inkscape:window-y="0"
     inkscape:window-maximized="1"
     inkscape:current-layer="svg1" />
  <path
     d="M 8.0000041,0.06417592 3.5000038,5.6641759 h 0.02734 C 2.5429688,6.7657379 1.9999998,8.487438 1.9999998,9.964 c 0,3.3125 2.6875,6 6.0000004,6 C 11.3125,15.964 14,13.2765 14,9.964 14,8.487438 13.457031,6.7657379 12.46875,5.6641759 H 12.5 Z M 7.9804731,3.0558241 c 0,0 2.3437499,3.0641759 3.0781249,3.9391759 0.589844,0.699219 0.941406,2.101812 0.941406,3.082281 0,2.222657 -1.796875,4.019531 -4.0195309,4.019531 -2.2187503,0 -4.0156253,-1.796874 -4.0156253,-4.019531 0,-1.019531 0.382812,-2.453344 1.007812,-3.164281 0.738282,-0.828125 3.0078133,-3.8571759 3.0078133,-3.8571759 z"
     id="path1"
     style="stroke-width:1;stroke-dasharray:none"
     sodipodi:nodetypes="cccssscccccssscc" />
</svg>
