<svg xmlns="http://www.w3.org/2000/svg" xml:space="preserve" width="16" height="16"><path d="M14.87 1.143c-.537-.53-1.068-1.07-1.615-1.61-.31-.309-.77-.248-1.08.064l-.325.324c-.31.312-.372.677-.063.988l.056.055c.058.059.058.105 0 .164l-.115.114c-.109.11-.503.062-.897.062l-2.316.031H8.51L8.5 1.333c-.677-.016-1.47.576-1.966 1.075L2.28 6.693a2.173 2.173 0 0 0-.006 3.056l1.724 1.735.263.266.002.002.266.263 1.735 1.724c.842.836 2.21.834 3.056-.006l4.285-4.254c.5-.496 1.091-1.289 1.075-1.966l-.001-.007V7.5l.03-2.317c0-.394-.048-.788.062-.897l.114-.114c.06-.06.105-.059.164 0l.055.055c.311.308.676.247.988-.063l.324-.325c.312-.31.373-.77.065-1.08-.542-.547-1.08-1.078-1.611-1.614zm-2.18 2.182c.001 1.01-.019 3.014-.02 4 .009.19-.5.769-.637.904L7.88 12.354c-.045.028-.073.037-.108.003L5.98 10.575l-.27-.268-.002-.001-.268-.271-1.782-1.793c-.034-.035-.025-.063.003-.108L7.785 3.98c.135-.136.714-.646.904-.638.986 0 2.992-.019 4.002-.018" style="color:#000;fill:#000;stroke-width:.991025;-inkscape-stroke:none" transform="rotate(-45 10.054 8.865)"/><path d="m7.092 3.266 5.657 5.656-2.829 2.829-5.657-5.657Z" style="fill-rule:evenodd;stroke-width:1.55791;stroke-linecap:square" transform="rotate(-45 10.054 8.865)"/></svg>