<svg xmlns="http://www.w3.org/2000/svg" width="16" height="16"><filter id="a" width="100%" height="100%" x="0%" y="0%"><feColorMatrix color-interpolation-filters="sRGB" values="0 0 0 0 1 0 0 0 0 1 0 0 0 0 1 0 0 0 1 0"/></filter><mask id="b"><g filter="url(#a)"><path fill-opacity=".5" d="M-1.6-1.6h19.2v19.2H-1.6z"/></g></mask><clipPath id="c"><path d="M0 0h1600v1200H0z"/></clipPath><mask id="d"><g filter="url(#a)"><path fill-opacity=".7" d="M-1.6-1.6h19.2v19.2H-1.6z"/></g></mask><clipPath id="e"><path d="M0 0h1600v1200H0z"/></clipPath><mask id="f"><g filter="url(#a)"><path fill-opacity=".35" d="M-1.6-1.6h19.2v19.2H-1.6z"/></g></mask><clipPath id="g"><path d="M0 0h1600v1200H0z"/></clipPath><path fill="#000" d="M3.043 1A2.04 2.04 0 0 0 1 3.043v9.875a2.04 2.04 0 0 0 2.043 2.043h9.914A2.04 2.04 0 0 0 15 12.918V3.043A2.04 2.04 0 0 0 12.957 1zM3 5.96h10v7H3zM4 7v2h2V7zm3 0v2h2V7zm3 0v2h2V7zm-6 3v2h2v-2zm3 0v2h2v-2zm0 0"/><g mask="url(#b)"><g clip-path="url(#c)" transform="translate(-660 -360)"><path d="M550 182a2 2 0 0 0-1 .281v3.438c.305.18.648.277 1 .281a2 2 0 1 0 0-4m0 5c-.34 0-.68.059-1 .176V194h4v-4a3 3 0 0 0-3-3m0 0"/></g></g><g mask="url(#d)"><g clip-path="url(#e)" transform="translate(-660 -360)"><path d="M569 182v4a2 2 0 1 0 0-4m0 5v7h3v-4a3 3 0 0 0-3-3m0 0"/></g></g><g mask="url(#f)"><g clip-path="url(#g)" transform="translate(-660 -360)"><path d="M573 182.27v3.449a2 2 0 0 0 1-1.719c0-.715-.383-1.375-1-1.73m0 4.906V194h2v-4c0-1.27-.8-2.402-2-2.824m0 0"/></g></g></svg>
