<?xml version="1.0" encoding="UTF-8" standalone="no"?>
<svg
   height="16"
   width="16"
   xml:space="preserve"
   version="1.1"
   id="svg2"
   sodipodi:docname="pill-alt-symbolic.svg"
   inkscape:version="1.3 (0e150ed6c4, 2023-07-21)"
   xmlns:inkscape="http://www.inkscape.org/namespaces/inkscape"
   xmlns:sodipodi="http://sodipodi.sourceforge.net/DTD/sodipodi-0.dtd"
   xmlns="http://www.w3.org/2000/svg"
   xmlns:svg="http://www.w3.org/2000/svg"><defs
     id="defs2" /><sodipodi:namedview
     id="namedview2"
     pagecolor="#ffffff"
     bordercolor="#000000"
     borderopacity="0.25"
     inkscape:showpageshadow="2"
     inkscape:pageopacity="0.0"
     inkscape:pagecheckerboard="0"
     inkscape:deskcolor="#d1d1d1"
     inkscape:zoom="21.75"
     inkscape:cx="7.0344828"
     inkscape:cy="16.62069"
     inkscape:window-width="1920"
     inkscape:window-height="1011"
     inkscape:window-x="0"
     inkscape:window-y="0"
     inkscape:window-maximized="1"
     inkscape:current-layer="svg2" /><path
     style="color:#000000;fill:#000000;fill-rule:evenodd;stroke:none;stroke-width:2;stroke-linecap:round;stroke-linejoin:round;stroke-dasharray:none;stroke-opacity:1;paint-order:stroke markers fill"
     d="M 13.896099,2.1039006 C 12.317182,0.52498381 9.710825,0.63232134 8.103901,2.2392452 L 2.2392451,8.103901 c -1.60692414,1.6069241 -1.71426155,4.213281 -0.1353444,5.792198 1.5789171,1.578917 4.1852756,1.471579 5.7921986,-0.135344 L 13.760755,7.8960994 c 1.606924,-1.606924 1.714261,-4.2132824 0.135344,-5.7921988 z m -1.414213,1.4142135 c 0.771658,0.7716579 0.75821,2.0702169 -0.135345,2.9637718 L 6.4818857,12.346541 C 5.5883307,13.240096 4.2897719,13.253543 3.5181142,12.481886 2.7464565,11.710228 2.7599048,10.411668 3.6534587,9.518114 L 9.518114,3.6534587 c 0.893554,-0.8935541 2.192114,-0.9070025 2.963772,-0.1353446 z"
     id="rect2"
     sodipodi:nodetypes="ssssssssssssss" /></svg>
