<?xml version="1.0" encoding="UTF-8" standalone="no"?>
<svg
   height="16"
   width="16"
   xml:space="preserve"
   version="1.1"
   id="svg2"
   sodipodi:docname="pill-square-symbolic.svg"
   inkscape:version="1.3 (0e150ed6c4, 2023-07-21)"
   xmlns:inkscape="http://www.inkscape.org/namespaces/inkscape"
   xmlns:sodipodi="http://sodipodi.sourceforge.net/DTD/sodipodi-0.dtd"
   xmlns="http://www.w3.org/2000/svg"
   xmlns:svg="http://www.w3.org/2000/svg"><defs
     id="defs2" /><sodipodi:namedview
     id="namedview2"
     pagecolor="#ffffff"
     bordercolor="#000000"
     borderopacity="0.25"
     inkscape:showpageshadow="2"
     inkscape:pageopacity="0.0"
     inkscape:pagecheckerboard="0"
     inkscape:deskcolor="#d1d1d1"
     inkscape:zoom="21.750001"
     inkscape:cx="0.9655172"
     inkscape:cy="9.2183904"
     inkscape:window-width="1920"
     inkscape:window-height="1011"
     inkscape:window-x="0"
     inkscape:window-y="0"
     inkscape:window-maximized="1"
     inkscape:current-layer="svg2" /><path
     id="rect3"
     style="fill-rule:evenodd;stroke-width:3.32205;stroke-linecap:round;stroke-linejoin:round;paint-order:stroke markers fill"
     transform="rotate(135)"
     d="m -2,-12.313708 h 4 c 0.554,0 1,0.446 1,1 0,0.554 -0.446,1 -1,1 h -4 c -0.554,0 -1,-0.446 -1,-1 0,-0.554 0.446,-1 1,-1 z" /><path
     style="color:#000000;fill:#000000;fill-rule:evenodd;stroke-linecap:square;-inkscape-stroke:none"
     d="m -3.9316406,-17.693359 c -1.3380423,0 -2.4472656,1.109224 -2.4472656,2.447265 v 7.8632815 c 0,1.3380418 1.1092238,2.4472656 2.4472656,2.4472656 h 7.8632812 c 1.3380418,0 2.4472656,-1.1092238 2.4472656,-2.4472656 v -7.8632815 c 0,-1.338041 -1.1092233,-2.447265 -2.4472656,-2.447265 z m 0,2 h 7.8632812 c 0.2646369,0 0.4472656,0.182629 0.4472656,0.447265 v 7.8632815 c 0,0.2646374 -0.1826282,0.4472656 -0.4472656,0.4472656 h -7.8632812 c -0.2646374,0 -0.4472656,-0.1826282 -0.4472656,-0.4472656 v -7.8632815 c 0,-0.264636 0.1826287,-0.447265 0.4472656,-0.447265 z"
     id="rect1"
     transform="matrix(-0.7071193,0.70709427,-0.7071193,-0.70709427,0,0)" /></svg>
