<svg xmlns="http://www.w3.org/2000/svg" xml:space="preserve" width="16" height="16"><path d="M-3.092-12.314h6.184c.503 0 .908.405.908.908v.184a.906.906 0 0 1-.908.908h-6.184A.906.906 0 0 1-4-11.222v-.184c0-.503.405-.908.908-.908" style="opacity:1;fill-rule:evenodd;stroke-width:3.83597;stroke-linecap:round;stroke-linejoin:round;paint-order:stroke markers fill" transform="rotate(135)"/><path d="M8 0C3.594 0 0 3.594 0 8s3.594 8 8 8 8-3.594 8-8-3.594-8-8-8m0 2c3.326 0 6 2.674 6 6s-2.674 6-6 6-6-2.674-6-6 2.674-6 6-6" style="color:#000;fill:#000;fill-rule:evenodd;stroke-linecap:round;stroke-linejoin:round;-inkscape-stroke:none;paint-order:stroke markers fill"/></svg>