<svg xmlns="http://www.w3.org/2000/svg" xml:space="preserve" width="16" height="16"><path d="M-3.932-17.693a2.465 2.465 0 0 0-2.447 2.447v7.863a2.465 2.465 0 0 0 2.447 2.447h7.864a2.465 2.465 0 0 0 2.447-2.447v-7.863a2.465 2.465 0 0 0-2.447-2.447zm0 2h7.864c.264 0 .447.182.447.447v7.863a.427.427 0 0 1-.447.447h-7.864a.427.427 0 0 1-.447-.447v-7.863c0-.265.183-.447.447-.447" style="color:#000;fill:#000;fill-rule:evenodd;stroke-linecap:square;-inkscape-stroke:none" transform="rotate(135.001)"/></svg>