<?xml version="1.0" encoding="UTF-8" standalone="no"?>
<svg
   height="16"
   width="16"
   xml:space="preserve"
   version="1.1"
   id="svg2"
   sodipodi:docname="pill-triangle-symbolic.svg"
   inkscape:version="1.3 (0e150ed6c4, 2023-07-21)"
   xmlns:inkscape="http://www.inkscape.org/namespaces/inkscape"
   xmlns:sodipodi="http://sodipodi.sourceforge.net/DTD/sodipodi-0.dtd"
   xmlns="http://www.w3.org/2000/svg"
   xmlns:svg="http://www.w3.org/2000/svg"><defs
     id="defs2" /><sodipodi:namedview
     id="namedview2"
     pagecolor="#ffffff"
     bordercolor="#000000"
     borderopacity="0.25"
     inkscape:showpageshadow="2"
     inkscape:pageopacity="0.0"
     inkscape:pagecheckerboard="0"
     inkscape:deskcolor="#d1d1d1"
     inkscape:zoom="30.759146"
     inkscape:cx="6.0794926"
     inkscape:cy="12.402815"
     inkscape:window-width="1920"
     inkscape:window-height="1011"
     inkscape:window-x="0"
     inkscape:window-y="0"
     inkscape:window-maximized="1"
     inkscape:current-layer="svg2" /><path
     style="color:#000000;fill:#000000;-inkscape-stroke:none"
     d="M 7.84375,0.0078125 C 6.7725441,0.06124805 5.8093244,0.67315007 5.2890625,1.6035156 l -4.875,8.6171874 C -0.76328162,12.296536 0.74300364,15 3.1289063,15 h 9.7656247 c 2.385903,0 3.89219,-2.703464 2.714844,-4.779297 v -0.002 l -4.875,-8.6132813 C 10.154318,0.56470721 9.0290149,-0.06408087 7.84375,0.0078125 Z m 0.1230469,2.0644531 c 0.3876532,-0.02484 0.7523773,0.1703131 0.9589844,0.5410157 l 0.00195,0.00195 4.8808596,8.6249996 v 0.002 c 0.446783,0.786593 -0.06511,1.685546 -0.914063,1.685546 H 3.1289063 c -0.8489543,0 -1.3608449,-0.898953 -0.9140625,-1.685546 v -0.002 L 7.0957031,2.6171875 v -0.00391 C 7.2803289,2.2831216 7.5948569,2.0909282 7.9492187,2.0742188 h 0.00977 z"
     id="path3" /><path
     id="rect3"
     style="fill-rule:evenodd;stroke-width:3.0326;stroke-linecap:round;stroke-linejoin:round;paint-order:stroke markers fill"
     transform="rotate(90)"
     d="m 7,-9 h 3 c 0.554,0 1,0.446 1,1 0,0.554 -0.446,1 -1,1 H 7 C 6.446,-7 6,-7.446 6,-8 6,-8.554 6.446,-9 7,-9 Z" /></svg>
