<svg xmlns="http://www.w3.org/2000/svg" xml:space="preserve" width="16" height="16"><path d="M13.896 2.104C12.317.525 9.711.632 8.104 2.239L2.239 8.104C.632 9.71.525 12.317 2.104 13.896s4.185 1.472 5.792-.135l5.865-5.865c1.607-1.607 1.714-4.213.135-5.792m-1.414 1.414c.772.772.758 2.07-.135 2.964L10.12 8.707 7.293 5.88l2.225-2.226c.894-.893 2.192-.907 2.964-.135M5.879 7.293l2.828 2.828-2.225 2.226c-.894.893-2.192.907-2.964.135s-.758-2.07.135-2.964Z" style="color:#000;fill:#000;fill-rule:evenodd;stroke-linecap:round;stroke-linejoin:round;-inkscape-stroke:none;paint-order:stroke markers fill"/></svg>