<svg xmlns="http://www.w3.org/2000/svg" width="16" height="16"><path d="M7.4 2.034c-4.043 0-6.394 3.513-6.394 3.513L2.391 6.85S4.541 4.034 7.4 4.034c2.055 0 3.698 1.295 4.084 1.974h-.91C9.242 6.008 9 7.262 9 8.043l6-.046.043-6c-1.043 0-2.031.523-2.031 1.667v.93l-.063.063c-.758-1.09-2.916-2.623-5.549-2.623"/><path d="M5.5 8A3.486 3.486 0 0 0 2 11.5C2 13.444 3.556 15 5.5 15S9 13.444 9 11.5 7.444 8 5.5 8M4.115 9.532c.155 0 .303.062.412.171l.955.954.954-.954a.583.583 0 1 1 .824.825l-.953.954.953.954a.583.583 0 1 1-.824.824l-.954-.953-.955.953a.583.583 0 1 1-.824-.824l.954-.954-.954-.954a.583.583 0 0 1 .412-.996" style="opacity:.4;fill:#000;fill-opacity:1;stroke-width:.583334"/></svg>