<?xml version="1.0" encoding="UTF-8"?>
<svg id="svg2" width="16" height="16" version="1.1" xmlns="http://www.w3.org/2000/svg">
 <path id="path1" d="m8.649 2.034c4.043 0 6.394 3.513 6.394 3.513l-1.385 1.303s-2.15-2.816-5.009-2.816c-2.055 0-3.698 1.295-4.084 1.974h0.91c1.332 0 1.574 1.254 1.574 2.035l-6-0.046-0.043-6c1.043 0 2.031 0.523 2.031 1.667v0.93l0.063 0.063c0.758-1.09 2.916-2.623 5.549-2.623"/>
 <path id="path2" d="m10.549 8a3.486 3.486 0 0 1 3.5 3.5c0 1.944-1.556 3.5-3.5 3.5s-3.5-1.556-3.5-3.5 1.556-3.5 3.5-3.5m1.385 1.532c-0.155 0-0.303 0.062-0.412 0.171l-0.955 0.954-0.954-0.954a0.58301 0.58301 0 1 0-0.824 0.825l0.953 0.954-0.953 0.954a0.583 0.583 0 1 0 0.824 0.824l0.954-0.953 0.955 0.953a0.583 0.583 0 1 0 0.824-0.824l-0.954-0.954 0.954-0.954a0.583 0.583 0 0 0-0.412-0.996" fill-rule="evenodd" opacity=".4" stroke-width=".58333"/>
</svg>
