<?xml version="1.0" encoding="UTF-8" standalone="no"?>
<svg
   height="16px"
   viewBox="0 0 16 16"
   width="16px"
   version="1.1"
   id="svg1"
   sodipodi:docname="today-symbolic.svg"
   inkscape:version="1.3 (0e150ed6c4, 2023-07-21)"
   xmlns:inkscape="http://www.inkscape.org/namespaces/inkscape"
   xmlns:sodipodi="http://sodipodi.sourceforge.net/DTD/sodipodi-0.dtd"
   xmlns="http://www.w3.org/2000/svg"
   xmlns:svg="http://www.w3.org/2000/svg">
  <defs
     id="defs1" />
  <sodipodi:namedview
     id="namedview1"
     pagecolor="#ffffff"
     bordercolor="#000000"
     borderopacity="0.25"
     inkscape:showpageshadow="2"
     inkscape:pageopacity="0.0"
     inkscape:pagecheckerboard="0"
     inkscape:deskcolor="#d1d1d1"
     inkscape:zoom="99.625"
     inkscape:cx="7.9698871"
     inkscape:cy="9.3099122"
     inkscape:window-width="1920"
     inkscape:window-height="1011"
     inkscape:window-x="0"
     inkscape:window-y="0"
     inkscape:window-maximized="1"
     inkscape:current-layer="svg1"
     showgrid="true">
    <inkscape:grid
       id="grid1"
       units="px"
       originx="0"
       originy="0"
       spacingx="1"
       spacingy="1"
       empcolor="#0099e5"
       empopacity="0.30196078"
       color="#0099e5"
       opacity="0.14901961"
       empspacing="5"
       dotted="false"
       gridanglex="30"
       gridanglez="30"
       visible="true" />
  </sodipodi:namedview>
  <path
     d="M 3,0 V 1 H 3.042969 C 1.914062,1 1,1.914062 1,3.042969 v 9.875 c 0,1.132812 0.914062,2.042969 2.042969,2.042969 h 9.914062 C 14.085938,14.960938 15,14.050781 15,12.917969 v -9.875 C 15,1.914062 14.085938,1 12.957031,1 H 13 V 0 H 12 V 1 H 4 V 0 Z m 0,4 h 10 v 8.960938 H 3 Z"
     id="path1"
     sodipodi:nodetypes="cccssssssccccccccccccc" />
  <path
     d="m 10.880911,6.0019112 c 0.567795,0.041802 0.827457,0.8018225 0.422383,1.2426346 L 8.0765568,10.786245 c -0.2596625,0.285007 -0.6820463,0.285007 -0.941709,0 L 5.2064219,8.7341869 C 4.5797701,8.0463683 5.5214791,7.0127398 6.1481309,7.7005583 l 1.4575714,1.5352429 2.7558837,-3.024884 c 0.138487,-0.1482043 0.325443,-0.2242063 0.519325,-0.209006 z"
     id="path1-6"
     style="stroke-width:0.928564"
     sodipodi:nodetypes="ccccccccc" />
</svg>
