<?xml version="1.0" encoding="UTF-8" standalone="no"?>
<svg
   height="16px"
   viewBox="0 0 16 16"
   width="16px"
   version="1.1"
   id="svg1"
   sodipodi:docname="treatments-symbolic.svg"
   inkscape:version="1.3 (0e150ed6c4, 2023-07-21)"
   xml:space="preserve"
   xmlns:inkscape="http://www.inkscape.org/namespaces/inkscape"
   xmlns:sodipodi="http://sodipodi.sourceforge.net/DTD/sodipodi-0.dtd"
   xmlns="http://www.w3.org/2000/svg"
   xmlns:svg="http://www.w3.org/2000/svg"><defs
     id="defs1" /><sodipodi:namedview
     id="namedview1"
     pagecolor="#ffffff"
     bordercolor="#000000"
     borderopacity="0.25"
     inkscape:showpageshadow="2"
     inkscape:pageopacity="0.0"
     inkscape:pagecheckerboard="0"
     inkscape:deskcolor="#d1d1d1"
     inkscape:zoom="12.453125"
     inkscape:cx="-8.9134255"
     inkscape:cy="14.494354"
     inkscape:window-width="1920"
     inkscape:window-height="1011"
     inkscape:window-x="0"
     inkscape:window-y="0"
     inkscape:window-maximized="1"
     inkscape:current-layer="svg1"
     showgrid="true"><inkscape:grid
       id="grid1"
       units="px"
       originx="0"
       originy="0"
       spacingx="1"
       spacingy="1"
       empcolor="#0099e5"
       empopacity="0.30196078"
       color="#0099e5"
       opacity="0.14901961"
       empspacing="5"
       dotted="false"
       gridanglex="30"
       gridanglez="30"
       visible="true" /></sodipodi:namedview><path
     style="color:#000000;fill:#000000;fill-rule:evenodd;stroke-linecap:round;stroke-linejoin:round;-inkscape-stroke:none;paint-order:markers stroke fill"
     d="M 4.5,0 C 2.0266071,0 0,2.0266067 0,4.5 0,6.9733933 2.0266071,9 4.5,9 6.9733929,9 9,6.9733933 9,4.5 9,2.0266067 6.9733929,0 4.5,0 Z m 0,2.0058594 C 5.8888274,2.0058594 6.9941406,3.1111711 6.9941406,4.5 6.9941406,5.8888289 5.8888274,6.9941406 4.5,6.9941406 3.1111726,6.9941406 2.0058594,5.8888289 2.0058594,4.5 2.0058594,3.1111711 3.1111726,2.0058594 4.5,2.0058594 Z"
     id="path4" /><rect
     style="fill:#000000;fill-opacity:1;fill-rule:evenodd;stroke:none;stroke-width:3.01251;stroke-linecap:round;stroke-linejoin:round;stroke-dasharray:none;stroke-opacity:1;paint-order:markers stroke fill"
     id="rect4"
     width="3"
     height="1"
     x="2.9999995"
     y="4"
     ry="0.5" /><path
     style="color:#000000;fill:#000000;fill-rule:evenodd;stroke-linecap:round;stroke-linejoin:round;-inkscape-stroke:none;paint-order:markers stroke fill"
     d="m 15.082031,-4.6015625 c -1.65507,0 -3.019531,1.362508 -3.019531,3.0175781 v 6.2617188 c 0,1.6550701 1.364461,3.0195312 3.019531,3.0195312 h 0.117188 c 1.65507,0 3.019531,-1.3644611 3.019531,-3.0195312 v -6.2617188 c 0,-1.6550701 -1.364461,-3.0175781 -3.019531,-3.0175781 z m 0,2.0449219 h 0.117188 c 0.556934,0 0.974609,0.4157219 0.974609,0.9726562 v 6.2617188 c 0,0.5569343 -0.417675,0.9726562 -0.974609,0.9726562 h -0.117188 c -0.556934,0 -0.972656,-0.4157219 -0.972656,-0.9726562 v -6.2617188 c 0,-0.5569343 0.415722,-0.9726562 0.972656,-0.9726562 z"
     id="rect5"
     transform="matrix(0.78990455,0.61322981,-0.61809101,0.78610654,0,0)" /><rect
     style="fill:#000000;fill-opacity:1;fill-rule:evenodd;stroke:none;stroke-width:2.0326;stroke-linecap:round;stroke-linejoin:round;stroke-dasharray:none;stroke-opacity:1;paint-order:markers stroke fill"
     id="rect6"
     width="4.0517678"
     height="1.0196702"
     x="12.80952"
     y="0.61315727"
     ry="0.50983512"
     transform="matrix(0.76721674,0.64138793,-0.61718031,0.78682175,0,0)" /></svg>
