<svg xmlns="http://www.w3.org/2000/svg" xml:space="preserve" width="16" height="16"><path d="M4.5 0A4.515 4.515 0 0 0 0 4.5C0 6.973 2.027 9 4.5 9S9 6.973 9 4.5 6.973 0 4.5 0m0 2.006A2.48 2.48 0 0 1 6.994 4.5 2.48 2.48 0 0 1 4.5 6.994 2.48 2.48 0 0 1 2.006 4.5 2.48 2.48 0 0 1 4.5 2.006" style="color:#000;fill:#000;fill-rule:evenodd;stroke-linecap:round;stroke-linejoin:round;-inkscape-stroke:none;paint-order:markers stroke fill"/><rect width="3" height="1" x="3" y="4" ry=".5" style="fill:#000;fill-opacity:1;fill-rule:evenodd;stroke:none;stroke-width:3.01251;stroke-linecap:round;stroke-linejoin:round;stroke-dasharray:none;stroke-opacity:1;paint-order:markers stroke fill"/><path d="M15.082-4.602a3.034 3.034 0 0 0-3.02 3.018v6.262a3.036 3.036 0 0 0 3.02 3.02h.117a3.036 3.036 0 0 0 3.02-3.02v-6.262a3.034 3.034 0 0 0-3.02-3.018zm0 2.045h.117a.95.95 0 0 1 .975.973v6.262a.95.95 0 0 1-.975.972h-.117a.95.95 0 0 1-.973-.972v-6.262c0-.557.416-.973.973-.973" style="color:#000;fill:#000;fill-rule:evenodd;stroke-linecap:round;stroke-linejoin:round;-inkscape-stroke:none;paint-order:markers stroke fill" transform="matrix(.7899 .61323 -.6181 .7861 0 0)"/><rect width="4.052" height="1.02" x="12.81" y=".613" ry=".51" style="fill:#000;fill-opacity:1;fill-rule:evenodd;stroke:none;stroke-width:2.0326;stroke-linecap:round;stroke-linejoin:round;stroke-dasharray:none;stroke-opacity:1;paint-order:markers stroke fill" transform="matrix(.76722 .64139 -.61718 .78682 0 0)"/></svg>