<?xml version="1.0" encoding="UTF-8"?>
<svg id="svg1" width="16" height="16" version="1.1" xmlns="http://www.w3.org/2000/svg">
 <path id="rect1" d="m6 7h4c0.554 0 1 0.446 1 1s-0.446 1-1 1h-4c-0.554 0-1-0.446-1-1s0.446-1 1-1z" stroke-linecap="square" stroke-width=".505" style="paint-order:stroke markers fill"/>
 <path id="ellipse1" d="m7.9863 0-0.17969 0.0019531a1.0024 1.0024 0 0 0-0.025391 0l-0.17969 0.0078125a1.0024 1.0024 0 0 0-0.025391 0.0019531l-0.17773 0.0097656a1.0024 1.0024 0 0 0-0.025391 0.0019531l-0.17773 0.015625a1.0024 1.0024 0 0 0-0.025391 0.0039063l-0.17578 0.019531a1.0024 1.0024 0 0 0-0.025391 0.0039062l-0.10742 0.015625 0.2793 1.9844 0.095703-0.013672 0.15039-0.017578 0.15039-0.013672 0.1543-0.0097656 0.1543-0.0058594 0.1543-0.0019531 0.1543 0.00195 0.1543 0.00586 0.1543 0.00977 0.15039 0.013672 0.15039 0.017578 0.095703 0.013672 0.2793-1.9844-0.10742-0.015625a1.0024 1.0024 0 0 0-0.025391-0.0039062l-0.17578-0.019531a1.0024 1.0024 0 0 0-0.025391-0.0039062l-0.17773-0.015625a1.0024 1.0024 0 0 0-0.025391-0.0019531l-0.17773-0.0097656a1.0024 1.0024 0 0 0-0.025391-0.0019531l-0.17969-0.0078125a1.0024 1.0024 0 0 0-0.025391 0l-0.17969-0.0019531a1.0024 1.0024 0 0 0-0.027344 0zm-3.3262 0.73242-0.11914 0.056641a1.0024 1.0024 0 0 0-0.023437 0.009766l-0.15234 0.076172a1.0024 1.0024 0 0 0-0.021484 0.011719l-0.14844 0.080078a1.0024 1.0024 0 0 0-0.021484 0.011719l-0.14844 0.082031a1.0024 1.0024 0 0 0-0.021484 0.011719l-0.14453 0.08789a1.0024 1.0024 0 0 0-0.021484 0.011719l-0.14258 0.089844a1.0024 1.0024 0 0 0-0.019531 0.013672l-0.14258 0.09375a1.0024 1.0024 0 0 0-0.019531 0.011719l-0.13867 0.097655a1.0024 1.0024 0 0 0-0.019531 0.013672l-0.13477 0.099609a1.0024 1.0024 0 0 0-0.019531 0.015625l-0.13281 0.10156a1.0024 1.0024 0 0 0-0.019531 0.015625l-0.13086 0.10547a1.0024 1.0024 0 0 0-0.019531 0.015625l-0.12695 0.10938a1.0024 1.0024 0 0 0-0.017578 0.015625l-0.011719 0.0078125 1.3359 1.4961 0.11133-0.09375 0.11133-0.091797 0.11523-0.087891 0.11523-0.085938 0.11914-0.082031 0.12109-0.080078 0.12305-0.076172 0.12305-0.074219 0.12695-0.072266 0.12891-0.068359 0.12891-0.064453 0.10938-0.050781zm6.6816 0-0.85352 1.8145 0.10938 0.050781 0.12891 0.064453 0.12891 0.068359 0.12695 0.072266 0.12305 0.074219 0.12305 0.076172 0.12109 0.080078 0.11914 0.082031 0.11523 0.085937 0.11524 0.087891 0.11133 0.091797 0.11133 0.09375 2e-3 0.00195 1.334-1.4961-0.01172-0.00977a1.0024 1.0024 0 0 0-0.01758-0.015625l-0.12695-0.10938a1.0024 1.0024 0 0 0-0.01953-0.015625l-0.1309-0.10546a1.0024 1.0024 0 0 0-0.01953-0.015625l-0.13281-0.10156a1.0024 1.0024 0 0 0-0.01953-0.015625l-0.13477-0.099609a1.0024 1.0024 0 0 0-0.019531-0.013672l-0.13867-0.097656a1.0024 1.0024 0 0 0-0.01953-0.011719l-0.14258-0.09375a1.0024 1.0024 0 0 0-0.01953-0.013672l-0.14258-0.089844a1.0024 1.0024 0 0 0-0.02148-0.011719l-0.14453-0.087891a1.0024 1.0024 0 0 0-0.02149-0.011719l-0.14844-0.082031a1.0024 1.0024 0 0 0-0.02148-0.011719l-0.14844-0.080077a1.0024 1.0024 0 0 0-0.021484-0.011719l-0.15234-0.076172a1.0024 1.0024 0 0 0-0.02344-0.009766zm-10.072 2.9609-0.0039062 0.0039062a1.0024 1.0024 0 0 0-0.013672 0.021484l-0.087891 0.14258a1.0024 1.0024 0 0 0-0.013672 0.021484l-0.085937 0.14648a1.0024 1.0024 0 0 0-0.011719 0.021484l-0.082031 0.14844a1.0024 1.0024 0 0 0-0.011719 0.019531l-0.078125 0.15234a1.0024 1.0024 0 0 0-0.011719 0.021484l-0.076172 0.15234a1.0024 1.0024 0 0 0-0.009766 0.021484l-0.072265 0.1543a1.0024 1.0024 0 0 0-0.009766 0.023437l-0.068359 0.15625a1.0024 1.0024 0 0 0-0.009766 0.023437l-0.064453 0.1582a1.0024 1.0024 0 0 0-0.007813 0.023437l-0.0625 0.16016a1.0024 1.0024 0 0 0-0.007813 0.023437l-0.056641 0.16211a1.0024 1.0024 0 0 0-0.007813 0.023437l-0.052734 0.16406a1.0024 1.0024 0 0 0-0.007813 0.023437l-0.0332 0.11524 1.9219 0.56836 0.029297-0.10156 0.046875-0.14258 0.048828-0.13867 0.050781-0.13672 0.056641-0.13672 0.058594-0.13477 0.060547-0.13281 0.064453-0.13086 0.068359-0.12891 0.070312-0.12695 0.074219-0.12695 0.072266-0.11719zm13.463 0-1.6777 1.0977 0.07226 0.11719 0.07422 0.12695 0.07031 0.12695 0.06836 0.12891 0.06445 0.13086 0.06055 0.13281 0.05859 0.13477 0.05664 0.13672 0.05078 0.13672 0.04883 0.13867 0.04687 0.14258 0.0293 0.10352 1.9238-0.56836-0.03516-0.11719a1.0024 1.0024 0 0 0-0.0078-0.023437l-0.05274-0.16406a1.0024 1.0024 0 0 0-0.0078-0.023437l-0.05664-0.16211a1.0024 1.0024 0 0 0-0.0078-0.023437l-0.0625-0.16016a1.0024 1.0024 0 0 0-0.0078-0.023437l-0.06445-0.1582a1.0024 1.0024 0 0 0-0.0098-0.023437l-0.06836-0.15625a1.0024 1.0024 0 0 0-0.0098-0.023437l-0.07227-0.1543a1.0024 1.0024 0 0 0-0.0098-0.021484l-0.07617-0.15234a1.0024 1.0024 0 0 0-0.01172-0.021484l-0.078051-0.15235a1.0024 1.0024 0 0 0-0.01172-0.019531l-0.08203-0.14844a1.0024 1.0024 0 0 0-0.01172-0.021484l-0.08594-0.14648a1.0024 1.0024 0 0 0-0.01367-0.021484l-0.087889-0.14258a1.0024 1.0024 0 0 0-0.01367-0.021484zm-14.732 4.334a1.0024 1.0024 0 0 0 0 0.025391l0.0019531 0.18164a1.0024 1.0024 0 0 0 0 0.025391l0.0078125 0.17969a1.0024 1.0024 0 0 0 0.0019531 0.025391l0.0097656 0.17969a1.0024 1.0024 0 0 0 0.0019531 0.025391l0.015625 0.17773a1.0024 1.0024 0 0 0 0.0039063 0.025391l0.019531 0.17578a1.0024 1.0024 0 0 0 0.0039063 0.025391l0.023437 0.17578a1.0024 1.0024 0 0 0 0.0039062 0.025391l0.029297 0.17383a1.0024 1.0024 0 0 0 0.003906 0.023437l0.033203 0.17383a1.0024 1.0024 0 0 0 0.003906 0.023437l0.037109 0.17188a1.0024 1.0024 0 0 0 0.005859 0.023437l0.041016 0.16992a1.0024 1.0024 0 0 0 0.005859 0.02344l0.044922 0.16797a1.0024 1.0024 0 0 0 0.007813 0.02539l0.015625 0.05078 1.9219-0.57031-0.011719-0.037109-0.039062-0.14453-0.035156-0.14648-0.03125-0.14648-0.029297-0.14648-0.023438-0.15039-0.021484-0.15039-0.017578-0.15234-0.013672-0.15234-0.0097656-0.1543-0.0058594-0.1543-0.0019531-0.14453zm13.996 0-2e-3 0.16992-0.0059 0.1543-0.0098 0.1543-0.01367 0.15234-0.01758 0.15234-0.02149 0.15039-0.02344 0.15039-0.0293 0.14648-0.03125 0.14648-0.03516 0.14648-0.03906 0.14453-0.01172 0.039063 1.9219 0.56836 0.01563-0.05078a1.0024 1.0024 0 0 0 0.0078-0.02539l0.04492-0.16797a1.0024 1.0024 0 0 0 0.0059-0.02344l0.04102-0.16992a1.0024 1.0024 0 0 0 0.0059-0.023437l0.03711-0.17188a1.0024 1.0024 0 0 0 0.0039-0.023437l0.0332-0.17383a1.0024 1.0024 0 0 0 0.0039-0.023437l0.0293-0.17383a1.0024 1.0024 0 0 0 0.003977-0.025392l0.02344-0.17578a1.0024 1.0024 0 0 0 0.0039-0.025391l0.01953-0.17578a1.0024 1.0024 0 0 0 0.0039-0.025391l0.01563-0.17773a1.0024 1.0024 0 0 0 2e-3 -0.025391l0.0098-0.17969a1.0024 1.0024 0 0 0 2e-3 -0.025391l0.0078-0.17969a1.0024 1.0024 0 0 0 0-0.025391l0.001844-0.18164zm-11.051 3.2617-1.6777 1.0977 0.091797 0.13672a1.0024 1.0024 0 0 0 0.011719 0.01953l0.097656 0.14062a1.0024 1.0024 0 0 0 0.013672 0.01953l0.097656 0.13672a1.0024 1.0024 0 0 0 0.015625 0.01953l0.10156 0.13281a1.0024 1.0024 0 0 0 0.015625 0.01953l0.10547 0.13086a1.0024 1.0024 0 0 0 0.013672 0.01953l0.10938 0.12891a1.0024 1.0024 0 0 0 0.015625 0.01758l0.11133 0.12695a1.0024 1.0024 0 0 0 0.015625 0.01758l0.11523 0.12305a1.0024 1.0024 0 0 0 0.015625 0.01758l0.11719 0.12109a1.0024 1.0024 0 0 0 0.017578 0.01758l0.11914 0.11718a1.0024 1.0024 0 0 0 0.017578 0.01758l0.12305 0.11328a1.0024 1.0024 0 0 0 0.017578 0.01758l0.11523 0.10156 1.334-1.4961-0.10547-0.09375-0.10547-0.09961-0.10352-0.099609-0.099609-0.10352-0.097656-0.10742-0.095703-0.10742-0.09375-0.11133-0.089844-0.11328-0.087891-0.11523-0.085938-0.11719-0.082031-0.11914zm10.109 0-0.08399 0.12695-0.08203 0.11914-0.08594 0.11719-0.08789 0.11523-0.08984 0.11328-0.09375 0.11133-0.0957 0.10742-0.09766 0.10742-0.09961 0.10352-0.10352 0.09961-0.10547 0.09961-0.10742 0.0957 1.3359 1.4941 0.11523-0.10156a1.0024 1.0024 0 0 0 0.01758-0.01758l0.12305-0.11328a1.0024 1.0024 0 0 0 0.01758-0.01758l0.11914-0.11719a1.0024 1.0024 0 0 0 0.01758-0.01758l0.11719-0.12109a1.0024 1.0024 0 0 0 0.01563-0.01758l0.11524-0.12305a1.0024 1.0024 0 0 0 0.01563-0.01758l0.11133-0.12695a1.0024 1.0024 0 0 0 0.01563-0.01758l0.10938-0.12891a1.0024 1.0024 0 0 0 0.01367-0.01953l0.10547-0.13086a1.0024 1.0024 0 0 0 0.01563-0.01953l0.10156-0.13281a1.0024 1.0024 0 0 0 0.01563-0.01953l0.09766-0.13672a1.0024 1.0024 0 0 0 0.01367-0.01953l0.09766-0.14062a1.0024 1.0024 0 0 0 0.01172-0.01953l0.08984-0.13672zm-7.543 2.2441-0.85156 1.8145 0.033203 0.01563a1.0024 1.0024 0 0 0 0.023437 0.0098l0.15625 0.06836a1.0024 1.0024 0 0 0 0.021484 0.0098l0.1582 0.06641a1.0024 1.0024 0 0 0 0.023437 0.0078l0.16016 0.0625a1.0024 1.0024 0 0 0 0.023437 0.0078l0.16016 0.05664a1.0024 1.0024 0 0 0 0.025391 0.0078l0.16211 0.05469a1.0024 1.0024 0 0 0 0.023437 0.0078l0.16602 0.04883a1.0024 1.0024 0 0 0 0.023437 0.0059l0.16797 0.04687a1.0024 1.0024 0 0 0 0.023437 0.0059l0.16992 0.04102a1.0024 1.0024 0 0 0 0.023437 0.0059l0.16993 0.036957a1.0024 1.0024 0 0 0 0.025391 0.0059l0.17188 0.0332a1.0024 1.0024 0 0 0 0.023437 0.0039l0.17383 0.0293a1.0024 1.0024 0 0 0 0.025391 0.0039l0.066406 0.0078 0.2793-1.9844-0.054687-0.0078-0.14844-0.023466-0.14648-0.029297-0.14453-0.03125-0.14453-0.035156-0.14258-0.039063-0.14062-0.042968-0.14062-0.044922-0.13867-0.048828-0.13672-0.052735-0.13477-0.05664-0.13281-0.058594zm4.9766 0-0.02344 0.0098-0.13281 0.05859-0.13476 0.05664-0.13672 0.05274-0.13867 0.04883-0.14062 0.04492-0.14062 0.04297-0.14258 0.03906-0.14453 0.03516-0.14453 0.03125-0.14648 0.0293-0.14844 0.02344-0.054687 0.0078 0.2793 1.9844 0.066406-0.0078a1.0024 1.0024 0 0 0 0.025391-0.0039l0.17383-0.0293a1.0024 1.0024 0 0 0 0.023437-0.0039l0.17188-0.0332a1.0024 1.0024 0 0 0 0.025394-0.005915l0.16992-0.03711a1.0024 1.0024 0 0 0 0.023437-0.0059l0.16992-0.04102a1.0024 1.0024 0 0 0 0.023438-0.0059l0.16797-0.04687a1.0024 1.0024 0 0 0 0.02344-0.0059l0.16602-0.04883a1.0024 1.0024 0 0 0 0.02344-0.0078l0.16211-0.05469a1.0024 1.0024 0 0 0 0.02539-0.0078l0.16016-0.05664a1.0024 1.0024 0 0 0 0.02344-0.0078l0.16016-0.0625a1.0024 1.0024 0 0 0 0.02344-0.0078l0.1582-0.06641a1.0024 1.0024 0 0 0 0.02148-0.0098l0.15625-0.06836a1.0024 1.0024 0 0 0 0.02344-0.0098l0.0332-0.01563z" fill-rule="evenodd" opacity=".45" stop-color="#000000" stroke-dasharray="2.00461, 2.00461" stroke-linejoin="round" style="paint-order:markers stroke fill"/>
</svg>
