<svg xmlns="http://www.w3.org/2000/svg" width="16" height="16"><path d="M53.938 12.357A41.58 41.58 0 0 0 24.564 24.53a41.575 41.575 0 0 0-.005 58.797l172.644 172.67-172.668 172.64a41.575 41.575 0 0 0-.008 58.798 41.575 41.575 0 0 0 58.797.006l172.672-172.643 172.647 172.672a41.575 41.575 0 0 0 58.789 0 41.575 41.575 0 0 0 .008-58.79L314.797 256.007 487.469 83.363a41.575 41.575 0 0 0 .008-58.797 41.58 41.58 0 0 0-29.424-12.18A41.58 41.58 0 0 0 428.68 24.56L256.006 197.205 83.36 24.53a41.58 41.58 0 0 0-29.424-12.172" style="color:#000;font-style:normal;font-variant:normal;font-weight:400;font-stretch:normal;font-size:medium;line-height:normal;font-family:sans-serif;font-variant-ligatures:normal;font-variant-position:normal;font-variant-caps:normal;font-variant-numeric:normal;font-variant-alternates:normal;font-variant-east-asian:normal;font-feature-settings:normal;font-variation-settings:normal;text-indent:0;text-align:start;text-decoration:none;text-decoration-line:none;text-decoration-style:solid;text-decoration-color:#000;letter-spacing:normal;word-spacing:normal;text-transform:none;writing-mode:lr-tb;direction:ltr;text-orientation:mixed;dominant-baseline:auto;baseline-shift:baseline;text-anchor:start;white-space:normal;shape-padding:0;shape-margin:0;inline-size:0;clip-rule:nonzero;display:inline;overflow:visible;visibility:visible;opacity:1;isolation:auto;mix-blend-mode:normal;color-interpolation:sRGB;color-interpolation-filters:linearRGB;solid-color:#000;solid-opacity:1;vector-effect:none;fill:#bebebe;fill-opacity:1;fill-rule:nonzero;stroke:none;stroke-width:3.77953;stroke-linecap:round;stroke-linejoin:miter;stroke-miterlimit:4;stroke-dasharray:none;stroke-dashoffset:0;stroke-opacity:1;color-rendering:auto;image-rendering:auto;shape-rendering:auto;text-rendering:auto;stop-color:#000;stop-opacity:1" transform="translate(-10.094 -25.645)scale(.00205)"/><ellipse cx="8" cy="8.04" rx="6.998" ry="7.038" style="opacity:.4;fill:none;fill-rule:evenodd;stroke:#000;stroke-width:2.00461;stroke-linecap:butt;stroke-linejoin:round;stroke-dasharray:2.00461,2.00461;stroke-dashoffset:0;stroke-opacity:1;paint-order:markers stroke fill"/><rect width="6" height="2" x="5" y="7" ry="1" style="fill:#000;fill-opacity:1;stroke-width:.505;stroke-linecap:square;paint-order:stroke markers fill"/></svg>