<?xml version="1.0" encoding="UTF-8" standalone="no"?>
<svg
   height="16px"
   viewBox="0 0 16 16"
   width="16px"
   version="1.1"
   id="svg2"
   sodipodi:docname="unselect-meds-symbolic.svg"
   inkscape:version="1.3.2 (091e20ef0f, 2023-11-25)"
   xmlns:inkscape="http://www.inkscape.org/namespaces/inkscape"
   xmlns:sodipodi="http://sodipodi.sourceforge.net/DTD/sodipodi-0.dtd"
   xmlns="http://www.w3.org/2000/svg"
   xmlns:svg="http://www.w3.org/2000/svg">
  <defs
     id="defs2" />
  <sodipodi:namedview
     id="namedview2"
     pagecolor="#ffffff"
     bordercolor="#000000"
     borderopacity="0.25"
     inkscape:showpageshadow="2"
     inkscape:pageopacity="0.0"
     inkscape:pagecheckerboard="0"
     inkscape:deskcolor="#d1d1d1"
     inkscape:zoom="11.21875"
     inkscape:cx="-17.78273"
     inkscape:cy="18.183844"
     inkscape:window-width="1920"
     inkscape:window-height="1011"
     inkscape:window-x="0"
     inkscape:window-y="0"
     inkscape:window-maximized="1"
     inkscape:current-layer="svg2" />
  <g
     id="layer1"
     transform="matrix(0.00775611,0,0,0.00775611,-11.498099,-27.13843)">
    <path
       id="path1422"
       style="color:#000000;font-style:normal;font-variant:normal;font-weight:normal;font-stretch:normal;font-size:medium;line-height:normal;font-family:sans-serif;font-variant-ligatures:normal;font-variant-position:normal;font-variant-caps:normal;font-variant-numeric:normal;font-variant-alternates:normal;font-variant-east-asian:normal;font-feature-settings:normal;font-variation-settings:normal;text-indent:0;text-align:start;text-decoration:none;text-decoration-line:none;text-decoration-style:solid;text-decoration-color:#000000;letter-spacing:normal;word-spacing:normal;text-transform:none;writing-mode:lr-tb;direction:ltr;text-orientation:mixed;dominant-baseline:auto;baseline-shift:baseline;text-anchor:start;white-space:normal;shape-padding:0;shape-margin:0;inline-size:0;clip-rule:nonzero;display:inline;overflow:visible;visibility:visible;opacity:1;isolation:auto;mix-blend-mode:normal;color-interpolation:sRGB;color-interpolation-filters:linearRGB;solid-color:#000000;solid-opacity:1;vector-effect:none;fill:#bebebe;fill-opacity:1;fill-rule:nonzero;stroke:none;stroke-width:3.77953;stroke-linecap:round;stroke-linejoin:miter;stroke-miterlimit:4;stroke-dasharray:none;stroke-dashoffset:0;stroke-opacity:1;color-rendering:auto;image-rendering:auto;shape-rendering:auto;text-rendering:auto;enable-background:accumulate;stop-color:#000000;stop-opacity:1"
       d="m 53.9375,12.357422 a 41.574803,41.574803 0 0 0 -29.373047,12.171875 41.574803,41.574803 0 0 0 -0.0059,58.796875 L 197.20312,255.99609 24.535156,428.63672 a 41.574803,41.574803 0 0 0 -0.0078,58.79687 41.574803,41.574803 0 0 0 58.796875,0.006 L 255.99609,314.79688 428.64258,487.46875 a 41.574803,41.574803 0 0 0 58.78906,0 41.574803,41.574803 0 0 0 0.008,-58.78906 L 314.79688,256.00586 487.46875,83.363281 a 41.574803,41.574803 0 0 0 0.008,-58.796875 41.574803,41.574803 0 0 0 -29.42383,-12.179687 41.574803,41.574803 0 0 0 -29.37304,12.171875 L 256.00586,197.20508 83.361328,24.529297 A 41.574803,41.574803 0 0 0 53.9375,12.357422 Z"
       transform="matrix(0.26458333,0,0,0.26458333,181.03171,192.50998)" />
  </g>
  <ellipse
     style="opacity:0.4;fill:none;fill-rule:evenodd;stroke:#000000;stroke-width:2.00461;stroke-linecap:butt;stroke-linejoin:round;stroke-dasharray:2.00461, 2.00461;stroke-dashoffset:0;stroke-opacity:1;paint-order:markers stroke fill"
     id="path1-0"
     cx="8.0000038"
     cy="8.0403461"
     rx="6.9976964"
     ry="7.0380383" />
  <rect
     style="fill:#000000;fill-opacity:1;stroke-width:0.505;stroke-linecap:square;paint-order:stroke markers fill"
     id="rect12"
     width="6"
     height="2"
     x="5"
     y="7"
     ry="1" />
</svg>
