<?xml version="1.0" encoding="UTF-8"?>
<svg height="128px" viewBox="0 0 128 128" width="128px" xmlns="http://www.w3.org/2000/svg" xmlns:xlink="http://www.w3.org/1999/xlink">
    <radialGradient id="a" cx="89.045868" cy="229.559647" gradientTransform="matrix(-0.852641 0.00000012 -0.00000011 -0.550845 163.924149 158.451752)" gradientUnits="userSpaceOnUse" r="58.117779">
        <stop offset="0" stop-color="#7ae7a5"/>
        <stop offset="1" stop-color="#2ec27e"/>
    </radialGradient>
    <linearGradient id="b" gradientUnits="userSpaceOnUse" x1="64.000977" x2="64.000977" y1="27.767578" y2="147.609375">
        <stop offset="0.477476" stop-color="#2ec27e"/>
        <stop offset="1" stop-color="#25935c"/>
    </linearGradient>
    <linearGradient id="c" gradientTransform="matrix(0.578321 0 0 0.355198 47.259621 -32.913345)" gradientUnits="userSpaceOnUse" x1="28.946289" x2="28.946289" y1="248.284195" y2="190.647629">
        <stop offset="0.465141" stop-color="#d4ffdd"/>
        <stop offset="1" stop-color="#ffffff"/>
    </linearGradient>
    <path d="m 46.007812 13.050781 c -33.910156 1.839844 -43.835937 34.464844 -41.742187 52.417969 c 3.007813 25.789062 26.703125 51.265625 59.734375 51.53125 c 33.03125 -0.265625 56.726562 -25.742188 59.734375 -51.53125 c 2.09375 -17.953125 -7.832031 -50.578125 -41.742187 -52.417969 c -4.8125 -0.261719 -12.144532 0.53125 -17.992188 1.40625 c -5.847656 -0.875 -13.179688 -1.667969 -17.992188 -1.40625 z m 0 0" fill="#259d67"/>
    <path d="m 64 76 c -1.109375 0 -2 0.890625 -2 2 v 12 c 0 1.109375 0.890625 2 2 2 s 2 -0.890625 2 -2 v -12 c 0 -1.109375 -0.890625 -2 -2 -2 z m 0 0" fill="#176c46" fill-rule="evenodd"/>
    <path d="m 46.007812 11.050781 c -33.910156 1.839844 -43.835937 34.464844 -41.742187 52.417969 c 3.007813 25.789062 26.703125 51.265625 59.734375 51.53125 c 33.03125 -0.265625 56.726562 -25.742188 59.734375 -51.53125 c 2.09375 -17.953125 -7.832031 -50.578125 -41.742187 -52.417969 c -4.8125 -0.261719 -11.976563 1.40625 -17.992188 1.40625 s -13.179688 -1.667969 -17.992188 -1.40625 z m 0 0" fill="url(#a)"/>
    <path d="m 123.921875 60.375 c -5.300781 1.34375 -32.546875 7.894531 -59.921875 7.894531 c -32.421875 0 -55.148438 -6.378906 -59.921875 -7.835937 c 0.042969 1.035156 0.074219 2.078125 0.1875 3.035156 c 3.003906 25.792969 26.703125 51.265625 59.734375 51.53125 c 33.03125 -0.265625 56.730469 -25.738281 59.734375 -51.53125 c 0.113281 -0.972656 0.148437 -2.039062 0.1875 -3.09375 z m 0 0" fill="url(#b)"/>
    <path d="m 123.886719 55.355469 c -5.179688 1.480469 -29.175781 7.828125 -59.886719 7.828125 c -33.632812 0 -54.9375 -6.164063 -59.890625 -7.757813 c -0.136719 2.109375 -0.144531 4.132813 -0.023437 6.027344 c 4.832031 1.472656 27.554687 7.828125 59.914062 7.828125 c 27.320312 0 54.535156 -6.523438 59.917969 -7.886719 c 0.117187 -1.898437 0.109375 -3.925781 -0.03125 -6.039062 z m 0 0" fill="#5cd299"/>
    <path d="m 123.710938 53.371094 c -5.519532 1.566406 -29.328126 7.777344 -59.710938 7.777344 c -33.261719 0 -54.46875 -6.027344 -59.71875 -7.703126 c -0.21875 2.0625 -0.304688 4.054688 -0.273438 5.949219 c 4.652344 1.425781 27.449219 7.855469 59.992188 7.855469 c 27.453125 0 54.804688 -6.589844 59.996094 -7.90625 c 0.027344 -1.898438 -0.0625 -3.90625 -0.285156 -5.972656 z m 0 0" fill="#176c46"/>
    <path d="m 123.808594 54.363281 c -5.335938 1.519531 -29.246094 7.804688 -59.808594 7.804688 c -33.464844 0 -54.726562 -6.105469 -59.8125 -7.738281 c -0.179688 2.085937 -0.226562 4.097656 -0.15625 5.988281 c 4.71875 1.445312 27.492188 7.851562 59.96875 7.851562 c 27.40625 0 54.710938 -6.570312 59.96875 -7.902343 c 0.070312 -1.898438 0.023438 -3.914063 -0.160156 -6.003907 z m 0 0" fill="#20925d"/>
    <g fill-rule="evenodd">
        <path d="m 14 70 c -1.109375 0 -2 0.890625 -2 2 v 3 c 0 1.109375 0.890625 2 2 2 s 2 -0.890625 2 -2 v -3 c 0 -1.109375 -0.890625 -2 -2 -2 z m 100 0 c -1.109375 0 -2 0.890625 -2 2 v 3 c 0 1.109375 0.890625 2 2 2 s 2 -0.890625 2 -2 v -3 c 0 -1.109375 -0.890625 -2 -2 -2 z m -90 2 c -1.109375 0 -2 0.890625 -2 2 v 9 c 0 1.109375 0.890625 2 2 2 s 2 -0.890625 2 -2 v -9 c 0 -1.109375 -0.890625 -2 -2 -2 z m 80 0 c -1.109375 0 -2 0.890625 -2 2 v 9 c 0 1.109375 0.890625 2 2 2 s 2 -0.890625 2 -2 v -9 c 0 -1.109375 -0.890625 -2 -2 -2 z m -70 2 c -1.109375 0 -2 0.890625 -2 2 v 4 c 0 1.109375 0.890625 2 2 2 s 2 -0.890625 2 -2 v -4 c 0 -1.109375 -0.890625 -2 -2 -2 z m 60 0 c -1.109375 0 -2 0.890625 -2 2 v 4 c 0 1.109375 0.890625 2 2 2 s 2 -0.890625 2 -2 v -4 c 0 -1.109375 -0.890625 -2 -2 -2 z m -50 1 c -1.109375 0 -2 0.890625 -2 2 v 10 c 0 1.109375 0.890625 2 2 2 s 2 -0.890625 2 -2 v -10 c 0 -1.109375 -0.890625 -2 -2 -2 z m 40 0 c -1.109375 0 -2 0.890625 -2 2 v 10 c 0 1.109375 0.890625 2 2 2 s 2 -0.890625 2 -2 v -10 c 0 -1.109375 -0.890625 -2 -2 -2 z m -30 1 c -1.109375 0 -2 0.890625 -2 2 v 5 c 0 1.109375 0.890625 2 2 2 s 2 -0.890625 2 -2 v -5 c 0 -1.109375 -0.890625 -2 -2 -2 z m 10 0 c -1.109375 0 -2 0.890625 -2 2 v 12 c 0 1.109375 0.890625 2 2 2 s 2 -0.890625 2 -2 v -12 c 0 -1.109375 -0.890625 -2 -2 -2 z m 10 0 c -1.109375 0 -2 0.890625 -2 2 v 5 c 0 1.109375 0.890625 2 2 2 s 2 -0.890625 2 -2 v -5 c 0 -1.109375 -0.890625 -2 -2 -2 z m 0 0" fill="#219760"/>
        <path d="m 64 54.6875 l -14.527344 -15.457031 h 29.054688 z m 0 0" fill="#219760"/>
        <path d="m 49.472656 37.917969 c -0.765625 0 -1.46875 0.25 -1.851562 0.65625 c -0.382813 0.40625 -0.382813 0.910156 0 1.316406 l 14.527344 15.453125 c 0.382812 0.40625 1.089843 0.65625 1.851562 0.65625 c 0.765625 0 1.46875 -0.25 1.851562 -0.65625 l 14.527344 -15.453125 c 0.382813 -0.40625 0.382813 -0.910156 0 -1.316406 c -0.382812 -0.40625 -1.085937 -0.65625 -1.851562 -0.65625 z m 3.707032 2.628906 h 21.644531 l -10.824219 11.511719 z m 0 0" fill="#219760"/>
        <path d="m 47.335938 37.210938 v 2.226562 h 33.332031 v -2.226562 z m 0 0" fill="#229963"/>
        <path d="m 64 52.769531 l -14.527344 -15.457031 h 29.054688 z m 0 0" fill="url(#c)"/>
        <path d="m 49.472656 36 c -0.765625 0 -1.46875 0.25 -1.851562 0.65625 c -0.382813 0.40625 -0.382813 0.90625 0 1.3125 l 14.527344 15.457031 c 0.382812 0.40625 1.085937 0.65625 1.851562 0.65625 s 1.46875 -0.25 1.851562 -0.65625 l 14.527344 -15.457031 c 0.382813 -0.40625 0.382813 -0.90625 0 -1.3125 c -0.382812 -0.40625 -1.085937 -0.65625 -1.851562 -0.65625 z m 3.703125 2.628906 h 21.648438 l -10.824219 11.511719 z m 0 0" fill="url(#c)"/>
        <path d="m 14 69 c -1.109375 0 -2 0.890625 -2 2 v 3 c 0 1.109375 0.890625 2 2 2 s 2 -0.890625 2 -2 v -3 c 0 -1.109375 -0.890625 -2 -2 -2 z m 100 0 c -1.109375 0 -2 0.890625 -2 2 v 3 c 0 1.109375 0.890625 2 2 2 s 2 -0.890625 2 -2 v -3 c 0 -1.109375 -0.890625 -2 -2 -2 z m -90 2 c -1.109375 0 -2 0.890625 -2 2 v 9 c 0 1.109375 0.890625 2 2 2 s 2 -0.890625 2 -2 v -9 c 0 -1.109375 -0.890625 -2 -2 -2 z m 80 0 c -1.109375 0 -2 0.890625 -2 2 v 9 c 0 1.109375 0.890625 2 2 2 s 2 -0.890625 2 -2 v -9 c 0 -1.109375 -0.890625 -2 -2 -2 z m -70 2 c -1.109375 0 -2 0.890625 -2 2 v 4 c 0 1.109375 0.890625 2 2 2 s 2 -0.890625 2 -2 v -4 c 0 -1.109375 -0.890625 -2 -2 -2 z m 60 0 c -1.109375 0 -2 0.890625 -2 2 v 4 c 0 1.109375 0.890625 2 2 2 s 2 -0.890625 2 -2 v -4 c 0 -1.109375 -0.890625 -2 -2 -2 z m -50 1 c -1.109375 0 -2 0.890625 -2 2 v 10 c 0 1.109375 0.890625 2 2 2 s 2 -0.890625 2 -2 v -10 c 0 -1.109375 -0.890625 -2 -2 -2 z m 40 0 c -1.109375 0 -2 0.890625 -2 2 v 10 c 0 1.109375 0.890625 2 2 2 s 2 -0.890625 2 -2 v -10 c 0 -1.109375 -0.890625 -2 -2 -2 z m -30 1 c -1.109375 0 -2 0.890625 -2 2 v 5 c 0 1.109375 0.890625 2 2 2 s 2 -0.890625 2 -2 v -5 c 0 -1.109375 -0.890625 -2 -2 -2 z m 10 0 c -1.109375 0 -2 0.890625 -2 2 v 12 c 0 1.109375 0.890625 2 2 2 s 2 -0.890625 2 -2 v -12 c 0 -1.109375 -0.890625 -2 -2 -2 z m 10 0 c -1.109375 0 -2 0.890625 -2 2 v 5 c 0 1.109375 0.890625 2 2 2 s 2 -0.890625 2 -2 v -5 c 0 -1.109375 -0.890625 -2 -2 -2 z m 0 0" fill="#e5ffeb"/>
    </g>
</svg>
