<?xml version="1.0" encoding="UTF-8"?>
<svg height="16px" viewBox="0 0 16 16" width="16px" xmlns="http://www.w3.org/2000/svg">
    <g fill-rule="evenodd">
        <path d="m 2.347656 0 c -1.300781 0 -2.347656 1.046875 -2.347656 2.351562 v 11.296876 c 0 1.304687 1.046875 2.351562 2.347656 2.351562 h 11.300782 c 1.304687 0 2.351562 -1.046875 2.351562 -2.351562 v -11.296876 c 0 -1.304687 -1.046875 -2.351562 -2.351562 -2.351562 z m 0.6875 2 h 9.925782 c 0.578124 0 1.039062 0.460938 1.039062 1.039062 v 9.921876 c 0 0.574218 -0.460938 1.039062 -1.039062 1.039062 h -9.925782 c -0.574218 0 -1.035156 -0.464844 -1.035156 -1.039062 v -9.921876 c 0 -0.578124 0.460938 -1.039062 1.035156 -1.039062 z m 0 0"/>
        <path d="m 7 5 c 0 1.105469 -0.894531 2 -2 2 s -2 -0.894531 -2 -2 s 0.894531 -2 2 -2 s 2 0.894531 2 2 z m 0 0"/>
        <path d="m 13 5 c 0 1.105469 -0.894531 2 -2 2 s -2 -0.894531 -2 -2 s 0.894531 -2 2 -2 s 2 0.894531 2 2 z m 0 0"/>
        <path d="m 13 11 c 0 1.105469 -0.894531 2 -2 2 s -2 -0.894531 -2 -2 s 0.894531 -2 2 -2 s 2 0.894531 2 2 z m 0 0"/>
        <path d="m 7 11 c 0 1.105469 -0.894531 2 -2 2 s -2 -0.894531 -2 -2 s 0.894531 -2 2 -2 s 2 0.894531 2 2 z m 0 0"/>
    </g>
</svg>
