<?xml version="1.0" encoding="UTF-8"?>
<svg height="16px" viewBox="0 0 16 16" width="16px" xmlns="http://www.w3.org/2000/svg">
    <path d="m 11.910156 13.800781 c 2.09375 -1.667969 3.28125 -4.574219 3.0625 -7.496093 c -0.191406 -2.574219 -1.679687 -4.90625 -3.730468 -5.832032 c -0.953126 -0.4296872 -1.761719 -0.5429685 -3.113282 -0.4335935 c -0.449218 0.0390625 -1.402344 0.3710935 -2.019531 0.7109375 c -0.554687 0.304688 -0.570313 0.320312 -0.4375 0.429688 c 1.019531 0.824218 1.589844 1.519531 2.085937 2.523437 c 0.585938 1.195313 0.847657 2.464844 0.800782 3.886719 c -0.050782 1.527344 0.1875 2.730468 0.78125 3.90625 c 0.410156 0.828125 0.832031 1.390625 1.472656 1.984375 c 0.683594 0.628906 0.699219 0.636719 1.097656 0.320312 z m 0 0"/>
    <path d="m 4.109375 2.199219 c -2.105469 1.667969 -3.300781 4.574219 -3.082031 7.496093 c 0.191406 2.574219 1.691406 4.90625 3.753906 5.832032 c 0.957031 0.429687 1.773438 0.542968 3.132812 0.433594 c 0.453126 -0.039063 1.410157 -0.371094 2.03125 -0.710938 c 0.558594 -0.304688 0.574219 -0.320312 0.4375 -0.429688 c -1.019531 -0.824218 -1.597656 -1.519531 -2.09375 -2.523437 c -0.589843 -1.195313 -0.855468 -2.464844 -0.808593 -3.886719 c 0.050781 -1.527344 -0.191407 -2.730468 -0.785157 -3.90625 c -0.414062 -0.828125 -0.835937 -1.390625 -1.480468 -1.984375 c -0.6875 -0.628906 -0.707032 -0.636719 -1.105469 -0.320312 z m 0 0"/>
</svg>
