<svg xmlns="http://www.w3.org/2000/svg" width="16" height="16"><filter id="a" width="100%" height="100%" x="0%" y="0%"><feColorMatrix color-interpolation-filters="sRGB" values="0 0 0 0 1 0 0 0 0 1 0 0 0 0 1 0 0 0 1 0"/></filter><mask id="b"><g filter="url(#a)"><path fill-opacity=".24" d="M-1.6-1.6h19.2v19.2H-1.6z"/></g></mask><clipPath id="c"><path d="M0 0h192v152H0z"/></clipPath><g mask="url(#b)"><g clip-path="url(#c)" transform="translate(-168 -16)"><path fill="#fff" d="M29.496 24 16 37.496v1.414L30.91 24zm4.242 0L16 41.738v1.414L35.156 24zm4.246 0L16 45.98v1.415L39.395 24zm4.239 0L16 50.227v1.41L43.64 24zm4.246 0L16 54.469v1.414L47.879 24zm4.238 0L16 58.707v1.418L52.125 24zm4.246 0L16 62.95v1.413L56.363 24zm4.238 0L16 67.195v1.414L60.61 24zm4.246 0L16 71.438v1.414L64.848 24zm4.243 0L16 75.68v1.414L69.094 24zm4.242 0L16 79.922v1.414L73.34 24zm4.246 0L16 84.164v1.418L77.578 24zm4.238 0L16 88.406v1.418L81.824 24zm4.246 0L16 92.648v1.415L86.063 24zm4.239 0L16 96.895v1.41L90.309 24zm4.246 0L16 101.137v1.414L94.547 24zm4.238 0L16 105.379v1.414L98.793 24zm4.246 0L16 109.621v1.414L103.035 24zm4.242 0L16 113.863v1.414L107.281 24zm4.242 0L16 118.105v1.415L111.52 24zm4.247 0L16 122.352v.683c0 .235.02.461.035.695L115.762 24zm-87.7.016q-.801.022-1.574.156l-8.906 8.906q-.133.775-.156 1.57zm91.836.09L16.453 126.14q.153.538.363 1.046l102.86-102.855q-.584-.143-1.188-.227m3.274.968L17.789 129.043q.277.428.594.82L122.68 25.57c-.297-.18-.606-.343-.918-.496m2.55 1.692L19.77 131.305q.379.333.789.625L125.03 27.46q-.347-.361-.719-.694m-104.945.293q-.157.151-.308.308zM126.27 29.05 22.344 132.973q.492.228 1.008.41L126.785 29.949q-.24-.464-.515-.898m1.312 2.93L25.648 133.913c.434.05.872.086 1.317.086h.012L127.836 33.137c-.066-.39-.148-.778-.254-1.157m.418 3.824L29.805 134h1.414L128 37.219zm0 4.246L34.047 134h1.414L128 41.46zm0 4.242L38.29 134h1.413L128 45.707zm0 4.238L42.531 134h1.418L128 49.95zm0 4.242L46.777 134h1.41L128 54.188zm0 4.247L51.016 134h1.418L128 58.43zm0 4.242L55.262 134h1.41L128 62.676zm0 4.238L59.504 134h1.414L128 66.918zm0 4.242L63.746 134h1.414L128 71.156zm0 4.246L67.988 134h1.414L128 75.406zm0 4.242L72.23 134h1.415L128 79.645zm0 4.247L76.473 134h1.418L128 83.887zm0 4.242L80.719 134h1.41L128 88.133zm0 4.238L84.957 134h1.418L128 92.375zm0 4.242L89.203 134h1.41L128 96.613zm0 4.246L93.441 134h1.418L128 100.855zm0 4.243L97.688 134h1.414L128 105.102zm0 4.242L101.93 134h1.414L128 109.344zm0 4.246L106.172 134h1.414L128 113.586zm0 4.242L110.414 134h1.414L128 117.832zm0 4.238L114.656 134h1.418L128 122.074zm-.2 4.446-8.698 8.699a11 11 0 0 0 1.992-.582l6.125-6.125q.382-.956.582-1.992m0 0"/></g></g><path fill-rule="evenodd" d="M2.348 0A2.343 2.343 0 0 0 0 2.352v11.296A2.343 2.343 0 0 0 2.348 16h11.3A2.344 2.344 0 0 0 16 13.648V2.352A2.344 2.344 0 0 0 13.648 0zm.687 2h9.926C13.539 2 14 2.46 14 3.04v9.92c0 .575-.46 1.04-1.04 1.04H3.036A1.035 1.035 0 0 1 2 12.96V3.04C2 2.46 2.46 2 3.035 2m0 0"/><path d="M9.414 6.586a1 1 0 0 1 0 1.414L8 9.414A1 1 0 1 1 6.586 8L8 6.586a1 1 0 0 1 1.414 0m0 0"/><path d="M8 3a5 5 0 1 0 0 10A5 5 0 0 0 8 3m0 2a3 3 0 1 1-.002 6.002A3 3 0 0 1 8 5m0 0"/></svg>