<?xml version="1.0" encoding="UTF-8"?>
<svg height="128px" viewBox="0 0 128 128" width="128px" xmlns="http://www.w3.org/2000/svg" xmlns:xlink="http://www.w3.org/1999/xlink">
    <linearGradient id="a" gradientUnits="userSpaceOnUse" x1="8.99999056103" x2="118.99995626937" y1="62.99990972151" y2="62.99990972151">
        <stop offset="0" stop-color="#a6b0cc"/>
        <stop offset="0.5" stop-color="#d7dce1"/>
        <stop offset="1" stop-color="#a6b0cc"/>
    </linearGradient>
    <linearGradient id="b" gradientUnits="userSpaceOnUse">
        <stop offset="0" stop-color="#a1a5c1"/>
        <stop offset="0.5" stop-color="#6378ff" stop-opacity="0.486275"/>
        <stop offset="1" stop-color="#a1a5c1"/>
    </linearGradient>
    <linearGradient id="c" x1="19" x2="59.5" xlink:href="#b" y1="37.25" y2="37.25"/>
    <linearGradient id="d" x1="68" x2="108.5" xlink:href="#b" y1="37.249985" y2="37.249985"/>
    <linearGradient id="e" x1="19" x2="59.5" xlink:href="#b" y1="87.250031" y2="87.250031"/>
    <linearGradient id="f" x1="68" x2="108.5" xlink:href="#b" y1="87.250031" y2="87.250031"/>
    <g fill-rule="evenodd">
        <path d="m 19.769531 10 h 88.460938 c 5.949219 0 10.769531 4.820312 10.769531 10.769531 v 88.460938 c 0 5.949219 -4.820312 10.769531 -10.769531 10.769531 h -88.460938 c -5.949219 0 -10.769531 -4.820312 -10.769531 -10.769531 v -88.460938 c 0 -5.949219 4.820312 -10.769531 10.769531 -10.769531 z m 0 0" fill="#8888be"/>
        <path d="m 19.769531 8 h 88.460938 c 5.949219 0 10.769531 4.820312 10.769531 10.769531 v 88.460938 c 0 5.949219 -4.820312 10.769531 -10.769531 10.769531 h -88.460938 c -5.949219 0 -10.769531 -4.820312 -10.769531 -10.769531 v -88.460938 c 0 -5.949219 4.820312 -10.769531 10.769531 -10.769531 z m 0 0" fill="url(#a)"/>
        <path d="m 59.5 37.25 c 0 11.183594 -9.066406 20.25 -20.25 20.25 s -20.25 -9.066406 -20.25 -20.25 s 9.066406 -20.25 20.25 -20.25 s 20.25 9.066406 20.25 20.25 z m 0 0" fill="url(#c)"/>
        <path d="m 108.5 37.25 c 0 11.183594 -9.066406 20.25 -20.25 20.25 s -20.25 -9.066406 -20.25 -20.25 s 9.066406 -20.25 20.25 -20.25 s 20.25 9.066406 20.25 20.25 z m 0 0" fill="url(#d)"/>
        <path d="m 59.5 87.25 c 0 11.183594 -9.066406 20.25 -20.25 20.25 s -20.25 -9.066406 -20.25 -20.25 s 9.066406 -20.25 20.25 -20.25 s 20.25 9.066406 20.25 20.25 z m 0 0" fill="url(#e)"/>
        <path d="m 108.5 87.25 c 0 11.183594 -9.066406 20.25 -20.25 20.25 s -20.25 -9.066406 -20.25 -20.25 s 9.066406 -20.25 20.25 -20.25 s 20.25 9.066406 20.25 20.25 z m 0 0" fill="url(#f)"/>
        <g fill="#e0eaff">
            <path d="m 106.292969 85 c 0 9.941406 -8.058594 18 -18 18 c -9.941407 0 -18 -8.058594 -18 -18 s 8.058593 -18 18 -18 c 9.941406 0 18 8.058594 18 18 z m 0 0"/>
            <path d="m 57.292969 85 c 0 9.941406 -8.058594 18 -18 18 c -9.941407 0 -18 -8.058594 -18 -18 s 8.058593 -18 18 -18 c 9.941406 0 18 8.058594 18 18 z m 0 0"/>
            <path d="m 106.292969 35 c 0 9.941406 -8.058594 18 -18 18 c -9.941407 0 -18 -8.058594 -18 -18 s 8.058593 -18 18 -18 c 9.941406 0 18 8.058594 18 18 z m 0 0"/>
            <path d="m 57.292969 35 c 0 9.941406 -8.058594 18 -18 18 c -9.941407 0 -18 -8.058594 -18 -18 s 8.058593 -18 18 -18 c 9.941406 0 18 8.058594 18 18 z m 0 0"/>
        </g>
        <path d="m 78.628906 43.25 l 17.910156 -17.914062 c 0.132813 -0.128907 0.34375 -0.128907 0.472657 0 l 0.945312 0.941406 c 0.128907 0.132812 0.128907 0.34375 0 0.472656 l -17.914062 17.914062 c -0.132813 0.128907 -0.34375 0.128907 -0.472657 0 l -0.941406 -0.941406 c -0.132812 -0.132812 -0.132812 -0.34375 0 -0.472656 z m 0 0" fill="#9199d1"/>
        <path d="m 29.628906 93.25 l 17.910156 -17.914062 c 0.132813 -0.128907 0.34375 -0.128907 0.472657 0 l 0.945312 0.941406 c 0.128907 0.132812 0.128907 0.34375 0 0.472656 l -17.914062 17.914062 c -0.132813 0.128907 -0.34375 0.128907 -0.472657 0 l -0.941406 -0.941406 c -0.132812 -0.132812 -0.132812 -0.34375 0 -0.472656 z m 0 0" fill="#9199d1"/>
        <path d="m 78.628906 93.25 l 17.910156 -17.914062 c 0.132813 -0.128907 0.34375 -0.128907 0.472657 0 l 0.945312 0.941406 c 0.128907 0.132812 0.128907 0.34375 0 0.472656 l -17.914062 17.914062 c -0.132813 0.128907 -0.34375 0.128907 -0.472657 0 l -0.941406 -0.941406 c -0.132812 -0.132812 -0.132812 -0.34375 0 -0.472656 z m 0 0" fill="#9199d1"/>
        <path d="m 29.628906 43.25 l 17.910156 -17.914062 c 0.132813 -0.128907 0.34375 -0.128907 0.472657 0 l 0.945312 0.941406 c 0.128907 0.132812 0.128907 0.34375 0 0.472656 l -17.914062 17.914062 c -0.132813 0.128907 -0.34375 0.128907 -0.472657 0 l -0.941406 -0.941406 c -0.132812 -0.132812 -0.132812 -0.34375 0 -0.472656 z m 0 0" fill="#9199d1"/>
    </g>
</svg>
