<?xml version="1.0" encoding="UTF-8"?>
<svg height="128px" viewBox="0 0 128 128" width="128px" xmlns="http://www.w3.org/2000/svg" xmlns:xlink="http://www.w3.org/1999/xlink">
    <linearGradient id="a" gradientTransform="matrix(1.166666 0 0 1.145833 -10.453059 -207.801064)" gradientUnits="userSpaceOnUse" x1="15.816913" x2="111.81694" y1="236.335556" y2="236.335556">
        <stop offset="0" stop-color="#a4aecb"/>
        <stop offset="0.5" stop-color="#d3d9de"/>
        <stop offset="1" stop-color="#a4aecb"/>
    </linearGradient>
    <linearGradient id="b" gradientUnits="userSpaceOnUse">
        <stop offset="0" stop-color="#a1a5c1"/>
        <stop offset="0.5" stop-color="#6378ff" stop-opacity="0.486275"/>
        <stop offset="1" stop-color="#a1a5c1"/>
    </linearGradient>
    <linearGradient id="c" x1="18.999994" x2="58.999981" xlink:href="#b" y1="36.9999325" y2="36.9999325"/>
    <linearGradient id="d" x1="68.999996" x2="108.999983" xlink:href="#b" y1="36.9999325" y2="36.9999325"/>
    <linearGradient id="e" x1="18.999994" x2="58.999981" xlink:href="#b" y1="88.9999315" y2="88.9999315"/>
    <linearGradient id="f" x1="68.999996" x2="108.999983" xlink:href="#b" y1="88.9999315" y2="88.9999315"/>
    <g fill-rule="evenodd">
        <path d="m 18.769531 10 h 90.460938 c 5.949219 0 10.769531 4.820312 10.769531 10.769531 v 88.460938 c 0 5.949219 -4.820312 10.769531 -10.769531 10.769531 h -90.460938 c -5.949219 0 -10.769531 -4.820312 -10.769531 -10.769531 v -88.460938 c 0 -5.949219 4.820312 -10.769531 10.769531 -10.769531 z m 0 0" fill="#8892be"/>
        <path d="m 18.769531 8 h 90.460938 c 5.949219 0 10.769531 4.820312 10.769531 10.769531 v 88.460938 c 0 5.949219 -4.820312 10.769531 -10.769531 10.769531 h -90.460938 c -5.949219 0 -10.769531 -4.820312 -10.769531 -10.769531 v -88.460938 c 0 -5.949219 4.820312 -10.769531 10.769531 -10.769531 z m 0 0" fill="url(#a)"/>
        <path d="m 59 37 c 0 11.046875 -8.953125 20 -20 20 s -20 -8.953125 -20 -20 s 8.953125 -20 20 -20 s 20 8.953125 20 20 z m 0 0" fill="url(#c)"/>
        <path d="m 57 35 c 0 9.941406 -8.058594 18 -18 18 s -18 -8.058594 -18 -18 s 8.058594 -18 18 -18 s 18 8.058594 18 18 z m 0 0" fill="#f5f7ff"/>
        <path d="m 29.292969 42.289062 l 16.996093 -16.996093 c 0.390626 -0.390625 1.027344 -0.390625 1.417969 0 s 0.390625 1.027343 0 1.417969 l -16.996093 16.996093 c -0.390626 0.390625 -1.027344 0.390625 -1.417969 0 s -0.390625 -1.027343 0 -1.417969 z m 0 0" fill="#9199d1"/>
        <path d="m 109 37 c 0 11.046875 -8.953125 20 -20 20 s -20 -8.953125 -20 -20 s 8.953125 -20 20 -20 s 20 8.953125 20 20 z m 0 0" fill="url(#d)"/>
        <path d="m 107 35 c 0 9.941406 -8.058594 18 -18 18 s -18 -8.058594 -18 -18 s 8.058594 -18 18 -18 s 18 8.058594 18 18 z m 0 0" fill="#f5f7ff"/>
        <path d="m 79.292969 42.289062 l 16.996093 -16.996093 c 0.390626 -0.390625 1.027344 -0.390625 1.417969 0 s 0.390625 1.027343 0 1.417969 l -16.996093 16.996093 c -0.390626 0.390625 -1.027344 0.390625 -1.417969 0 s -0.390625 -1.027343 0 -1.417969 z m 0 0" fill="#9199d1"/>
        <path d="m 59 89 c 0 11.046875 -8.953125 20 -20 20 s -20 -8.953125 -20 -20 s 8.953125 -20 20 -20 s 20 8.953125 20 20 z m 0 0" fill="url(#e)"/>
        <path d="m 57 87 c 0 9.941406 -8.058594 18 -18 18 s -18 -8.058594 -18 -18 s 8.058594 -18 18 -18 s 18 8.058594 18 18 z m 0 0" fill="#f5f7ff"/>
        <path d="m 109 89 c 0 11.046875 -8.953125 20 -20 20 s -20 -8.953125 -20 -20 s 8.953125 -20 20 -20 s 20 8.953125 20 20 z m 0 0" fill="url(#f)"/>
        <path d="m 107 87 c 0 9.941406 -8.058594 18 -18 18 s -18 -8.058594 -18 -18 s 8.058594 -18 18 -18 s 18 8.058594 18 18 z m 0 0" fill="#f5f7ff"/>
        <g fill="#9199d1">
            <path d="m 79.292969 94.289062 l 16.996093 -16.996093 c 0.390626 -0.390625 1.027344 -0.390625 1.417969 0 s 0.390625 1.027343 0 1.417969 l -16.996093 16.996093 c -0.390626 0.390625 -1.027344 0.390625 -1.417969 0 s -0.390625 -1.027343 0 -1.417969 z m 0 0"/>
            <path d="m 29.292969 94.289062 l 16.996093 -16.996093 c 0.390626 -0.390625 1.027344 -0.390625 1.417969 0 s 0.390625 1.027343 0 1.417969 l -16.996093 16.996093 c -0.390626 0.390625 -1.027344 0.390625 -1.417969 0 s -0.390625 -1.027343 0 -1.417969 z m 0 0"/>
        </g>
    </g>
</svg>
