<?xml version="1.0" encoding="UTF-8"?>
<svg height="128px" viewBox="0 0 128 128" width="128px" xmlns="http://www.w3.org/2000/svg" xmlns:xlink="http://www.w3.org/1999/xlink">
    <linearGradient id="a" gradientTransform="matrix(0.990775 0 0 0.984956 -105.771259 -191.021288)" gradientUnits="userSpaceOnUse" x1="153.953934" x2="222.826782" y1="247.914124" y2="247.914124">
        <stop offset="0" stop-color="#813d9c"/>
        <stop offset="1" stop-color="#403d9c"/>
    </linearGradient>
    <linearGradient id="b" gradientTransform="matrix(0.996887 0 0 0.984956 -106.629586 -190.176846)" gradientUnits="userSpaceOnUse" x1="120.345741" x2="189.218582" y1="261.270538" y2="261.270538">
        <stop offset="0" stop-color="#5241ac"/>
        <stop offset="1" stop-color="#832cb2"/>
    </linearGradient>
    <path d="m 91.21875 106.558594 c 15.214844 -11.71875 23.84375 -32.109375 22.261719 -52.613282 c -1.390625 -18.085937 -12.210938 -34.441406 -27.089844 -40.953124 c -6.921875 -3.027344 -12.800781 -3.816407 -22.625 -3.039063 c -3.265625 0.261719 -13.324219 -0.691406 -16.488281 2.320313 c -3.308594 3.148437 -2.3125 4.902343 -1.332032 5.675781 c 7.378907 5.804687 11.53125 10.675781 15.121094 17.726562 c 4.261719 8.375 6.164063 17.289063 5.824219 27.269531 c -0.367187 10.730469 1.378906 19.183594 5.664063 27.449219 c 3.003906 5.792969 6.042968 9.742188 10.703124 13.90625 c 4.964844 4.4375 5.089844 4.472657 7.960938 2.257813 z m 0 0" fill="#613583"/>
    <path d="m 34.585938 25.113281 c -15.308594 11.722657 -23.988282 32.113281 -22.398438 52.613281 c 1.398438 18.085938 12.285156 34.441407 27.253906 40.953126 c 6.964844 3.03125 12.882813 3.820312 22.765625 3.039062 c 3.289063 -0.257812 10.246094 -2.609375 14.75 -4.980469 c 2.835938 -0.878906 6.3125 -5.300781 4.523438 -8.6875 c -6.101563 -5.074219 -13.3125 -5.71875 -16.554688 -12.050781 c -4.289062 -8.378906 -6.203125 -17.289062 -5.863281 -27.269531 c 0.371094 -10.734375 -1.382812 -19.183594 -5.695312 -27.453125 c -3.023438 -5.792969 -6.082032 -9.742188 -10.769532 -13.90625 c -4.996094 -4.433594 -5.125 -4.472656 -8.011718 -2.257813 z m 0 0" fill="#613583"/>
    <path d="m 92.554688 100.886719 c 15.210937 -11.722657 23.839843 -32.113281 22.261718 -52.613281 c -1.394531 -18.085938 -12.214844 -34.441407 -27.089844 -40.953126 c -6.921874 -3.03125 -12.804687 -3.820312 -22.628906 -3.039062 c -3.265625 0.257812 -10.179687 2.609375 -14.65625 4.980469 c -4.039062 2.140625 -4.144531 2.242187 -3.164062 3.011719 c 7.378906 5.808593 11.535156 10.679687 15.121094 17.726562 c 4.261718 8.378906 6.167968 17.289062 5.824218 27.269531 c -0.363281 10.730469 1.378906 19.183594 5.664063 27.453125 c 3.003906 5.792969 6.042969 9.742188 10.703125 13.90625 c 4.964844 4.433594 5.09375 4.472656 7.964844 2.257813 z m 0 0" fill="url(#a)"/>
    <path d="m 35.925781 19.441406 c -15.304687 11.71875 -23.988281 32.109375 -22.398437 52.613282 c 1.402344 18.085937 12.289062 34.441406 27.257812 40.953124 c 6.964844 3.027344 12.882813 3.816407 22.765625 3.039063 c 3.285157 -0.261719 10.242188 -2.609375 14.746094 -4.980469 c 4.066406 -2.140625 4.171875 -2.242187 3.183594 -3.015625 c -7.421875 -5.804687 -11.601563 -10.675781 -15.210938 -17.726562 c -4.289062 -8.375 -6.207031 -17.289063 -5.863281 -27.269531 c 0.367188 -10.730469 -1.386719 -19.183594 -5.699219 -27.449219 c -3.023437 -5.792969 -6.078125 -9.742188 -10.769531 -13.90625 c -4.996094 -4.4375 -5.121094 -4.472657 -8.011719 -2.257813 z m 0 0" fill="url(#b)"/>
</svg>
