<svg xmlns="http://www.w3.org/2000/svg" xmlns:xlink="http://www.w3.org/1999/xlink" width="128" height="128"><filter id="a" width="100%" height="100%" x="0%" y="0%"><feColorMatrix color-interpolation-filters="sRGB" values="0 0 0 0 1 0 0 0 0 1 0 0 0 0 1 0 0 0 1 0"/></filter><linearGradient id="d" x1="15.817" x2="111.817" y1="236.336" y2="236.336" gradientTransform="matrix(1.16667 0 0 1.14583 -10.453 -207.801)" gradientUnits="userSpaceOnUse"><stop offset=".05" stop-color="#9fa6c2"/><stop offset=".5" stop-color="#d0d3dc"/><stop offset=".95" stop-color="#9fa6c2"/></linearGradient><mask id="f"><g filter="url(#a)"><path fill-opacity=".24" d="M-12.8-12.8h153.6v153.6H-12.8z"/></g></mask><clipPath id="g"><path d="M0 0h192v152H0z"/></clipPath><linearGradient id="b" gradientUnits="userSpaceOnUse"><stop offset="0" stop-color="#99a0c9"/><stop offset=".5" stop-color="#667dff" stop-opacity=".698"/><stop offset="1" stop-color="#99a0c9"/></linearGradient><linearGradient xlink:href="#b" id="h" x1="19" x2="59" y1="37" y2="37"/><linearGradient xlink:href="#b" id="j" x1="69" x2="109" y1="37" y2="37"/><linearGradient xlink:href="#b" id="k" x1="19" x2="59" y1="89" y2="89"/><linearGradient id="c" gradientUnits="userSpaceOnUse"><stop offset="0" stop-color="#fff"/><stop offset="1" stop-color="#e2e7ff"/></linearGradient><linearGradient xlink:href="#c" id="l" x1="39" x2="39" y1="69" y2="105"/><linearGradient xlink:href="#c" id="m" x1="39" x2="39" y1="17" y2="53"/><linearGradient xlink:href="#c" id="n" x1="89" x2="89" y1="17" y2="53"/><linearGradient xlink:href="#b" id="o" x1="69" x2="109" y1="89" y2="89"/><linearGradient xlink:href="#c" id="p" x1="89" x2="89" y1="69" y2="105"/><path fill="#8892be" fill-rule="evenodd" d="M18.77 10h90.46c5.95 0 10.77 4.82 10.77 10.77v88.46c0 5.95-4.82 10.77-10.77 10.77H18.77C12.82 120 8 115.18 8 109.23V20.77C8 14.82 12.82 10 18.77 10m0 0"/><path fill="url(#d)" fill-rule="evenodd" d="M18.77 8h90.46C115.18 8 120 12.82 120 18.77v88.46c0 5.95-4.82 10.77-10.77 10.77H18.77C12.82 118 8 113.18 8 107.23V18.77C8 12.82 12.82 8 18.77 8m0 0"/><g mask="url(#f)"><g clip-path="url(#g)" transform="translate(-8 -16)"><path fill="#fff" d="M29.496 24 16 37.496v1.414L30.91 24zm4.242 0L16 41.738v1.414L35.156 24zm4.246 0L16 45.98v1.415L39.395 24zm4.239 0L16 50.227v1.41L43.64 24zm4.246 0L16 54.469v1.414L47.879 24zm4.238 0L16 58.707v1.418L52.125 24zm4.246 0L16 62.95v1.413L56.363 24zm4.238 0L16 67.195v1.414L60.61 24zm4.246 0L16 71.438v1.414L64.848 24zm4.243 0L16 75.68v1.414L69.094 24zm4.242 0L16 79.922v1.414L73.34 24zm4.246 0L16 84.164v1.418L77.578 24zm4.238 0L16 88.406v1.418L81.824 24zm4.246 0L16 92.648v1.415L86.063 24zm4.239 0L16 96.895v1.41L90.309 24zm4.246 0L16 101.137v1.414L94.547 24zm4.238 0L16 105.379v1.414L98.793 24zm4.246 0L16 109.621v1.414L103.035 24zm4.242 0L16 113.863v1.414L107.281 24zm4.242 0L16 118.105v1.415L111.52 24zm4.247 0L16 122.352v.683c0 .235.02.461.035.695L115.762 24zm-87.7.016q-.801.022-1.574.156l-8.906 8.906q-.133.775-.156 1.57zm91.836.09L16.453 126.14q.153.538.363 1.046l102.86-102.855q-.584-.143-1.188-.227m3.274.968L17.789 129.043q.277.428.594.82L122.68 25.57c-.297-.18-.606-.343-.918-.496m2.55 1.692L19.77 131.305q.379.333.789.625L125.03 27.46q-.347-.361-.719-.694m-104.945.293q-.157.151-.308.308zM126.27 29.05 22.344 132.973q.492.228 1.008.41L126.785 29.949q-.24-.464-.515-.898m1.312 2.93L25.648 133.913c.434.05.872.086 1.317.086h.012L127.836 33.137c-.066-.39-.148-.778-.254-1.157m.418 3.824L29.805 134h1.414L128 37.219zm0 4.246L34.047 134h1.414L128 41.46zm0 4.242L38.29 134h1.413L128 45.707zm0 4.238L42.531 134h1.418L128 49.95zm0 4.242L46.777 134h1.41L128 54.188zm0 4.247L51.016 134h1.418L128 58.43zm0 4.242L55.262 134h1.41L128 62.676zm0 4.238L59.504 134h1.414L128 66.918zm0 4.242L63.746 134h1.414L128 71.156zm0 4.246L67.988 134h1.414L128 75.406zm0 4.242L72.23 134h1.415L128 79.645zm0 4.247L76.473 134h1.418L128 83.887zm0 4.242L80.719 134h1.41L128 88.133zm0 4.238L84.957 134h1.418L128 92.375zm0 4.242L89.203 134h1.41L128 96.613zm0 4.246L93.441 134h1.418L128 100.855zm0 4.243L97.688 134h1.414L128 105.102zm0 4.242L101.93 134h1.414L128 109.344zm0 4.246L106.172 134h1.414L128 113.586zm0 4.242L110.414 134h1.414L128 117.832zm0 4.238L114.656 134h1.418L128 122.074zm-.2 4.446-8.698 8.699a11 11 0 0 0 1.992-.582l6.125-6.125q.382-.956.582-1.992m0 0"/></g></g><g fill-rule="evenodd"><path fill="url(#h)" d="M59 37c0 11.047-8.953 20-20 20s-20-8.953-20-20 8.953-20 20-20 20 8.953 20 20m0 0"/><path fill="url(#j)" d="M109 37c0 11.047-8.953 20-20 20s-20-8.953-20-20 8.953-20 20-20 20 8.953 20 20m0 0"/><path fill="url(#k)" d="M59 89c0 11.047-8.953 20-20 20s-20-8.953-20-20 8.953-20 20-20 20 8.953 20 20m0 0"/><path fill="url(#l)" d="M57 87c0 9.941-8.059 18-18 18s-18-8.059-18-18 8.059-18 18-18 18 8.059 18 18m0 0"/><path fill="url(#m)" d="M57 35c0 9.941-8.059 18-18 18s-18-8.059-18-18 8.059-18 18-18 18 8.059 18 18m0 0"/><path fill="url(#n)" d="M107 35c0 9.941-8.059 18-18 18s-18-8.059-18-18 8.059-18 18-18 18 8.059 18 18m0 0"/><path fill="url(#o)" d="M109 89c0 11.047-8.953 20-20 20s-20-8.953-20-20 8.953-20 20-20 20 8.953 20 20m0 0"/><path fill="url(#p)" d="M107 87c0 9.941-8.059 18-18 18s-18-8.059-18-18 8.059-18 18-18 18 8.059 18 18m0 0"/><path fill="#9199d1" d="m79.457 94.344 16.887-16.887c.61-.61 1.594-.61 2.199 0 .61.606.61 1.59 0 2.2L81.656 96.542c-.61.61-1.594.61-2.199 0a1.55 1.55 0 0 1 0-2.2M79.457 42.344l16.887-16.887c.61-.61 1.594-.61 2.199 0 .61.605.61 1.59 0 2.2L81.656 44.542c-.61.61-1.594.61-2.199 0a1.56 1.56 0 0 1 0-2.2M29.457 42.344l16.887-16.887c.61-.61 1.593-.61 2.199 0 .61.605.61 1.59 0 2.2L31.656 44.542c-.61.61-1.593.61-2.199 0a1.56 1.56 0 0 1 0-2.2M29.457 94.344l16.887-16.887a1.56 1.56 0 0 1 2.199 0c.61.606.61 1.59 0 2.2L31.656 96.542c-.61.61-1.593.61-2.199 0a1.55 1.55 0 0 1 0-2.2m0 0"/></g></svg>