<?xml version="1.0" encoding="UTF-8"?>
<svg id="svg14" width="128px" height="128px" version="1.1" viewBox="0 0 128 128" xmlns="http://www.w3.org/2000/svg" xmlns:xlink="http://www.w3.org/1999/xlink">
 <defs id="defs13">
  <linearGradient id="linearGradient31" gradientUnits="userSpaceOnUse">
   <stop id="stop29" stop-color="#98a4dc" offset="0"/>
   <stop id="stop30" stop-color="#5f76f7" stop-opacity=".75" offset=".50143"/>
   <stop id="stop31" stop-color="#98a4dc" offset="1"/>
  </linearGradient>
  <linearGradient id="linearGradient37" x1="8" x2="120" y1="65" y2="65" gradientTransform="matrix(.92857 0 0 .92857 4.5714 4.5714)" gradientUnits="userSpaceOnUse">
   <stop id="stop32" stop-color="#6779b6" offset="0"/>
   <stop id="stop33" stop-color="#b4bfda" offset=".06"/>
   <stop id="stop34" stop-color="#7c8bc1" offset=".11"/>
   <stop id="stop35" stop-color="#7b8bc2" offset=".89"/>
   <stop id="stop36" stop-color="#b4bfda" offset=".94"/>
   <stop id="stop37" stop-color="#6779b6" offset="1"/>
  </linearGradient>
  <linearGradient id="linearGradient30" x1="8" x2="120" y1="65" y2="65" gradientTransform="matrix(.92857 0 0 .92857 4.5714 2.7143)" gradientUnits="userSpaceOnUse">
   <stop id="stop7-3" stop-color="#9ba7ce" offset="0"/>
   <stop id="stop8-6" stop-color="#b4c1da" offset=".047494"/>
   <stop id="stop12" stop-color="#a5b0d4" offset=".10308"/>
   <stop id="stop10" stop-color="#d0d7e7" offset=".49717"/>
   <stop id="stop15" stop-color="#a5b0d4" offset=".89515"/>
   <stop id="stop16" stop-color="#b4c1da" offset=".95279"/>
   <stop id="stop17" stop-color="#9ba7ce" offset="1"/>
  </linearGradient>
  <linearGradient id="c-7" gradientUnits="userSpaceOnUse">
   <stop id="stop14" stop-color="#fff" offset="0"/>
   <stop id="stop18" stop-color="#e2e7ff" offset="1"/>
  </linearGradient>
  <linearGradient id="linearGradient33" x1="19" x2="59" y1="89" y2="89" gradientTransform="matrix(.95 0 0 .94999 3.9507 -45.548)" gradientUnits="userSpaceOnUse" xlink:href="#linearGradient31"/>
  <filter id="filter63-0" x="-.097911" y="-.095783" width="1.1958" height="1.1916" color-interpolation-filters="sRGB">
   <feGaussianBlur id="feGaussianBlur63-6" stdDeviation="3.6716764"/>
  </filter>
  <linearGradient id="linearGradient4-5" x1="89" x2="89" y1="69" y2="105" gradientTransform="matrix(.94444 0 0 .94444 -43.055 -45.166)" gradientUnits="userSpaceOnUse" xlink:href="#c-7"/>
  <linearGradient id="linearGradient11" x1="19" x2="59" y1="89" y2="89" gradientTransform="matrix(.95 0 0 .94999 49.951 -45.548)" gradientUnits="userSpaceOnUse" xlink:href="#linearGradient31"/>
  <linearGradient id="linearGradient12" x1="89" x2="89" y1="69" y2="105" gradientTransform="matrix(.94444 0 0 .94444 2.9451 -45.166)" gradientUnits="userSpaceOnUse" xlink:href="#c-7"/>
  <linearGradient id="linearGradient17" x1="19" x2="59" y1="89" y2="89" gradientTransform="matrix(.95 0 0 .94999 3.9507 2.4516)" gradientUnits="userSpaceOnUse" xlink:href="#linearGradient31"/>
  <linearGradient id="linearGradient18" x1="89" x2="89" y1="69" y2="105" gradientTransform="matrix(.94444 0 0 .94444 -43.055 2.8342)" gradientUnits="userSpaceOnUse" xlink:href="#c-7"/>
  <linearGradient id="linearGradient19" x1="19" x2="59" y1="89" y2="89" gradientTransform="matrix(.95 0 0 .94999 49.951 2.4516)" gradientUnits="userSpaceOnUse" xlink:href="#linearGradient31"/>
  <linearGradient id="linearGradient20" x1="89" x2="89" y1="69" y2="105" gradientTransform="matrix(.94444 0 0 .94444 2.9451 2.8342)" gradientUnits="userSpaceOnUse" xlink:href="#c-7"/>
 </defs>
 <path id="path8-0" d="m20 12c-4.432 0-8 3.568-8 8v88c0 4.432 3.568 8 8 8h88c4.432 0 8-3.568 8-8v-88c0-4.432-3.568-8-8-8z" fill="url(#linearGradient37)"/>
 <path id="path8-1" d="m20 12c-4.432 0-8 3.568-8 8v86c0 4.432 3.568 8 8 8h88c4.432 0 8-3.568 8-8v-86c0-4.432-3.568-8-8-8z" fill="url(#linearGradient30)" style="mix-blend-mode:normal"/>
 <path id="path8-1-2" d="m22 12c-0.66615 0-1.3157 0.06728-1.9453 0.19141l-7.8633 7.8652c-0.12389 0.62906-0.19141 1.2779-0.19141 1.9434v1.0781l11.074-11.076zm3.9023 0-13.9 13.906v2.8281l16.729-16.732zm5.6602 0-19.561 19.564v0.43555h-0.00195v2.3945l22.395-22.395h-2.3926zm5.6562 0-25.219 25.219v2.8281l8.0449-8.0449h2e-3l11.953-11.955 8.0449-8.0449h2e-3l2e-3 -2e-3zm5.6543 0-10.873 10.873v2e-3l-9.125 9.125-10.875 10.873v2.8301l13.701-13.701h2e-3l6.2968-6.2989 13.701-13.701h2e-3l0.00191-0.001953zm5.6602 0-36.533 36.533v2.8281l39.361-39.361zm5.6562 0-19.998 20h-4e-3l-22.187 22.191v2.8281l20-20 5.0176-5.0195 20-20zm5.6543 0-19.998 20h-2e-3l-27.844 27.848v2.8281l20-20 10.672-10.674 20.002-20.002zm5.6562 0-19.998 20-33.502 33.502v2.8281l36.332-36.328h-4e-3l20.002-20h2e-3l2e-3 -2e-3zm5.6602 0-59.16 59.16v2.8281l20-20 21.988-21.986 20.002-20.002zm5.6562 0-64.816 64.816v2.8281l20-20 27.646-27.645 20-20zm5.6562 0-20 20-30.473 30.475-20 20v2.8281l73.303-73.303zm5.6562 0-20 20-36.129 36.131-20 20v2.8301l20-20 38.957-38.959 20.002-20.002zm5.6562 0-61.785 61.787-20 20v2.8281l84.615-84.615zm5.6562 0-19.998 20-47.443 47.445-20 20v2.8281l90.273-90.273zm5.6602 0-73.057 73.059-20.045 20.045v0.89651c0 0.59705 0.0705 1.1772 0.19336 1.7363l95.736-95.736zm5.293 0.36328-97.439 97.439c0.32333 0.60012 0.72559 1.1477 1.1855 1.6426l20.521-20.521 77.658-77.656c-0.59385-0.38083-1.2373-0.69005-1.9258-0.9043zm3.4648 2.1914-77.695 77.697-20.482 20.482c0.59393 0.38059 1.2373 0.69028 1.9258 0.90429l97.439-97.439c-0.32356-0.60099-0.72697-1.149-1.1875-1.6445zm1.9473 3.709-20.391 20.391-55.303 55.307-20.039 20.039h2.8281l73.043-73.045 20-20 0.05473-0.054727v-0.90039c0-0.59705-0.0705-1.1772-0.19336-1.7363zm0.19336 5.4648-70.412 70.414-19.857 19.857h2.8281l67.441-67.445 20-20zm0 5.6562-20 20.002v-0.0039l-64.611 64.617h2.8262l19.855-19.855 41.93-41.934 20-20zm0 5.6562-20 20.002v-0.0039l-58.955 58.961h2.8281l76.127-76.127zm0 5.6582-20 20-33.445 33.443-19.857 19.857h2.8281l70.475-70.473zm0 5.6562-67.645 67.645h2.8281l64.816-64.814zm0 5.6562-61.986 61.988h2.8281l39.158-39.16 20-20zm0 5.6562-20 20v2e-3l-36.33 36.33h2.8301l33.5-33.502 20-20zm0 5.6562-20 20v2e-3l-30.674 30.674h2.8281l27.846-27.848 20-20zm0 5.6562-20 20v2e-3l-25.018 25.018h2.8281l42.189-42.189zm0 5.6602-39.359 39.359h2.8281l36.531-36.531zm0 5.6562-33.703 33.703h2.8262l10.877-10.875v-2e-3l20-19.998v-2e-3zm0 5.6562-28.047 28.047h2.8281l25.219-25.219zm0 5.6562-22.391 22.391h2.8281l19.562-19.562v-0.29492zm0 5.6562-16.734 16.734h2.8281l13.906-13.906zm0 5.6563-11.076 11.078h2.6016c0.0818-0.0129 0.16871-9e-3 0.25-0.0234l8.0586-8.0605c0.10334-0.57673 0.16602-1.167 0.16602-1.7735z" fill="#fff" fill-opacity=".15" style="mix-blend-mode:normal"/>
 <path id="path13-1-4" transform="matrix(.92702 0 0 .93237 -40.867 8.0962)" d="m88 13c-11.047 0-20 8.953-20 20s8.953 20 20 20 20-8.953 20-20-8.953-20-20-20zm50 0c-11.047 0-20 8.953-20 20s8.953 20 20 20 20-8.953 20-20-8.953-20-20-20zm-50 52c-11.047 0-20 8.953-20 20s8.953 20 20 20 20-8.953 20-20-8.953-20-20-20zm50 0c-11.047 0-20 8.953-20 20s8.953 20 20 20 20-8.953 20-20-8.953-20-20-20z" fill="#1328a4" fill-rule="evenodd" filter="url(#filter63-0)" opacity=".13149"/>
 <path id="path13-1-1" d="m60.001 39.001c0 10.495-8.5054 19-19 19s-19-8.5053-19-19 8.5054-19 19-19 19 8.5053 19 19" fill="url(#linearGradient33)" fill-rule="evenodd" stroke-width=".94999"/>
 <path id="path18-0-2-9" d="m58.001 37.001c0 9.3887-7.6113 17-17 17s-17-7.6113-17-17 7.6113-17 17-17 17 7.6113 17 17" fill="url(#linearGradient4-5)" fill-rule="evenodd" stroke-width=".94444"/>
 <path id="path13-1-1-6" d="m106 39.001c0 10.495-8.5054 19-19 19s-19-8.5053-19-19 8.5054-19 19-19 19 8.5053 19 19" fill="url(#linearGradient11)" fill-rule="evenodd" stroke-width=".94999"/>
 <path id="path18-0-2-9-7" d="m104 37.001c0 9.3887-7.6113 17-17 17s-17-7.6113-17-17 7.6113-17 17-17 17 7.6113 17 17" fill="url(#linearGradient12)" fill-rule="evenodd" stroke-width=".94444"/>
 <path id="path13-1-1-5" d="m60.001 87.001c0 10.495-8.5054 19-19 19s-19-8.5053-19-19 8.5054-19 19-19 19 8.5053 19 19" fill="url(#linearGradient17)" fill-rule="evenodd" stroke-width=".94999"/>
 <path id="path18-0-2-9-74" d="m58.001 85.001c0 9.3887-7.6113 17-17 17s-17-7.6113-17-17 7.6113-17 17-17 17 7.6113 17 17" fill="url(#linearGradient18)" fill-rule="evenodd" stroke-width=".94444"/>
 <path id="path13-1-1-6-1" d="m106 87.001c0 10.495-8.5054 19-19 19s-19-8.5053-19-19 8.5054-19 19-19 19 8.5053 19 19" fill="url(#linearGradient19)" fill-rule="evenodd" stroke-width=".94999"/>
 <path id="path18-0-2-9-7-8" d="m104 85.001c0 9.3887-7.6113 17-17 17s-17-7.6113-17-17 7.6113-17 17-17 17 7.6113 17 17" fill="url(#linearGradient20)" fill-rule="evenodd" stroke-width=".94444"/>
 <path id="path36-7" d="m47.441 29.001c-0.39904 0-0.7988 0.15259-1.1048 0.45867l-12.881 12.875c-0.60586 0.61076-0.60655 1.5968 0 2.2071 0.60683 0.61218 1.5938 0.61218 2.2055 0l12.881-12.875c0.6118-0.61219 0.6118-1.5999 0-2.2071-0.30342-0.3061-0.70175-0.45867-1.1008-0.45867z" fill="#8f94d2" fill-rule="evenodd" stroke-width="1.0032"/>
 <path id="path36-9-7" d="m93.441 29.001c-0.39904 0-0.7988 0.15259-1.1048 0.45867l-12.881 12.875c-0.60586 0.61076-0.60655 1.5968 0 2.2071 0.60683 0.61218 1.5938 0.61218 2.2055 0l12.881-12.875c0.6118-0.61219 0.6118-1.5999 0-2.2071-0.30342-0.3061-0.70175-0.45867-1.1008-0.45867z" fill="#8f94d2" fill-rule="evenodd" stroke-width="1.0032"/>
 <path id="path36-9" d="m93.441 77.001c-0.39904 0-0.7988 0.15259-1.1048 0.45867l-12.881 12.875c-0.60586 0.61076-0.60655 1.5968 0 2.2071 0.60683 0.61218 1.5938 0.61218 2.2055 0l12.881-12.875c0.6118-0.61219 0.6118-1.5999 0-2.2071-0.30342-0.3061-0.70175-0.45867-1.1008-0.45867z" fill="#8f94d2" fill-rule="evenodd" stroke-width="1.0032"/>
 <path id="path36" d="m47.441 77.001c-0.39904 0-0.7988 0.15259-1.1048 0.45867l-12.881 12.875c-0.60586 0.61076-0.60655 1.5968 0 2.2071 0.60683 0.61218 1.5938 0.61218 2.2055 0l12.881-12.875c0.6118-0.61219 0.6118-1.5999 0-2.2071-0.30342-0.3061-0.70175-0.45867-1.1008-0.45867z" fill="#8f94d2" fill-rule="evenodd" stroke-width="1.0032"/>
</svg>
